G04*
G04 #@! TF.GenerationSoftware,Altium Limited,Altium Designer,21.9.2 (33)*
G04*
G04 Layer_Physical_Order=1*
G04 Layer_Color=255*
%FSAX25Y25*%
%MOIN*%
G70*
G04*
G04 #@! TF.SameCoordinates,203294B4-0F2B-408B-82F0-FBCEC716028D*
G04*
G04*
G04 #@! TF.FilePolarity,Positive*
G04*
G01*
G75*
%ADD17C,0.01500*%
%ADD18R,0.05118X0.05118*%
%ADD19R,0.09843X0.09843*%
%ADD20O,0.06496X0.01900*%
%ADD21O,0.01900X0.06496*%
%ADD22R,0.05512X0.04724*%
%ADD23R,0.08976X0.08346*%
%ADD24R,0.03937X0.05500*%
%ADD25O,0.07087X0.02362*%
%ADD26R,0.04724X0.05512*%
%ADD27R,0.10000X0.07000*%
G04:AMPARAMS|DCode=28|XSize=77.17mil|YSize=22.44mil|CornerRadius=5.5mil|HoleSize=0mil|Usage=FLASHONLY|Rotation=180.000|XOffset=0mil|YOffset=0mil|HoleType=Round|Shape=RoundedRectangle|*
%AMROUNDEDRECTD28*
21,1,0.07717,0.01145,0,0,180.0*
21,1,0.06617,0.02244,0,0,180.0*
1,1,0.01100,-0.03309,0.00572*
1,1,0.01100,0.03309,0.00572*
1,1,0.01100,0.03309,-0.00572*
1,1,0.01100,-0.03309,-0.00572*
%
%ADD28ROUNDEDRECTD28*%
%ADD29R,0.05000X0.05500*%
%ADD30R,0.05906X0.06299*%
%ADD31R,0.02362X0.05906*%
%ADD32R,0.09843X0.06693*%
%ADD33R,0.03937X0.12000*%
%ADD34R,0.39370X0.27559*%
%ADD35R,0.06693X0.07874*%
%ADD36R,0.15748X0.07874*%
%ADD37R,0.07874X0.16142*%
%ADD64C,0.02500*%
%ADD65C,0.03500*%
%ADD66C,0.03000*%
%ADD67C,0.05000*%
%ADD68C,0.04000*%
%ADD69C,0.02000*%
%ADD70C,0.01181*%
%ADD71C,0.07000*%
%ADD72O,0.07000X0.10000*%
%ADD73R,0.07000X0.10000*%
%ADD74R,0.07874X0.09843*%
%ADD75R,0.10000X0.16000*%
%ADD76R,0.16000X0.10000*%
%ADD77C,0.23622*%
%ADD78C,0.05000*%
%ADD79C,0.02000*%
G36*
X0533415Y0554998D02*
X0533437Y0554700D01*
X0533474Y0554438D01*
X0533527Y0554212D01*
X0533594Y0554022D01*
X0533675Y0553868D01*
X0533772Y0553750D01*
X0533884Y0553668D01*
X0534010Y0553622D01*
X0534152Y0553613D01*
X0531163Y0553444D01*
X0531305Y0553470D01*
X0531431Y0553530D01*
X0531543Y0553625D01*
X0531639Y0553754D01*
X0531721Y0553918D01*
X0531788Y0554116D01*
X0531841Y0554349D01*
X0531878Y0554617D01*
X0531900Y0554919D01*
X0531908Y0555256D01*
X0533407Y0555332D01*
X0533415Y0554998D01*
D02*
G37*
G36*
X0467049Y0552051D02*
X0467071Y0551796D01*
X0467109Y0551571D01*
X0467162Y0551376D01*
X0467229Y0551211D01*
X0467311Y0551076D01*
X0467409Y0550971D01*
X0467521Y0550896D01*
X0467649Y0550851D01*
X0467792Y0550836D01*
X0464791D01*
X0464934Y0550851D01*
X0465062Y0550896D01*
X0465174Y0550971D01*
X0465272Y0551076D01*
X0465354Y0551211D01*
X0465421Y0551376D01*
X0465474Y0551571D01*
X0465512Y0551796D01*
X0465534Y0552051D01*
X0465542Y0552336D01*
X0467041D01*
X0467049Y0552051D01*
D02*
G37*
G36*
X0459114Y0545335D02*
X0458994Y0545260D01*
X0458888Y0545135D01*
X0458796Y0544960D01*
X0458718Y0544735D01*
X0458654Y0544460D01*
X0458605Y0544135D01*
X0458570Y0543760D01*
X0458541Y0542860D01*
X0456041D01*
X0456034Y0543335D01*
X0455978Y0544135D01*
X0455929Y0544460D01*
X0455865Y0544735D01*
X0455787Y0544960D01*
X0455695Y0545135D01*
X0455589Y0545260D01*
X0455469Y0545335D01*
X0455335Y0545360D01*
X0459248D01*
X0459114Y0545335D01*
D02*
G37*
G36*
X0524168Y0544225D02*
X0524041Y0544172D01*
X0523930Y0544083D01*
X0523833Y0543959D01*
X0523751Y0543799D01*
X0523684Y0543604D01*
X0523632Y0543373D01*
X0523595Y0543107D01*
X0523572Y0542806D01*
X0523565Y0542468D01*
X0522065D01*
X0522057Y0542806D01*
X0521998Y0543373D01*
X0521946Y0543604D01*
X0521879Y0543799D01*
X0521797Y0543959D01*
X0521700Y0544083D01*
X0521589Y0544172D01*
X0521462Y0544225D01*
X0521321Y0544243D01*
X0524309D01*
X0524168Y0544225D01*
D02*
G37*
G36*
X0514168D02*
X0514041Y0544172D01*
X0513930Y0544083D01*
X0513833Y0543959D01*
X0513751Y0543799D01*
X0513684Y0543604D01*
X0513632Y0543373D01*
X0513595Y0543107D01*
X0513572Y0542806D01*
X0513565Y0542468D01*
X0512065D01*
X0512057Y0542806D01*
X0511998Y0543373D01*
X0511946Y0543604D01*
X0511879Y0543799D01*
X0511797Y0543959D01*
X0511700Y0544083D01*
X0511589Y0544172D01*
X0511462Y0544225D01*
X0511321Y0544243D01*
X0514309D01*
X0514168Y0544225D01*
D02*
G37*
G36*
X0504168D02*
X0504041Y0544172D01*
X0503930Y0544083D01*
X0503833Y0543959D01*
X0503751Y0543799D01*
X0503684Y0543604D01*
X0503632Y0543373D01*
X0503595Y0543107D01*
X0503572Y0542806D01*
X0503565Y0542468D01*
X0502065D01*
X0502058Y0542806D01*
X0501998Y0543373D01*
X0501946Y0543604D01*
X0501879Y0543799D01*
X0501797Y0543959D01*
X0501700Y0544083D01*
X0501589Y0544172D01*
X0501462Y0544225D01*
X0501321Y0544243D01*
X0504309D01*
X0504168Y0544225D01*
D02*
G37*
G36*
X0534169Y0544226D02*
X0534042Y0544173D01*
X0533931Y0544084D01*
X0533834Y0543960D01*
X0533752Y0543800D01*
X0533685Y0543605D01*
X0533633Y0543374D01*
X0533596Y0543108D01*
X0533573Y0542806D01*
X0533566Y0542469D01*
X0532066Y0542468D01*
X0532058Y0542805D01*
X0531999Y0543373D01*
X0531947Y0543604D01*
X0531880Y0543799D01*
X0531798Y0543959D01*
X0531701Y0544083D01*
X0531590Y0544172D01*
X0531463Y0544225D01*
X0531322Y0544243D01*
X0534310Y0544244D01*
X0534169Y0544226D01*
D02*
G37*
G36*
X0490963Y0541081D02*
X0490627Y0540720D01*
X0490326Y0540344D01*
X0490061Y0539954D01*
X0489831Y0539549D01*
X0489637Y0539130D01*
X0489478Y0538696D01*
X0489354Y0538247D01*
X0489266Y0537784D01*
X0489213Y0537306D01*
X0489195Y0536813D01*
X0486695Y0536081D01*
X0486670Y0536556D01*
X0486595Y0536981D01*
X0486470Y0537356D01*
X0486295Y0537681D01*
X0486070Y0537956D01*
X0485795Y0538181D01*
X0485470Y0538356D01*
X0485095Y0538481D01*
X0484670Y0538556D01*
X0484195Y0538581D01*
X0484927Y0541081D01*
X0485420Y0541098D01*
X0485898Y0541151D01*
X0486361Y0541240D01*
X0486810Y0541364D01*
X0487244Y0541523D01*
X0487664Y0541717D01*
X0488068Y0541947D01*
X0488459Y0542212D01*
X0488834Y0542513D01*
X0489195Y0542848D01*
X0490963Y0541081D01*
D02*
G37*
G36*
X0322783Y0532177D02*
X0322711Y0532305D01*
X0322609Y0532381D01*
X0322475Y0532404D01*
X0322309Y0532375D01*
X0322113Y0532294D01*
X0321885Y0532161D01*
X0321626Y0531975D01*
X0321336Y0531737D01*
X0320662Y0531105D01*
X0320585Y0533150D01*
X0320839Y0533414D01*
X0321250Y0533909D01*
X0321406Y0534138D01*
X0321530Y0534356D01*
X0321620Y0534563D01*
X0321679Y0534757D01*
X0321704Y0534940D01*
X0321697Y0535112D01*
X0321658Y0535271D01*
X0322783Y0532177D01*
D02*
G37*
G36*
X0309444Y0535112D02*
X0309437Y0534940D01*
X0309463Y0534757D01*
X0309521Y0534563D01*
X0309612Y0534356D01*
X0309736Y0534138D01*
X0309892Y0533909D01*
X0310081Y0533667D01*
X0310302Y0533414D01*
X0310557Y0533150D01*
X0310480Y0531105D01*
X0310127Y0531447D01*
X0309516Y0531975D01*
X0309257Y0532161D01*
X0309029Y0532294D01*
X0308833Y0532375D01*
X0308667Y0532404D01*
X0308533Y0532381D01*
X0308430Y0532305D01*
X0308359Y0532177D01*
X0309484Y0535271D01*
X0309444Y0535112D01*
D02*
G37*
G36*
X0312210Y0509268D02*
X0311899Y0508946D01*
X0311413Y0508375D01*
X0311239Y0508127D01*
X0311110Y0507902D01*
X0311027Y0507702D01*
X0310989Y0507527D01*
X0310997Y0507376D01*
X0311050Y0507249D01*
X0311149Y0507146D01*
X0308713Y0508953D01*
X0308844Y0508882D01*
X0308993Y0508850D01*
X0309160Y0508858D01*
X0309345Y0508906D01*
X0309548Y0508992D01*
X0309769Y0509118D01*
X0310008Y0509283D01*
X0310266Y0509487D01*
X0310541Y0509730D01*
X0310835Y0510013D01*
X0312210Y0509268D01*
D02*
G37*
G36*
X0544603Y0508800D02*
X0544588Y0508943D01*
X0544542Y0509070D01*
X0544467Y0509183D01*
X0544361Y0509280D01*
X0544225Y0509363D01*
X0544058Y0509430D01*
X0543862Y0509482D01*
X0543635Y0509520D01*
X0543378Y0509543D01*
X0543091Y0509550D01*
Y0511050D01*
X0543378Y0511058D01*
X0543635Y0511080D01*
X0543862Y0511118D01*
X0544058Y0511170D01*
X0544225Y0511237D01*
X0544361Y0511320D01*
X0544467Y0511417D01*
X0544542Y0511530D01*
X0544588Y0511657D01*
X0544603Y0511800D01*
Y0508800D01*
D02*
G37*
G36*
X0320267Y0509729D02*
X0320801Y0509279D01*
X0321041Y0509113D01*
X0321262Y0508986D01*
X0321465Y0508898D01*
X0321650Y0508850D01*
X0321816Y0508841D01*
X0321964Y0508871D01*
X0322094Y0508941D01*
X0319670Y0507146D01*
X0319767Y0507248D01*
X0319820Y0507374D01*
X0319826Y0507524D01*
X0319787Y0507700D01*
X0319703Y0507900D01*
X0319573Y0508124D01*
X0319397Y0508373D01*
X0319176Y0508647D01*
X0318597Y0509268D01*
X0319973Y0510013D01*
X0320267Y0509729D01*
D02*
G37*
G36*
X0321779Y0500630D02*
X0321662Y0500715D01*
X0321524Y0500757D01*
X0321365D01*
X0321185Y0500715D01*
X0320984Y0500630D01*
X0320761Y0500503D01*
X0320517Y0500333D01*
X0320252Y0500121D01*
X0319658Y0499569D01*
X0318597Y0500630D01*
X0318894Y0500938D01*
X0319361Y0501489D01*
X0319530Y0501733D01*
X0319658Y0501956D01*
X0319742Y0502157D01*
X0319785Y0502338D01*
Y0502497D01*
X0319742Y0502635D01*
X0319658Y0502751D01*
X0321779Y0500630D01*
D02*
G37*
G36*
X0311046Y0502478D02*
X0310999Y0502347D01*
X0310997Y0502193D01*
X0311038Y0502015D01*
X0311123Y0501815D01*
X0311252Y0501591D01*
X0311426Y0501344D01*
X0311643Y0501074D01*
X0312210Y0500465D01*
X0310985Y0499569D01*
X0310683Y0499860D01*
X0310140Y0500319D01*
X0309898Y0500488D01*
X0309676Y0500616D01*
X0309474Y0500702D01*
X0309292Y0500749D01*
X0309129Y0500754D01*
X0308986Y0500718D01*
X0308863Y0500642D01*
X0311137Y0502587D01*
X0311046Y0502478D01*
D02*
G37*
G36*
X0424560Y0492622D02*
X0424582Y0492367D01*
X0424620Y0492142D01*
X0424672Y0491947D01*
X0424740Y0491782D01*
X0424822Y0491647D01*
X0424920Y0491542D01*
X0425032Y0491467D01*
X0425160Y0491422D01*
X0425302Y0491407D01*
X0422302D01*
X0422445Y0491422D01*
X0422572Y0491467D01*
X0422685Y0491542D01*
X0422782Y0491647D01*
X0422865Y0491782D01*
X0422932Y0491947D01*
X0422985Y0492142D01*
X0423022Y0492367D01*
X0423045Y0492622D01*
X0423052Y0492907D01*
X0424552D01*
X0424560Y0492622D01*
D02*
G37*
G36*
X0313598Y0492603D02*
X0313564Y0492123D01*
X0313535Y0491928D01*
X0313498Y0491763D01*
X0313452Y0491628D01*
X0313398Y0491523D01*
X0313335Y0491448D01*
X0313264Y0491403D01*
X0313185Y0491388D01*
X0311352D01*
X0311494Y0491403D01*
X0311622Y0491448D01*
X0311734Y0491523D01*
X0311832Y0491628D01*
X0311914Y0491763D01*
X0311982Y0491928D01*
X0312034Y0492123D01*
X0312072Y0492348D01*
X0312094Y0492603D01*
X0312102Y0492888D01*
X0313602D01*
X0313598Y0492603D01*
D02*
G37*
G36*
X0489202Y0492625D02*
X0489259Y0491825D01*
X0489308Y0491500D01*
X0489372Y0491225D01*
X0489449Y0491000D01*
X0489541Y0490825D01*
X0489647Y0490700D01*
X0489767Y0490625D01*
X0489901Y0490600D01*
X0485989D01*
X0486123Y0490625D01*
X0486243Y0490700D01*
X0486349Y0490825D01*
X0486441Y0491000D01*
X0486518Y0491225D01*
X0486582Y0491500D01*
X0486631Y0491825D01*
X0486667Y0492200D01*
X0486695Y0493100D01*
X0489195D01*
X0489202Y0492625D01*
D02*
G37*
G36*
X0479703Y0491815D02*
X0479725Y0491560D01*
X0479763Y0491335D01*
X0479815Y0491140D01*
X0479882Y0490975D01*
X0479965Y0490840D01*
X0480062Y0490735D01*
X0480175Y0490660D01*
X0480302Y0490615D01*
X0480445Y0490600D01*
X0477445D01*
X0477588Y0490615D01*
X0477715Y0490660D01*
X0477828Y0490735D01*
X0477925Y0490840D01*
X0478008Y0490975D01*
X0478075Y0491140D01*
X0478127Y0491335D01*
X0478165Y0491560D01*
X0478188Y0491815D01*
X0478195Y0492100D01*
X0479695D01*
X0479703Y0491815D01*
D02*
G37*
G36*
X0318500Y0492223D02*
X0319322Y0491494D01*
X0319423Y0491428D01*
X0319502Y0491388D01*
X0319560Y0491374D01*
X0319598Y0491388D01*
X0318272Y0490062D01*
X0318285Y0490099D01*
X0318272Y0490158D01*
X0318232Y0490237D01*
X0318166Y0490338D01*
X0318073Y0490460D01*
X0317808Y0490767D01*
X0317211Y0491388D01*
X0318272Y0492448D01*
X0318500Y0492223D01*
D02*
G37*
G36*
X0469235Y0489686D02*
X0469358Y0489630D01*
X0469497Y0489580D01*
X0469653Y0489538D01*
X0469825Y0489501D01*
X0470219Y0489449D01*
X0470440Y0489432D01*
X0470932Y0489419D01*
Y0487919D01*
X0470678Y0487916D01*
X0470014Y0487867D01*
X0469825Y0487837D01*
X0469497Y0487758D01*
X0469358Y0487709D01*
X0469235Y0487653D01*
X0469129Y0487590D01*
Y0489748D01*
X0469235Y0489686D01*
D02*
G37*
G36*
X0477001Y0487169D02*
X0476985Y0487312D01*
X0476940Y0487439D01*
X0476864Y0487552D01*
X0476759Y0487649D01*
X0476622Y0487732D01*
X0476456Y0487799D01*
X0476260Y0487852D01*
X0476033Y0487889D01*
X0475776Y0487912D01*
X0475489Y0487919D01*
Y0489419D01*
X0475776Y0489427D01*
X0476033Y0489449D01*
X0476260Y0489487D01*
X0476456Y0489539D01*
X0476622Y0489607D01*
X0476759Y0489689D01*
X0476864Y0489787D01*
X0476940Y0489899D01*
X0476985Y0490027D01*
X0477001Y0490169D01*
Y0487169D01*
D02*
G37*
G36*
X0320762Y0485924D02*
X0320624Y0485986D01*
X0320459Y0485998D01*
X0320264Y0485961D01*
X0320042Y0485875D01*
X0319791Y0485739D01*
X0319512Y0485554D01*
X0319204Y0485320D01*
X0318503Y0484703D01*
X0318110Y0484321D01*
X0317211Y0485543D01*
X0317526Y0485868D01*
X0318017Y0486443D01*
X0318194Y0486693D01*
X0318324Y0486918D01*
X0318408Y0487117D01*
X0318446Y0487292D01*
X0318438Y0487441D01*
X0318384Y0487565D01*
X0318284Y0487665D01*
X0320762Y0485924D01*
D02*
G37*
G36*
X0313089Y0487917D02*
X0313048Y0487780D01*
X0313049Y0487622D01*
X0313093Y0487442D01*
X0313179Y0487240D01*
X0313307Y0487018D01*
X0313478Y0486773D01*
X0313692Y0486508D01*
X0314246Y0485912D01*
X0313185Y0484851D01*
X0312876Y0485149D01*
X0312323Y0485618D01*
X0312079Y0485789D01*
X0311856Y0485918D01*
X0311655Y0486004D01*
X0311475Y0486047D01*
X0311316Y0486049D01*
X0311179Y0486007D01*
X0311064Y0485924D01*
X0313173Y0488033D01*
X0313089Y0487917D01*
D02*
G37*
G36*
X0433322Y0485909D02*
X0433152Y0485841D01*
X0433002Y0485728D01*
X0432872Y0485569D01*
X0432762Y0485366D01*
X0432672Y0485117D01*
X0432602Y0484823D01*
X0432552Y0484483D01*
X0432522Y0484099D01*
X0432512Y0483669D01*
X0430012D01*
X0430002Y0484099D01*
X0429972Y0484483D01*
X0429922Y0484823D01*
X0429852Y0485117D01*
X0429762Y0485366D01*
X0429652Y0485569D01*
X0429522Y0485728D01*
X0429372Y0485841D01*
X0429202Y0485909D01*
X0429012Y0485931D01*
X0433512D01*
X0433322Y0485909D01*
D02*
G37*
G36*
X0489767Y0485099D02*
X0489647Y0485024D01*
X0489541Y0484899D01*
X0489449Y0484724D01*
X0489372Y0484499D01*
X0489308Y0484224D01*
X0489259Y0483899D01*
X0489223Y0483524D01*
X0489195Y0482624D01*
X0486695D01*
X0486688Y0483099D01*
X0486631Y0483899D01*
X0486582Y0484224D01*
X0486518Y0484499D01*
X0486441Y0484724D01*
X0486349Y0484899D01*
X0486243Y0485024D01*
X0486123Y0485099D01*
X0485989Y0485124D01*
X0489901D01*
X0489767Y0485099D01*
D02*
G37*
G36*
X0469393Y0484519D02*
X0469497Y0484420D01*
X0469619Y0484332D01*
X0469759Y0484257D01*
X0469916Y0484193D01*
X0470091Y0484140D01*
X0470284Y0484100D01*
X0470494Y0484070D01*
X0470722Y0484053D01*
X0470967Y0484047D01*
Y0482547D01*
X0469129Y0482590D01*
X0469307Y0484629D01*
X0469393Y0484519D01*
D02*
G37*
G36*
X0426763Y0479183D02*
X0426267Y0478669D01*
X0425487Y0477748D01*
X0425203Y0477342D01*
X0424990Y0476970D01*
X0424847Y0476634D01*
X0424775Y0476334D01*
X0424774Y0476070D01*
X0424844Y0475841D01*
X0424984Y0475647D01*
X0421460Y0479171D01*
X0421654Y0479031D01*
X0421882Y0478961D01*
X0422147Y0478962D01*
X0422447Y0479034D01*
X0422783Y0479177D01*
X0423154Y0479390D01*
X0423561Y0479674D01*
X0424004Y0480029D01*
X0424996Y0480951D01*
X0426763Y0479183D01*
D02*
G37*
G36*
X0462092Y0479748D02*
X0461914Y0477709D01*
X0461827Y0477820D01*
X0461723Y0477919D01*
X0461601Y0478006D01*
X0461462Y0478082D01*
X0461304Y0478146D01*
X0461130Y0478198D01*
X0460937Y0478239D01*
X0460727Y0478268D01*
X0460499Y0478286D01*
X0460253Y0478291D01*
Y0479791D01*
X0462092Y0479748D01*
D02*
G37*
G36*
X0449786Y0479686D02*
X0449909Y0479630D01*
X0450049Y0479580D01*
X0450205Y0479538D01*
X0450377Y0479501D01*
X0450770Y0479449D01*
X0450991Y0479432D01*
X0451483Y0479419D01*
Y0477919D01*
X0451229Y0477916D01*
X0450565Y0477867D01*
X0450377Y0477837D01*
X0450049Y0477758D01*
X0449909Y0477709D01*
X0449786Y0477653D01*
X0449680Y0477590D01*
Y0479748D01*
X0449786Y0479686D01*
D02*
G37*
G36*
X0442643Y0477590D02*
X0442536Y0477653D01*
X0442414Y0477709D01*
X0442274Y0477758D01*
X0442118Y0477801D01*
X0441946Y0477837D01*
X0441553Y0477890D01*
X0441332Y0477906D01*
X0440840Y0477919D01*
Y0479419D01*
X0441094Y0479423D01*
X0441758Y0479472D01*
X0441946Y0479501D01*
X0442274Y0479580D01*
X0442414Y0479630D01*
X0442536Y0479686D01*
X0442643Y0479748D01*
Y0477590D01*
D02*
G37*
G36*
X0489202Y0479239D02*
X0489259Y0478439D01*
X0489308Y0478114D01*
X0489372Y0477839D01*
X0489449Y0477614D01*
X0489541Y0477439D01*
X0489647Y0477314D01*
X0489767Y0477239D01*
X0489901Y0477214D01*
X0485989D01*
X0486123Y0477239D01*
X0486243Y0477314D01*
X0486349Y0477439D01*
X0486441Y0477614D01*
X0486518Y0477839D01*
X0486582Y0478114D01*
X0486631Y0478439D01*
X0486667Y0478814D01*
X0486695Y0479714D01*
X0489195D01*
X0489202Y0479239D01*
D02*
G37*
G36*
X0435496Y0477919D02*
X0435209Y0477912D01*
X0434953Y0477889D01*
X0434726Y0477852D01*
X0434530Y0477799D01*
X0434364Y0477732D01*
X0434228Y0477649D01*
X0434122Y0477552D01*
X0434046Y0477439D01*
X0434000Y0477312D01*
X0433984Y0477169D01*
X0433996Y0479183D01*
X0434011Y0479228D01*
X0434056Y0479268D01*
X0434131Y0479303D01*
X0434236Y0479334D01*
X0434371Y0479360D01*
X0434536Y0479382D01*
X0434956Y0479410D01*
X0435496Y0479419D01*
Y0477919D01*
D02*
G37*
G36*
X0477672Y0477996D02*
X0478200Y0477553D01*
X0478438Y0477389D01*
X0478659Y0477264D01*
X0478862Y0477177D01*
X0479049Y0477128D01*
X0479217Y0477119D01*
X0479369Y0477147D01*
X0479503Y0477214D01*
X0476989Y0475487D01*
X0477091Y0475586D01*
X0477147Y0475710D01*
X0477157Y0475859D01*
X0477121Y0476033D01*
X0477038Y0476233D01*
X0476908Y0476458D01*
X0476733Y0476708D01*
X0476511Y0476983D01*
X0475928Y0477608D01*
X0477382Y0478275D01*
X0477672Y0477996D01*
D02*
G37*
G36*
X0340137Y0476931D02*
X0340212Y0476863D01*
X0340337Y0476804D01*
X0340512Y0476752D01*
X0340737Y0476709D01*
X0341012Y0476673D01*
X0341712Y0476625D01*
X0342612Y0476609D01*
Y0474109D01*
X0342136Y0474097D01*
X0341709Y0474059D01*
X0341333Y0473997D01*
X0341006Y0473909D01*
X0340730Y0473797D01*
X0340504Y0473659D01*
X0340328Y0473497D01*
X0340202Y0473309D01*
X0340126Y0473097D01*
X0340100Y0472859D01*
X0340112Y0477006D01*
X0340137Y0476931D01*
D02*
G37*
G36*
X0334625Y0472715D02*
X0334600Y0472952D01*
X0334525Y0473165D01*
X0334400Y0473352D01*
X0334225Y0473515D01*
X0334000Y0473652D01*
X0333725Y0473765D01*
X0333400Y0473852D01*
X0333025Y0473915D01*
X0332600Y0473952D01*
X0332125Y0473965D01*
Y0476465D01*
X0332600Y0476470D01*
X0333725Y0476551D01*
X0334000Y0476600D01*
X0334225Y0476659D01*
X0334400Y0476730D01*
X0334525Y0476811D01*
X0334600Y0476903D01*
X0334625Y0477006D01*
Y0472715D01*
D02*
G37*
G36*
X0469236Y0474685D02*
X0469359Y0474629D01*
X0469498Y0474580D01*
X0469654Y0474537D01*
X0469827Y0474501D01*
X0470220Y0474448D01*
X0470441Y0474431D01*
X0470932Y0474418D01*
X0470931Y0472918D01*
X0470677Y0472915D01*
X0470013Y0472865D01*
X0469824Y0472836D01*
X0469497Y0472757D01*
X0469357Y0472708D01*
X0469235Y0472653D01*
X0469129Y0472590D01*
Y0474748D01*
X0469236Y0474685D01*
D02*
G37*
G36*
X0449788Y0474684D02*
X0449913Y0474627D01*
X0450053Y0474577D01*
X0450210Y0474533D01*
X0450382Y0474496D01*
X0450775Y0474442D01*
X0450996Y0474426D01*
X0451484Y0474412D01*
X0451481Y0472912D01*
X0451226Y0472909D01*
X0450559Y0472861D01*
X0450371Y0472832D01*
X0450044Y0472754D01*
X0449906Y0472706D01*
X0449784Y0472652D01*
X0449680Y0472590D01*
Y0474748D01*
X0449788Y0474684D01*
D02*
G37*
G36*
X0421083Y0473707D02*
X0424996D01*
X0424814Y0473687D01*
X0424651Y0473627D01*
X0424508Y0473527D01*
X0424384Y0473387D01*
X0424278Y0473207D01*
X0424192Y0472987D01*
X0424125Y0472727D01*
X0424078Y0472427D01*
X0424049Y0472087D01*
X0424039Y0471707D01*
X0422039D01*
X0422030Y0472087D01*
X0422001Y0472427D01*
X0421953Y0472727D01*
X0421886Y0472987D01*
X0421800Y0473207D01*
X0421695Y0473387D01*
X0421570Y0473527D01*
X0421427Y0473627D01*
X0421264Y0473687D01*
X0421083Y0473707D01*
X0421058Y0473783D01*
X0420983Y0473852D01*
X0420858Y0473912D01*
X0420683Y0473964D01*
X0420458Y0474009D01*
X0420183Y0474045D01*
X0419483Y0474093D01*
X0418583Y0474109D01*
Y0476609D01*
X0419059Y0476622D01*
X0419486Y0476659D01*
X0419862Y0476722D01*
X0420189Y0476809D01*
X0420465Y0476922D01*
X0420691Y0477059D01*
X0420867Y0477222D01*
X0420993Y0477409D01*
X0421069Y0477622D01*
X0421095Y0477859D01*
X0421083Y0473707D01*
D02*
G37*
G36*
X0369856Y0474109D02*
X0369381Y0474084D01*
X0368956Y0474009D01*
X0368581Y0473884D01*
X0368256Y0473709D01*
X0367981Y0473484D01*
X0367756Y0473209D01*
X0367581Y0472884D01*
X0367456Y0472509D01*
X0367381Y0472084D01*
X0367356Y0471609D01*
X0364856D01*
X0364831Y0472084D01*
X0364756Y0472509D01*
X0364631Y0472884D01*
X0364456Y0473209D01*
X0364231Y0473484D01*
X0363956Y0473709D01*
X0363631Y0473884D01*
X0363256Y0474009D01*
X0362831Y0474084D01*
X0362356Y0474109D01*
X0366106Y0476609D01*
X0369856Y0474109D01*
D02*
G37*
G36*
X0480824Y0474120D02*
X0480796Y0473969D01*
X0480807Y0473801D01*
X0480857Y0473615D01*
X0480944Y0473412D01*
X0481071Y0473191D01*
X0481236Y0472953D01*
X0481440Y0472697D01*
X0481682Y0472423D01*
X0481962Y0472132D01*
X0481295Y0470678D01*
X0480969Y0470994D01*
X0480393Y0471486D01*
X0480142Y0471663D01*
X0479917Y0471793D01*
X0479718Y0471877D01*
X0479544Y0471915D01*
X0479395Y0471907D01*
X0479272Y0471852D01*
X0479174Y0471750D01*
X0480890Y0474253D01*
X0480824Y0474120D01*
D02*
G37*
G36*
X0324992Y0469116D02*
X0324977Y0469113D01*
X0324946Y0469091D01*
X0324898Y0469052D01*
X0324656Y0468829D01*
X0324102Y0468285D01*
X0323042Y0469346D01*
X0323739Y0470103D01*
X0324992Y0469116D01*
D02*
G37*
G36*
X0306358Y0469101D02*
X0306230Y0469056D01*
X0306118Y0468980D01*
X0306020Y0468874D01*
X0305938Y0468738D01*
X0305870Y0468572D01*
X0305818Y0468375D01*
X0305780Y0468149D01*
X0305757Y0467892D01*
X0305755Y0467783D01*
X0305757Y0467675D01*
X0305780Y0467418D01*
X0305818Y0467192D01*
X0305870Y0466995D01*
X0305938Y0466829D01*
X0306020Y0466693D01*
X0306118Y0466587D01*
X0306230Y0466511D01*
X0306358Y0466466D01*
X0306500Y0466451D01*
X0303500D01*
X0303643Y0466466D01*
X0303770Y0466511D01*
X0303883Y0466587D01*
X0303980Y0466693D01*
X0304063Y0466829D01*
X0304130Y0466995D01*
X0304183Y0467192D01*
X0304220Y0467418D01*
X0304242Y0467675D01*
X0304245Y0467783D01*
X0304242Y0467892D01*
X0304220Y0468149D01*
X0304183Y0468375D01*
X0304130Y0468572D01*
X0304063Y0468738D01*
X0303980Y0468874D01*
X0303883Y0468980D01*
X0303770Y0469056D01*
X0303643Y0469101D01*
X0303500Y0469116D01*
X0306500D01*
X0306358Y0469101D01*
D02*
G37*
G36*
X0340115Y0468258D02*
X0340161Y0468130D01*
X0340236Y0468017D01*
X0340342Y0467920D01*
X0340478Y0467837D01*
X0340645Y0467770D01*
X0340841Y0467718D01*
X0341068Y0467680D01*
X0341325Y0467658D01*
X0341612Y0467650D01*
Y0466150D01*
X0341325Y0466143D01*
X0341068Y0466120D01*
X0340841Y0466082D01*
X0340645Y0466030D01*
X0340478Y0465963D01*
X0340342Y0465880D01*
X0340236Y0465782D01*
X0340161Y0465670D01*
X0340115Y0465543D01*
X0340100Y0465400D01*
Y0468400D01*
X0340115Y0468258D01*
D02*
G37*
G36*
X0308060Y0466232D02*
X0308186Y0466167D01*
X0308331Y0466110D01*
X0308493Y0466061D01*
X0308673Y0466019D01*
X0308872Y0465985D01*
X0309322Y0465939D01*
X0309574Y0465927D01*
X0309845Y0465924D01*
X0309662Y0464424D01*
X0309375Y0464422D01*
X0308194Y0464345D01*
X0308087Y0464320D01*
X0308007Y0464293D01*
X0307952Y0464262D01*
Y0466305D01*
X0308060Y0466232D01*
D02*
G37*
G36*
X0330278Y0461253D02*
X0330381Y0461207D01*
X0330507Y0461166D01*
X0330655Y0461131D01*
X0330825Y0461101D01*
X0331230Y0461058D01*
X0331724Y0461036D01*
X0332004Y0461033D01*
Y0459534D01*
X0331724Y0459531D01*
X0330825Y0459466D01*
X0330655Y0459436D01*
X0330507Y0459401D01*
X0330381Y0459360D01*
X0330278Y0459314D01*
X0330196Y0459262D01*
Y0461305D01*
X0330278Y0461253D01*
D02*
G37*
G36*
X0308039Y0461249D02*
X0308148Y0461199D01*
X0308278Y0461154D01*
X0308429Y0461116D01*
X0308601Y0461084D01*
X0309008Y0461036D01*
X0309244Y0461022D01*
X0309778Y0461010D01*
X0309742Y0459510D01*
X0309460Y0459507D01*
X0308561Y0459448D01*
X0308393Y0459421D01*
X0308248Y0459388D01*
X0308127Y0459351D01*
X0308028Y0459309D01*
X0307952Y0459262D01*
Y0461305D01*
X0308039Y0461249D01*
D02*
G37*
G36*
X0472053Y0453836D02*
X0472038Y0453952D01*
X0471993Y0454055D01*
X0471918Y0454146D01*
X0471813Y0454226D01*
X0471678Y0454292D01*
X0471513Y0454347D01*
X0471318Y0454390D01*
X0471093Y0454420D01*
X0470838Y0454438D01*
X0470553Y0454445D01*
Y0455944D01*
X0470840Y0455952D01*
X0471096Y0455974D01*
X0471323Y0456012D01*
X0471519Y0456065D01*
X0471685Y0456132D01*
X0471821Y0456215D01*
X0471927Y0456312D01*
X0472004Y0456425D01*
X0472049Y0456552D01*
X0472065Y0456695D01*
X0472053Y0453836D01*
D02*
G37*
G36*
X0476198Y0446353D02*
X0476070Y0446308D01*
X0475958Y0446232D01*
X0475860Y0446126D01*
X0475778Y0445990D01*
X0475710Y0445824D01*
X0475658Y0445627D01*
X0475620Y0445400D01*
X0475598Y0445143D01*
X0475590Y0444856D01*
X0474090D01*
X0474083Y0445143D01*
X0474060Y0445400D01*
X0474023Y0445627D01*
X0473970Y0445824D01*
X0473903Y0445990D01*
X0473820Y0446126D01*
X0473723Y0446232D01*
X0473610Y0446308D01*
X0473483Y0446353D01*
X0473340Y0446368D01*
X0476340D01*
X0476198Y0446353D01*
D02*
G37*
G36*
X0554424Y0445537D02*
X0554469Y0445435D01*
X0554544Y0445344D01*
X0554649Y0445266D01*
X0554784Y0445200D01*
X0554949Y0445146D01*
X0555144Y0445104D01*
X0555369Y0445074D01*
X0555624Y0445056D01*
X0555909Y0445050D01*
Y0443550D01*
X0555622Y0443542D01*
X0555366Y0443520D01*
X0555139Y0443482D01*
X0554943Y0443430D01*
X0554777Y0443363D01*
X0554641Y0443280D01*
X0554535Y0443183D01*
X0554459Y0443070D01*
X0554413Y0442942D01*
X0554397Y0442800D01*
X0554409Y0445651D01*
X0554424Y0445537D01*
D02*
G37*
G36*
X0554412Y0442099D02*
X0554458Y0441972D01*
X0554533Y0441859D01*
X0554639Y0441762D01*
X0554775Y0441679D01*
X0554942Y0441612D01*
X0555138Y0441559D01*
X0555365Y0441522D01*
X0555622Y0441499D01*
X0555909Y0441492D01*
Y0439992D01*
X0555622Y0439984D01*
X0555365Y0439962D01*
X0555138Y0439924D01*
X0554942Y0439872D01*
X0554775Y0439804D01*
X0554639Y0439722D01*
X0554533Y0439624D01*
X0554458Y0439512D01*
X0554412Y0439384D01*
X0554397Y0439242D01*
Y0442242D01*
X0554412Y0442099D01*
D02*
G37*
G36*
X0488133Y0439183D02*
X0488217Y0437902D01*
X0488240Y0437823D01*
X0488266Y0437770D01*
X0486498D01*
X0486524Y0437823D01*
X0486546Y0437902D01*
X0486566Y0438007D01*
X0486584Y0438138D01*
X0486611Y0438478D01*
X0486632Y0439470D01*
X0488132D01*
X0488133Y0439183D01*
D02*
G37*
G36*
X0484984D02*
X0485068Y0437902D01*
X0485090Y0437823D01*
X0485116Y0437770D01*
X0483349D01*
X0483374Y0437823D01*
X0483397Y0437902D01*
X0483417Y0438007D01*
X0483434Y0438138D01*
X0483461Y0438478D01*
X0483482Y0439470D01*
X0484982D01*
X0484984Y0439183D01*
D02*
G37*
G36*
X0481834D02*
X0481918Y0437902D01*
X0481941Y0437823D01*
X0481966Y0437770D01*
X0480199D01*
X0480225Y0437823D01*
X0480247Y0437902D01*
X0480267Y0438007D01*
X0480285Y0438138D01*
X0480311Y0438478D01*
X0480333Y0439470D01*
X0481833D01*
X0481834Y0439183D01*
D02*
G37*
G36*
X0478684D02*
X0478769Y0437902D01*
X0478791Y0437823D01*
X0478817Y0437770D01*
X0477049D01*
X0477075Y0437823D01*
X0477098Y0437902D01*
X0477118Y0438007D01*
X0477135Y0438138D01*
X0477162Y0438478D01*
X0477183Y0439470D01*
X0478683D01*
X0478684Y0439183D01*
D02*
G37*
G36*
X0475535D02*
X0475619Y0437902D01*
X0475642Y0437823D01*
X0475667Y0437770D01*
X0473900D01*
X0473925Y0437823D01*
X0473948Y0437902D01*
X0473968Y0438007D01*
X0473985Y0438138D01*
X0474012Y0438478D01*
X0474033Y0439470D01*
X0475533D01*
X0475535Y0439183D01*
D02*
G37*
G36*
X0472385D02*
X0472469Y0437902D01*
X0472492Y0437823D01*
X0472517Y0437770D01*
X0470750D01*
X0470776Y0437823D01*
X0470798Y0437902D01*
X0470818Y0438007D01*
X0470836Y0438138D01*
X0470862Y0438478D01*
X0470884Y0439470D01*
X0472384D01*
X0472385Y0439183D01*
D02*
G37*
G36*
X0469236D02*
X0469320Y0437902D01*
X0469343Y0437823D01*
X0469368Y0437770D01*
X0467601D01*
X0467626Y0437823D01*
X0467649Y0437902D01*
X0467669Y0438007D01*
X0467686Y0438138D01*
X0467713Y0438478D01*
X0467734Y0439470D01*
X0469234D01*
X0469236Y0439183D01*
D02*
G37*
G36*
X0466086D02*
X0466170Y0437902D01*
X0466193Y0437823D01*
X0466218Y0437770D01*
X0464451D01*
X0464476Y0437823D01*
X0464499Y0437902D01*
X0464519Y0438007D01*
X0464537Y0438138D01*
X0464563Y0438478D01*
X0464585Y0439470D01*
X0466085D01*
X0466086Y0439183D01*
D02*
G37*
G36*
X0434830Y0436100D02*
X0434814Y0436242D01*
X0434769Y0436370D01*
X0434693Y0436482D01*
X0434588Y0436580D01*
X0434451Y0436662D01*
X0434285Y0436730D01*
X0434089Y0436783D01*
X0433862Y0436820D01*
X0433605Y0436842D01*
X0433318Y0436850D01*
Y0438350D01*
X0433605Y0438357D01*
X0433862Y0438380D01*
X0434089Y0438417D01*
X0434285Y0438470D01*
X0434451Y0438538D01*
X0434588Y0438620D01*
X0434693Y0438718D01*
X0434769Y0438830D01*
X0434814Y0438958D01*
X0434830Y0439100D01*
Y0436100D01*
D02*
G37*
G36*
X0554413Y0438457D02*
X0554459Y0438330D01*
X0554535Y0438217D01*
X0554641Y0438120D01*
X0554777Y0438037D01*
X0554943Y0437970D01*
X0555139Y0437918D01*
X0555366Y0437880D01*
X0555623Y0437857D01*
X0555909Y0437850D01*
Y0436350D01*
X0555624Y0436345D01*
X0555144Y0436303D01*
X0554949Y0436267D01*
X0554784Y0436221D01*
X0554649Y0436164D01*
X0554544Y0436096D01*
X0554469Y0436019D01*
X0554424Y0435931D01*
X0554409Y0435833D01*
X0554397Y0438600D01*
X0554413Y0438457D01*
D02*
G37*
G36*
X0445717Y0434738D02*
X0445616Y0434702D01*
X0445528Y0434643D01*
X0445451Y0434559D01*
X0445386Y0434452D01*
X0445333Y0434320D01*
X0445292Y0434165D01*
X0445262Y0433986D01*
X0445245Y0433784D01*
X0445239Y0433557D01*
X0444058D01*
X0444052Y0433784D01*
X0444034Y0433986D01*
X0444004Y0434165D01*
X0443963Y0434320D01*
X0443910Y0434452D01*
X0443845Y0434559D01*
X0443768Y0434643D01*
X0443680Y0434702D01*
X0443579Y0434738D01*
X0443467Y0434750D01*
X0445829D01*
X0445717Y0434738D01*
D02*
G37*
G36*
X0445245Y0431513D02*
X0445262Y0431310D01*
X0445292Y0431132D01*
X0445333Y0430976D01*
X0445386Y0430845D01*
X0445451Y0430738D01*
X0445528Y0430654D01*
X0445616Y0430595D01*
X0445717Y0430559D01*
X0445829Y0430547D01*
X0443467D01*
X0443579Y0430559D01*
X0443680Y0430595D01*
X0443768Y0430654D01*
X0443845Y0430738D01*
X0443910Y0430845D01*
X0443963Y0430976D01*
X0444004Y0431132D01*
X0444034Y0431310D01*
X0444052Y0431513D01*
X0444058Y0431740D01*
X0445239D01*
X0445245Y0431513D01*
D02*
G37*
G36*
X0462540Y0430453D02*
X0462619Y0430430D01*
X0462724Y0430410D01*
X0462855Y0430393D01*
X0463195Y0430366D01*
X0464187Y0430344D01*
Y0428844D01*
X0463900Y0428843D01*
X0462619Y0428759D01*
X0462540Y0428736D01*
X0462487Y0428711D01*
Y0430478D01*
X0462540Y0430453D01*
D02*
G37*
G36*
Y0427303D02*
X0462619Y0427280D01*
X0462724Y0427260D01*
X0462855Y0427243D01*
X0463195Y0427216D01*
X0464187Y0427195D01*
Y0425695D01*
X0463900Y0425694D01*
X0462619Y0425609D01*
X0462540Y0425587D01*
X0462487Y0425561D01*
Y0427328D01*
X0462540Y0427303D01*
D02*
G37*
G36*
X0454150Y0422766D02*
X0454210Y0422426D01*
X0454310Y0422126D01*
X0454450Y0421866D01*
X0454630Y0421646D01*
X0454850Y0421466D01*
X0455110Y0421326D01*
X0455410Y0421226D01*
X0455750Y0421166D01*
X0456130Y0421146D01*
Y0419146D01*
X0456130D01*
Y0419146D01*
X0455750Y0419126D01*
X0455410Y0419066D01*
X0455110Y0418966D01*
X0454850Y0418826D01*
X0454630Y0418646D01*
X0454450Y0418426D01*
X0454385Y0418306D01*
X0454310Y0418166D01*
X0454210Y0417866D01*
X0454150Y0417526D01*
X0454130Y0417146D01*
X0452130Y0420146D01*
X0454130Y0423146D01*
Y0423146D01*
X0454130Y0423146D01*
X0454150Y0422766D01*
D02*
G37*
G36*
X0443513Y0423584D02*
X0443428Y0423551D01*
X0443353Y0423495D01*
X0443288Y0423418D01*
X0443233Y0423319D01*
X0443188Y0423198D01*
X0443152Y0423054D01*
X0443127Y0422889D01*
X0443112Y0422701D01*
X0443107Y0422491D01*
X0441926D01*
X0441921Y0422701D01*
X0441906Y0422889D01*
X0441881Y0423054D01*
X0441846Y0423198D01*
X0441801Y0423319D01*
X0441746Y0423418D01*
X0441681Y0423495D01*
X0441606Y0423551D01*
X0441520Y0423584D01*
X0441425Y0423595D01*
X0443609D01*
X0443513Y0423584D01*
D02*
G37*
G36*
X0462540Y0424154D02*
X0462619Y0424131D01*
X0462724Y0424111D01*
X0462855Y0424093D01*
X0463195Y0424067D01*
X0464187Y0424045D01*
Y0422545D01*
X0463900Y0422544D01*
X0462619Y0422460D01*
X0462540Y0422437D01*
X0462487Y0422412D01*
Y0424179D01*
X0462540Y0424154D01*
D02*
G37*
G36*
X0490230Y0419262D02*
X0490177Y0419287D01*
X0490098Y0419310D01*
X0489993Y0419330D01*
X0489862Y0419348D01*
X0489522Y0419374D01*
X0488530Y0419396D01*
Y0420896D01*
X0488817Y0420897D01*
X0490098Y0420981D01*
X0490177Y0421004D01*
X0490230Y0421029D01*
Y0419262D01*
D02*
G37*
G36*
X0467301Y0419719D02*
X0467266Y0418184D01*
X0465766Y0419994D01*
X0466516D01*
X0467301Y0419719D01*
D02*
G37*
G36*
X0462540Y0417854D02*
X0462619Y0417832D01*
X0462724Y0417811D01*
X0462855Y0417794D01*
X0463195Y0417767D01*
X0464187Y0417746D01*
Y0416246D01*
X0463900Y0416245D01*
X0462619Y0416161D01*
X0462540Y0416138D01*
X0462487Y0416113D01*
Y0417880D01*
X0462540Y0417854D01*
D02*
G37*
G36*
X0447488Y0412384D02*
X0447264Y0412378D01*
X0447063Y0412360D01*
X0446886Y0412331D01*
X0446732Y0412290D01*
X0446602Y0412236D01*
X0446496Y0412172D01*
X0446413Y0412095D01*
X0446354Y0412006D01*
X0446319Y0411906D01*
X0446307Y0411794D01*
Y0413559D01*
X0446319Y0413560D01*
X0446354Y0413561D01*
X0447488Y0413565D01*
Y0412384D01*
D02*
G37*
G36*
X0457159Y0409813D02*
X0457064Y0409869D01*
X0456956Y0409919D01*
X0456835Y0409963D01*
X0456701Y0410001D01*
X0456552Y0410033D01*
X0456391Y0410059D01*
X0456027Y0410095D01*
X0455826Y0410103D01*
X0455610Y0410106D01*
Y0411287D01*
X0455826Y0411290D01*
X0456391Y0411334D01*
X0456552Y0411361D01*
X0456701Y0411393D01*
X0456835Y0411431D01*
X0456956Y0411475D01*
X0457064Y0411525D01*
X0457159Y0411580D01*
Y0409813D01*
D02*
G37*
G36*
X0495652Y0408375D02*
X0495760Y0408325D01*
X0495881Y0408281D01*
X0496016Y0408243D01*
X0496164Y0408211D01*
X0496326Y0408185D01*
X0496689Y0408149D01*
X0496891Y0408141D01*
X0497078Y0408138D01*
X0497150Y0408139D01*
X0497504Y0408165D01*
X0497568Y0408177D01*
X0497623Y0408191D01*
X0497669Y0408208D01*
X0497704Y0408226D01*
X0497731Y0408247D01*
Y0406847D01*
X0497704Y0406868D01*
X0497669Y0406887D01*
X0497623Y0406903D01*
X0497568Y0406917D01*
X0497504Y0406929D01*
X0497346Y0406947D01*
X0497150Y0406956D01*
X0497078Y0406956D01*
X0496891Y0406954D01*
X0496326Y0406910D01*
X0496164Y0406883D01*
X0496016Y0406851D01*
X0495881Y0406813D01*
X0495760Y0406769D01*
X0495652Y0406719D01*
X0495558Y0406664D01*
Y0408431D01*
X0495652Y0408375D01*
D02*
G37*
G36*
X0457159Y0406664D02*
X0457064Y0406719D01*
X0456956Y0406769D01*
X0456835Y0406813D01*
X0456701Y0406851D01*
X0456552Y0406883D01*
X0456391Y0406910D01*
X0456027Y0406945D01*
X0455826Y0406954D01*
X0455610Y0406957D01*
Y0408138D01*
X0455826Y0408141D01*
X0456391Y0408185D01*
X0456552Y0408211D01*
X0456701Y0408243D01*
X0456835Y0408281D01*
X0456956Y0408325D01*
X0457064Y0408375D01*
X0457159Y0408431D01*
Y0406664D01*
D02*
G37*
G36*
X0446111Y0406583D02*
X0446010Y0406547D01*
X0445922Y0406488D01*
X0445845Y0406404D01*
X0445780Y0406297D01*
X0445727Y0406165D01*
X0445685Y0406010D01*
X0445656Y0405831D01*
X0445638Y0405628D01*
X0445632Y0405402D01*
X0444451D01*
X0444445Y0405628D01*
X0444428Y0405831D01*
X0444398Y0406010D01*
X0444357Y0406165D01*
X0444304Y0406297D01*
X0444239Y0406404D01*
X0444162Y0406488D01*
X0444073Y0406547D01*
X0443973Y0406583D01*
X0443861Y0406595D01*
X0446223D01*
X0446111Y0406583D01*
D02*
G37*
G36*
X0445638Y0403781D02*
X0445656Y0403580D01*
X0445685Y0403403D01*
X0445727Y0403249D01*
X0445780Y0403120D01*
X0445845Y0403013D01*
X0445922Y0402930D01*
X0446010Y0402872D01*
X0446111Y0402836D01*
X0446223Y0402824D01*
X0443861D01*
X0443973Y0402836D01*
X0444073Y0402872D01*
X0444162Y0402930D01*
X0444239Y0403013D01*
X0444304Y0403120D01*
X0444357Y0403249D01*
X0444398Y0403403D01*
X0444428Y0403580D01*
X0444445Y0403781D01*
X0444451Y0404005D01*
X0445632D01*
X0445638Y0403781D01*
D02*
G37*
G36*
X0435223Y0398655D02*
X0435208Y0398798D01*
X0435163Y0398925D01*
X0435087Y0399038D01*
X0434981Y0399135D01*
X0434845Y0399218D01*
X0434679Y0399285D01*
X0434482Y0399338D01*
X0434256Y0399375D01*
X0433998Y0399398D01*
X0433711Y0399405D01*
Y0400905D01*
X0433998Y0400913D01*
X0434256Y0400935D01*
X0434482Y0400973D01*
X0434679Y0401025D01*
X0434845Y0401093D01*
X0434981Y0401175D01*
X0435087Y0401273D01*
X0435163Y0401385D01*
X0435208Y0401513D01*
X0435223Y0401655D01*
Y0398655D01*
D02*
G37*
G36*
X0488288Y0400732D02*
X0488278Y0400603D01*
X0488294Y0400463D01*
X0488338Y0400312D01*
X0488409Y0400150D01*
X0488507Y0399978D01*
X0488633Y0399795D01*
X0488786Y0399601D01*
X0488966Y0399396D01*
X0489173Y0399180D01*
X0488632Y0398051D01*
X0488473Y0398205D01*
X0488177Y0398460D01*
X0488040Y0398560D01*
X0487911Y0398642D01*
X0487790Y0398706D01*
X0487677Y0398752D01*
X0487571Y0398780D01*
X0487472Y0398789D01*
X0487382Y0398781D01*
X0488326Y0400850D01*
X0488288Y0400732D01*
D02*
G37*
G36*
X0485060Y0399277D02*
X0485010Y0399169D01*
X0484966Y0399048D01*
X0484928Y0398913D01*
X0484896Y0398765D01*
X0484870Y0398603D01*
X0484835Y0398240D01*
X0484826Y0398038D01*
X0484823Y0397823D01*
X0483642D01*
X0483639Y0398038D01*
X0483595Y0398603D01*
X0483568Y0398765D01*
X0483536Y0398913D01*
X0483498Y0399048D01*
X0483454Y0399169D01*
X0483404Y0399277D01*
X0483349Y0399371D01*
X0485116D01*
X0485060Y0399277D01*
D02*
G37*
G36*
X0475642Y0399318D02*
X0475619Y0399239D01*
X0475599Y0399134D01*
X0475582Y0399004D01*
X0475555Y0398663D01*
X0475533Y0397672D01*
X0474033D01*
X0474032Y0397958D01*
X0473948Y0399239D01*
X0473925Y0399318D01*
X0473900Y0399371D01*
X0475667D01*
X0475642Y0399318D01*
D02*
G37*
G36*
X0502180Y0394642D02*
X0502153Y0394663D01*
X0502117Y0394682D01*
X0502072Y0394698D01*
X0502017Y0394713D01*
X0501953Y0394725D01*
X0501795Y0394742D01*
X0501599Y0394751D01*
X0501487Y0394752D01*
Y0395933D01*
X0501599Y0395934D01*
X0501953Y0395960D01*
X0502017Y0395972D01*
X0502072Y0395987D01*
X0502117Y0396003D01*
X0502153Y0396022D01*
X0502180Y0396042D01*
Y0394642D01*
D02*
G37*
G36*
X0345314Y0387534D02*
X0344659Y0386872D01*
X0342175Y0384035D01*
X0342070Y0383864D01*
X0342053Y0383834D01*
X0341912Y0383500D01*
X0341846Y0383206D01*
X0341855Y0382951D01*
X0341938Y0382736D01*
X0342096Y0382560D01*
X0338178Y0385690D01*
X0338389Y0385568D01*
X0338632Y0385512D01*
X0338907Y0385523D01*
X0339213Y0385601D01*
X0339493Y0385721D01*
X0339362Y0385852D01*
X0339536Y0385887D01*
X0339764Y0385990D01*
X0340047Y0386163D01*
X0340384Y0386404D01*
X0341221Y0387094D01*
X0342883Y0388647D01*
X0343546Y0389302D01*
X0345314Y0387534D01*
D02*
G37*
G36*
X0330677Y0375276D02*
X0330689Y0370276D01*
X0325689D01*
X0325664Y0371227D01*
X0325589Y0372079D01*
X0325464Y0372830D01*
X0325289Y0373481D01*
X0325064Y0374033D01*
X0324789Y0374484D01*
X0324464Y0374835D01*
X0324089Y0375086D01*
X0323664Y0375237D01*
X0323189Y0375288D01*
X0330677Y0375276D01*
D02*
G37*
G36*
X0533219Y0344257D02*
X0533252Y0343777D01*
X0533282Y0343582D01*
X0533319Y0343417D01*
X0533365Y0343282D01*
X0533420Y0343177D01*
X0533483Y0343102D01*
X0533554Y0343057D01*
X0533634Y0343042D01*
X0531296D01*
X0531375Y0343057D01*
X0531446Y0343102D01*
X0531509Y0343177D01*
X0531564Y0343282D01*
X0531610Y0343417D01*
X0531648Y0343582D01*
X0531677Y0343777D01*
X0531698Y0344002D01*
X0531715Y0344542D01*
X0533215D01*
X0533219Y0344257D01*
D02*
G37*
G36*
X0498703D02*
X0498737Y0343777D01*
X0498766Y0343582D01*
X0498804Y0343417D01*
X0498850Y0343282D01*
X0498904Y0343177D01*
X0498967Y0343102D01*
X0499038Y0343057D01*
X0499118Y0343042D01*
X0496780D01*
X0496859Y0343057D01*
X0496931Y0343102D01*
X0496993Y0343177D01*
X0497048Y0343282D01*
X0497094Y0343417D01*
X0497132Y0343582D01*
X0497161Y0343777D01*
X0497182Y0344002D01*
X0497199Y0344542D01*
X0498699D01*
X0498703Y0344257D01*
D02*
G37*
G36*
X0464187D02*
X0464221Y0343777D01*
X0464250Y0343582D01*
X0464288Y0343417D01*
X0464334Y0343282D01*
X0464389Y0343177D01*
X0464451Y0343102D01*
X0464523Y0343057D01*
X0464602Y0343042D01*
X0462264D01*
X0462344Y0343057D01*
X0462415Y0343102D01*
X0462478Y0343177D01*
X0462532Y0343282D01*
X0462578Y0343417D01*
X0462616Y0343582D01*
X0462645Y0343777D01*
X0462666Y0344002D01*
X0462683Y0344542D01*
X0464183D01*
X0464187Y0344257D01*
D02*
G37*
G36*
X0429672D02*
X0429705Y0343777D01*
X0429735Y0343582D01*
X0429772Y0343417D01*
X0429818Y0343282D01*
X0429873Y0343177D01*
X0429936Y0343102D01*
X0430007Y0343057D01*
X0430087Y0343042D01*
X0427748D01*
X0427828Y0343057D01*
X0427899Y0343102D01*
X0427962Y0343177D01*
X0428017Y0343282D01*
X0428063Y0343417D01*
X0428100Y0343582D01*
X0428130Y0343777D01*
X0428151Y0344002D01*
X0428167Y0344542D01*
X0429667D01*
X0429672Y0344257D01*
D02*
G37*
G36*
X0306071Y0350276D02*
X0306073Y0350236D01*
X0306082Y0347711D01*
X0306082Y0347279D01*
X0306095Y0347291D01*
X0306916Y0346484D01*
X0309494Y0344262D01*
X0309961Y0343957D01*
X0310356Y0343753D01*
X0310682Y0343649D01*
X0310936Y0343646D01*
X0311119Y0343744D01*
X0306107Y0338732D01*
X0306204Y0338915D01*
X0306201Y0339169D01*
X0306098Y0339494D01*
X0305893Y0339890D01*
X0305589Y0340357D01*
X0305184Y0340895D01*
X0304072Y0342183D01*
X0302559Y0343756D01*
X0305071Y0346268D01*
X0301083D01*
X0301068Y0347031D01*
X0300947Y0348317D01*
X0300841Y0348839D01*
X0300706Y0349281D01*
X0300540Y0349643D01*
X0300344Y0349925D01*
X0300117Y0350126D01*
X0299861Y0350247D01*
X0299575Y0350288D01*
X0306071Y0350276D01*
D02*
G37*
G36*
X0509048Y0337147D02*
X0508986Y0337106D01*
X0508930Y0337038D01*
X0508883Y0336943D01*
X0508842Y0336821D01*
X0508809Y0336672D01*
X0508783Y0336495D01*
X0508765Y0336292D01*
X0508750Y0335803D01*
X0507250D01*
X0507245Y0336061D01*
X0507208Y0336495D01*
X0507175Y0336672D01*
X0507132Y0336821D01*
X0507081Y0336943D01*
X0507020Y0337038D01*
X0506949Y0337106D01*
X0506869Y0337147D01*
X0506780Y0337160D01*
X0509118D01*
X0509048Y0337147D01*
D02*
G37*
G36*
X0543554Y0337145D02*
X0543483Y0337101D01*
X0543420Y0337025D01*
X0543365Y0336920D01*
X0543319Y0336786D01*
X0543282Y0336620D01*
X0543252Y0336425D01*
X0543231Y0336200D01*
X0543215Y0335661D01*
X0541715D01*
X0541711Y0335946D01*
X0541677Y0336425D01*
X0541648Y0336620D01*
X0541610Y0336786D01*
X0541564Y0336920D01*
X0541509Y0337025D01*
X0541446Y0337101D01*
X0541375Y0337145D01*
X0541296Y0337160D01*
X0543634D01*
X0543554Y0337145D01*
D02*
G37*
G36*
X0474523D02*
X0474451Y0337101D01*
X0474389Y0337025D01*
X0474334Y0336920D01*
X0474288Y0336786D01*
X0474250Y0336620D01*
X0474221Y0336425D01*
X0474200Y0336200D01*
X0474183Y0335661D01*
X0472683D01*
X0472679Y0335946D01*
X0472645Y0336425D01*
X0472616Y0336620D01*
X0472578Y0336786D01*
X0472532Y0336920D01*
X0472478Y0337025D01*
X0472415Y0337101D01*
X0472344Y0337145D01*
X0472264Y0337160D01*
X0474602D01*
X0474523Y0337145D01*
D02*
G37*
G36*
X0440007D02*
X0439936Y0337101D01*
X0439873Y0337025D01*
X0439818Y0336920D01*
X0439772Y0336786D01*
X0439735Y0336620D01*
X0439705Y0336425D01*
X0439684Y0336200D01*
X0439667Y0335661D01*
X0438167D01*
X0438163Y0335946D01*
X0438130Y0336425D01*
X0438100Y0336620D01*
X0438063Y0336786D01*
X0438017Y0336920D01*
X0437962Y0337025D01*
X0437899Y0337101D01*
X0437828Y0337145D01*
X0437748Y0337160D01*
X0440087D01*
X0440007Y0337145D01*
D02*
G37*
G36*
X0339073Y0325126D02*
X0339223Y0324276D01*
X0339473Y0323526D01*
X0339823Y0322876D01*
X0340273Y0322326D01*
X0340823Y0321876D01*
X0341473Y0321526D01*
X0342223Y0321276D01*
X0343073Y0321126D01*
X0344023Y0321076D01*
X0336523Y0316076D01*
X0329370Y0321076D01*
X0330254Y0321126D01*
X0331045Y0321276D01*
X0331743Y0321526D01*
X0332348Y0321876D01*
X0332860Y0322326D01*
X0333278Y0322876D01*
X0333604Y0323526D01*
X0333837Y0324276D01*
X0333976Y0325126D01*
X0334023Y0326076D01*
X0339023D01*
X0339073Y0325126D01*
D02*
G37*
G36*
X0509148Y0317768D02*
X0509238Y0317523D01*
X0509388Y0317307D01*
X0509598Y0317120D01*
X0509868Y0316962D01*
X0510198Y0316832D01*
X0510588Y0316731D01*
X0511038Y0316659D01*
X0511548Y0316616D01*
X0512118Y0316601D01*
Y0313601D01*
X0511548Y0313587D01*
X0511038Y0313544D01*
X0510588Y0313472D01*
X0510198Y0313371D01*
X0509868Y0313241D01*
X0509598Y0313083D01*
X0509388Y0312895D01*
X0509238Y0312679D01*
X0509148Y0312434D01*
X0509118Y0312160D01*
Y0318042D01*
X0509148Y0317768D01*
D02*
G37*
G36*
X0440117D02*
X0440206Y0317523D01*
X0440356Y0317307D01*
X0440566Y0317120D01*
X0440836Y0316962D01*
X0441166Y0316832D01*
X0441557Y0316731D01*
X0442006Y0316659D01*
X0442517Y0316616D01*
X0443086Y0316601D01*
Y0313601D01*
X0442517Y0313587D01*
X0442006Y0313544D01*
X0441557Y0313472D01*
X0441166Y0313371D01*
X0440836Y0313241D01*
X0440566Y0313083D01*
X0440356Y0312895D01*
X0440206Y0312679D01*
X0440117Y0312434D01*
X0440087Y0312160D01*
Y0318042D01*
X0440117Y0317768D01*
D02*
G37*
G36*
X0534221Y0308402D02*
X0534364Y0306442D01*
X0534429Y0306127D01*
X0534507Y0305882D01*
X0534596Y0305707D01*
X0534697Y0305602D01*
X0534811Y0305567D01*
X0528965Y0305555D01*
X0529297Y0305591D01*
X0529595Y0305696D01*
X0529857Y0305872D01*
X0530085Y0306118D01*
X0530277Y0306434D01*
X0530435Y0306821D01*
X0530557Y0307277D01*
X0530645Y0307804D01*
X0530697Y0308400D01*
X0530715Y0309067D01*
X0534215D01*
X0534221Y0308402D01*
D02*
G37*
G36*
X0499705D02*
X0499848Y0306442D01*
X0499914Y0306127D01*
X0499992Y0305882D01*
X0500081Y0305707D01*
X0500183Y0305602D01*
X0500296Y0305567D01*
X0494449Y0305555D01*
X0494781Y0305591D01*
X0495079Y0305696D01*
X0495341Y0305872D01*
X0495569Y0306118D01*
X0495761Y0306434D01*
X0495919Y0306821D01*
X0496041Y0307277D01*
X0496129Y0307804D01*
X0496181Y0308400D01*
X0496199Y0309067D01*
X0499699D01*
X0499705Y0308402D01*
D02*
G37*
G36*
X0465189D02*
X0465333Y0306442D01*
X0465399Y0306127D01*
X0465477Y0305882D01*
X0465566Y0305707D01*
X0465668Y0305602D01*
X0465782Y0305567D01*
X0459933Y0305555D01*
X0460266Y0305591D01*
X0460563Y0305696D01*
X0460826Y0305872D01*
X0461053Y0306118D01*
X0461246Y0306434D01*
X0461403Y0306821D01*
X0461526Y0307277D01*
X0461613Y0307804D01*
X0461666Y0308400D01*
X0461683Y0309067D01*
X0465183D01*
X0465189Y0308402D01*
D02*
G37*
G36*
X0430673D02*
X0430818Y0306442D01*
X0430884Y0306127D01*
X0430962Y0305882D01*
X0431051Y0305707D01*
X0431153Y0305602D01*
X0431267Y0305567D01*
X0425417Y0305555D01*
X0425750Y0305591D01*
X0426047Y0305696D01*
X0426310Y0305872D01*
X0426537Y0306118D01*
X0426730Y0306434D01*
X0426887Y0306821D01*
X0427010Y0307277D01*
X0427097Y0307804D01*
X0427150Y0308400D01*
X0427167Y0309067D01*
X0430667D01*
X0430673Y0308402D01*
D02*
G37*
G36*
X0369000Y0297300D02*
X0368669Y0295533D01*
X0370769D01*
X0370575Y0295293D01*
X0370402Y0294982D01*
X0370249Y0294599D01*
X0370117Y0294145D01*
X0370005Y0293619D01*
X0369913Y0293021D01*
X0369791Y0291611D01*
X0369750Y0289915D01*
X0368250D01*
X0368240Y0290799D01*
X0368087Y0293021D01*
X0367995Y0293619D01*
X0367924Y0293953D01*
X0367800Y0294065D01*
X0367450Y0294260D01*
X0367000Y0294425D01*
X0366450Y0294560D01*
X0365800Y0294665D01*
X0364200Y0294785D01*
X0364197Y0294785D01*
X0360787Y0294753D01*
Y0299847D01*
X0360837Y0299838D01*
X0360987Y0299830D01*
X0363385Y0299815D01*
X0363950Y0299835D01*
X0364906Y0299941D01*
X0365833Y0300118D01*
X0366730Y0300366D01*
X0367598Y0300684D01*
X0368437Y0301073D01*
X0369247Y0301532D01*
X0370027Y0302063D01*
X0370778Y0302664D01*
X0371500Y0303335D01*
X0369000Y0297300D01*
D02*
G37*
G36*
X0511176Y0299304D02*
X0510905Y0299500D01*
X0510584Y0299598D01*
X0510213Y0299597D01*
X0509793Y0299497D01*
X0509323Y0299297D01*
X0508803Y0298999D01*
X0508233Y0298602D01*
X0507614Y0298106D01*
X0506226Y0296817D01*
X0503751Y0299291D01*
X0504445Y0300010D01*
X0505537Y0301299D01*
X0505934Y0301868D01*
X0506232Y0302388D01*
X0506431Y0302858D01*
X0506531Y0303279D01*
X0506532Y0303649D01*
X0506435Y0303970D01*
X0506238Y0304241D01*
X0511176Y0299304D01*
D02*
G37*
G36*
X0477334Y0299256D02*
X0477103Y0299151D01*
X0476899Y0298976D01*
X0476722Y0298731D01*
X0476572Y0298416D01*
X0476449Y0298031D01*
X0476354Y0297576D01*
X0476286Y0297052D01*
X0476245Y0296457D01*
X0476232Y0295792D01*
X0472732D01*
X0472721Y0296457D01*
X0472640Y0297576D01*
X0472568Y0298031D01*
X0472477Y0298416D01*
X0472364Y0298731D01*
X0472232Y0298976D01*
X0472079Y0299151D01*
X0471905Y0299256D01*
X0471711Y0299291D01*
X0477593D01*
X0477334Y0299256D01*
D02*
G37*
G36*
X0442518Y0299268D02*
X0442220Y0299162D01*
X0441958Y0298986D01*
X0441730Y0298740D01*
X0441538Y0298424D01*
X0441380Y0298037D01*
X0441258Y0297581D01*
X0441170Y0297055D01*
X0441118Y0296458D01*
X0441100Y0295792D01*
X0437600D01*
X0437596Y0296457D01*
X0437455Y0298731D01*
X0437403Y0298976D01*
X0437342Y0299151D01*
X0437274Y0299256D01*
X0437197Y0299291D01*
X0442850Y0299304D01*
X0442518Y0299268D01*
D02*
G37*
G36*
X0320225Y0294391D02*
X0319432Y0293570D01*
X0318185Y0292098D01*
X0317731Y0291447D01*
X0317390Y0290853D01*
X0317163Y0290316D01*
X0317049Y0289835D01*
X0317047Y0289412D01*
X0317159Y0289045D01*
X0317384Y0288735D01*
X0311739Y0294379D01*
X0312050Y0294154D01*
X0312416Y0294042D01*
X0312840Y0294044D01*
X0313320Y0294158D01*
X0313858Y0294386D01*
X0314452Y0294726D01*
X0315103Y0295180D01*
X0315810Y0295747D01*
X0317396Y0297220D01*
X0320225Y0294391D01*
D02*
G37*
G36*
X0348213Y0294753D02*
X0353307D01*
X0353203Y0294713D01*
X0353110Y0294593D01*
X0353028Y0294393D01*
X0352957Y0294113D01*
X0352897Y0293753D01*
X0352847Y0293313D01*
X0352807Y0292622D01*
X0352957Y0290587D01*
X0353028Y0290307D01*
X0353110Y0290107D01*
X0353203Y0289987D01*
X0353307Y0289947D01*
X0348213D01*
X0348317Y0289987D01*
X0348410Y0290107D01*
X0348492Y0290307D01*
X0348563Y0290587D01*
X0348623Y0290947D01*
X0348672Y0291387D01*
X0348713Y0292078D01*
X0348563Y0294113D01*
X0348492Y0294393D01*
X0348410Y0294593D01*
X0348317Y0294713D01*
X0348213Y0294753D01*
X0348173Y0294857D01*
X0348053Y0294950D01*
X0347853Y0295032D01*
X0347573Y0295103D01*
X0347213Y0295163D01*
X0346773Y0295213D01*
X0345653Y0295278D01*
X0344213Y0295300D01*
Y0299300D01*
X0344973Y0299306D01*
X0347573Y0299497D01*
X0347853Y0299568D01*
X0348053Y0299650D01*
X0348173Y0299743D01*
X0348213Y0299847D01*
Y0294753D01*
D02*
G37*
G36*
X0542192Y0282806D02*
X0542244Y0282209D01*
X0542332Y0281682D01*
X0542454Y0281225D01*
X0542612Y0280839D01*
X0542804Y0280523D01*
X0543032Y0280277D01*
X0543294Y0280101D01*
X0543591Y0279996D01*
X0543924Y0279961D01*
X0536924D01*
X0537256Y0279996D01*
X0537554Y0280101D01*
X0537816Y0280277D01*
X0538044Y0280523D01*
X0538237Y0280839D01*
X0538394Y0281225D01*
X0538517Y0281682D01*
X0538604Y0282209D01*
X0538657Y0282806D01*
X0538674Y0283473D01*
X0542174D01*
X0542192Y0282806D01*
D02*
G37*
G36*
X0476249D02*
X0476302Y0282209D01*
X0476389Y0281682D01*
X0476512Y0281225D01*
X0476669Y0280839D01*
X0476862Y0280523D01*
X0477089Y0280277D01*
X0477352Y0280101D01*
X0477649Y0279996D01*
X0477982Y0279961D01*
X0470982D01*
X0471314Y0279996D01*
X0471612Y0280101D01*
X0471874Y0280277D01*
X0472102Y0280523D01*
X0472294Y0280839D01*
X0472452Y0281225D01*
X0472574Y0281682D01*
X0472662Y0282209D01*
X0472714Y0282806D01*
X0472732Y0283473D01*
X0476232D01*
X0476249Y0282806D01*
D02*
G37*
G36*
X0455826Y0282401D02*
X0455871Y0281889D01*
X0455946Y0281437D01*
X0456051Y0281045D01*
X0456186Y0280714D01*
X0456351Y0280443D01*
X0456546Y0280232D01*
X0456771Y0280082D01*
X0457026Y0279991D01*
X0457311Y0279961D01*
X0451311D01*
X0451596Y0279991D01*
X0451851Y0280082D01*
X0452076Y0280232D01*
X0452271Y0280443D01*
X0452436Y0280714D01*
X0452571Y0281045D01*
X0452676Y0281437D01*
X0452751Y0281889D01*
X0452796Y0282401D01*
X0452811Y0282973D01*
X0455811D01*
X0455826Y0282401D01*
D02*
G37*
G36*
X0360778Y0284803D02*
X0360770Y0284653D01*
X0360740Y0279853D01*
X0355740D01*
X0355693Y0284853D01*
X0360787D01*
X0360778Y0284803D01*
D02*
G37*
G36*
X0506420Y0279973D02*
X0505825Y0279357D01*
X0504889Y0278252D01*
X0504549Y0277764D01*
X0504293Y0277318D01*
X0504122Y0276916D01*
X0504036Y0276555D01*
X0504035Y0276238D01*
X0504118Y0275963D01*
X0504287Y0275730D01*
X0500056Y0279961D01*
X0500289Y0279792D01*
X0500564Y0279709D01*
X0500881Y0279710D01*
X0501241Y0279796D01*
X0501644Y0279967D01*
X0502090Y0280223D01*
X0502578Y0280563D01*
X0503109Y0280989D01*
X0504299Y0282094D01*
X0506420Y0279973D01*
D02*
G37*
G36*
X0440307D02*
X0439712Y0279357D01*
X0438776Y0278252D01*
X0438436Y0277764D01*
X0438180Y0277318D01*
X0438009Y0276916D01*
X0437923Y0276555D01*
X0437922Y0276238D01*
X0438005Y0275963D01*
X0438174Y0275730D01*
X0433943Y0279961D01*
X0434176Y0279792D01*
X0434451Y0279709D01*
X0434768Y0279710D01*
X0435128Y0279796D01*
X0435531Y0279967D01*
X0435977Y0280223D01*
X0436465Y0280563D01*
X0436996Y0280989D01*
X0438186Y0282094D01*
X0440307Y0279973D01*
D02*
G37*
G36*
X0265135Y0293434D02*
X0266951Y0291850D01*
X0267797Y0291207D01*
X0268603Y0290662D01*
X0269367Y0290217D01*
X0270091Y0289871D01*
X0270774Y0289623D01*
X0271415Y0289475D01*
X0272016Y0289425D01*
X0264177Y0279525D01*
X0264521Y0280121D01*
X0264677Y0280803D01*
X0264647Y0281574D01*
X0264431Y0282432D01*
X0264028Y0283378D01*
X0263439Y0284412D01*
X0262663Y0285534D01*
X0261700Y0286743D01*
X0260551Y0288040D01*
X0259216Y0289425D01*
X0264165Y0294375D01*
X0265135Y0293434D01*
D02*
G37*
G36*
X0540464Y0270166D02*
X0540238Y0270408D01*
X0539951Y0270540D01*
X0539605Y0270563D01*
X0539199Y0270478D01*
X0538734Y0270283D01*
X0538209Y0269980D01*
X0537625Y0269568D01*
X0536981Y0269047D01*
X0535515Y0267680D01*
X0532787Y0269901D01*
X0533672Y0270811D01*
X0535643Y0273152D01*
X0536073Y0273803D01*
X0536388Y0274390D01*
X0536590Y0274911D01*
X0536678Y0275368D01*
X0536651Y0275761D01*
X0536511Y0276089D01*
X0540464Y0270166D01*
D02*
G37*
G36*
X0474352D02*
X0474124Y0270408D01*
X0473838Y0270540D01*
X0473492Y0270563D01*
X0473086Y0270478D01*
X0472621Y0270283D01*
X0472096Y0269980D01*
X0471512Y0269568D01*
X0470868Y0269047D01*
X0469402Y0267680D01*
X0466674Y0269901D01*
X0467559Y0270811D01*
X0469530Y0273152D01*
X0469960Y0273803D01*
X0470275Y0274390D01*
X0470477Y0274911D01*
X0470565Y0275368D01*
X0470538Y0275761D01*
X0470398Y0276089D01*
X0474352Y0270166D01*
D02*
G37*
G36*
X0271733Y0279989D02*
X0271591Y0279530D01*
Y0278999D01*
X0271733Y0278398D01*
X0272016Y0277727D01*
X0272440Y0276984D01*
X0273006Y0276171D01*
X0273713Y0275287D01*
X0275551Y0273307D01*
X0272016Y0269772D01*
X0270990Y0270762D01*
X0269152Y0272317D01*
X0268339Y0272883D01*
X0267596Y0273307D01*
X0266924Y0273590D01*
X0266323Y0273732D01*
X0265793D01*
X0265333Y0273590D01*
X0264945Y0273307D01*
X0272016Y0280378D01*
X0271733Y0279989D01*
D02*
G37*
G36*
X0380255Y0246700D02*
X0380240Y0246843D01*
X0380195Y0246970D01*
X0380119Y0247082D01*
X0380013Y0247180D01*
X0379877Y0247263D01*
X0379711Y0247330D01*
X0379515Y0247382D01*
X0379288Y0247420D01*
X0379031Y0247443D01*
X0378743Y0247450D01*
Y0248950D01*
X0379031Y0248957D01*
X0379288Y0248980D01*
X0379515Y0249018D01*
X0379711Y0249070D01*
X0379877Y0249137D01*
X0380013Y0249220D01*
X0380119Y0249318D01*
X0380195Y0249430D01*
X0380240Y0249557D01*
X0380255Y0249700D01*
Y0246700D01*
D02*
G37*
G36*
X0416645Y0249456D02*
X0416690Y0249328D01*
X0416766Y0249216D01*
X0416872Y0249118D01*
X0417007Y0249036D01*
X0417174Y0248968D01*
X0417370Y0248916D01*
X0417597Y0248878D01*
X0417854Y0248856D01*
X0418142Y0248848D01*
Y0247348D01*
X0417854Y0247341D01*
X0417597Y0247318D01*
X0417370Y0247281D01*
X0417174Y0247228D01*
X0417007Y0247161D01*
X0416872Y0247078D01*
X0416766Y0246981D01*
X0416690Y0246868D01*
X0416645Y0246741D01*
X0416630Y0246598D01*
Y0249598D01*
X0416645Y0249456D01*
D02*
G37*
G36*
X0402678Y0246598D02*
X0402662Y0246741D01*
X0402617Y0246868D01*
X0402541Y0246981D01*
X0402436Y0247078D01*
X0402299Y0247161D01*
X0402133Y0247228D01*
X0401937Y0247281D01*
X0401710Y0247318D01*
X0401453Y0247341D01*
X0401165Y0247348D01*
Y0248848D01*
X0401453Y0248856D01*
X0401710Y0248878D01*
X0401937Y0248916D01*
X0402133Y0248968D01*
X0402299Y0249036D01*
X0402436Y0249118D01*
X0402541Y0249216D01*
X0402617Y0249328D01*
X0402662Y0249456D01*
X0402678Y0249598D01*
Y0246598D01*
D02*
G37*
G36*
X0393160Y0249456D02*
X0393205Y0249328D01*
X0393280Y0249216D01*
X0393386Y0249118D01*
X0393522Y0249036D01*
X0393689Y0248968D01*
X0393885Y0248916D01*
X0394112Y0248878D01*
X0394369Y0248856D01*
X0394656Y0248848D01*
Y0247348D01*
X0394369Y0247341D01*
X0394112Y0247318D01*
X0393885Y0247281D01*
X0393689Y0247228D01*
X0393522Y0247161D01*
X0393386Y0247078D01*
X0393280Y0246981D01*
X0393205Y0246868D01*
X0393160Y0246741D01*
X0393144Y0246598D01*
Y0249598D01*
X0393160Y0249456D01*
D02*
G37*
D17*
X0466292Y0548098D02*
Y0557175D01*
X0470601Y0561484D02*
X0529508D01*
X0466292Y0557175D02*
X0470601Y0561484D01*
X0529508D02*
X0532657Y0558335D01*
X0471527Y0420250D02*
X0471579Y0420198D01*
X0487048D02*
X0487100Y0420146D01*
X0466516Y0419994D02*
X0466771Y0420250D01*
X0471527D01*
X0471579Y0420198D02*
X0487048D01*
X0487100Y0420146D02*
X0492894D01*
X0467655Y0426445D02*
X0467800Y0426300D01*
X0459823Y0426445D02*
X0467655D01*
X0449587Y0387469D02*
X0458145Y0396026D01*
X0464906Y0429595D02*
X0465000Y0429500D01*
X0459823Y0429595D02*
X0464906D01*
X0459823D02*
X0459837Y0429608D01*
X0465335Y0398098D02*
Y0402035D01*
X0463433Y0393441D02*
X0463510Y0393518D01*
X0463433Y0340101D02*
Y0393441D01*
X0433839Y0387469D02*
X0449587D01*
X0462628Y0510300D02*
X0481200D01*
X0458221Y0505893D02*
X0462628Y0510300D01*
X0458221Y0480979D02*
Y0505893D01*
X0542100Y0510300D02*
X0547658D01*
X0458221Y0480979D02*
X0460159Y0479041D01*
X0465238D02*
X0465610Y0478669D01*
X0460159Y0479041D02*
X0465238D01*
X0374752Y0248200D02*
X0382200D01*
X0369000Y0253952D02*
Y0297300D01*
Y0253952D02*
X0374752Y0248200D01*
X0391510Y0248098D02*
X0405154D01*
X0437487Y0400155D02*
X0437561Y0400080D01*
X0432871Y0400155D02*
X0437487D01*
X0432400Y0437600D02*
X0437050D01*
X0437168Y0437482D01*
X0470100Y0455195D02*
X0473805D01*
X0474797Y0456187D01*
X0553058Y0444300D02*
X0557200D01*
X0549500Y0440742D02*
X0553058Y0444300D01*
X0553142Y0437100D02*
X0556900D01*
X0549500Y0440742D02*
X0553142Y0437100D01*
X0549500Y0440742D02*
X0557042D01*
X0337644Y0466900D02*
X0342200D01*
X0337368Y0467176D02*
X0337644Y0466900D01*
X0332583Y0460284D02*
X0332600Y0460300D01*
X0327244Y0460284D02*
X0332583D01*
X0542300Y0335200D02*
X0542465Y0335365D01*
Y0340101D01*
X0507600Y0339752D02*
X0508000Y0339352D01*
Y0335803D02*
Y0339352D01*
X0507600Y0339752D02*
X0507949Y0340101D01*
X0473400Y0335500D02*
X0473433Y0335533D01*
Y0340101D01*
X0438917Y0335317D02*
Y0340101D01*
X0311228Y0489431D02*
X0312852Y0491054D01*
X0310411Y0501203D02*
X0312852Y0498763D01*
Y0491054D02*
Y0498763D01*
X0305000Y0465283D02*
X0305110Y0465174D01*
X0310247D01*
X0310343Y0465078D01*
X0305000Y0460284D02*
X0305024Y0460260D01*
X0313282D01*
X0313306Y0460236D01*
X0316631Y0454888D02*
Y0462832D01*
X0311807Y0467656D02*
X0316631Y0462832D01*
X0305000Y0465283D02*
Y0470284D01*
X0309187Y0475256D02*
X0311807Y0472637D01*
Y0467656D02*
Y0472637D01*
X0305000Y0475283D02*
X0305027Y0475256D01*
X0309187D01*
X0430295Y0454791D02*
X0459101D01*
X0471634Y0435106D02*
Y0442259D01*
X0459101Y0454791D02*
X0471634Y0442259D01*
X0432657Y0452035D02*
X0457960D01*
X0468484Y0435106D02*
Y0441511D01*
X0457960Y0452035D02*
X0468484Y0441511D01*
X0430494Y0449220D02*
X0430554Y0449279D01*
X0457067D01*
X0465335Y0441012D01*
Y0435106D02*
Y0441012D01*
X0532816Y0444187D02*
X0532817Y0444186D01*
X0532816Y0444187D02*
Y0548885D01*
X0532657Y0549043D02*
X0532816Y0548885D01*
X0474840Y0444185D02*
Y0448663D01*
X0474797Y0448706D02*
X0474840Y0448663D01*
X0474784Y0435106D02*
Y0444228D01*
X0423782Y0488663D02*
X0423802Y0488683D01*
Y0493721D01*
X0489067Y0445367D02*
Y0458444D01*
X0484232Y0440532D02*
X0489067Y0445367D01*
X0484232Y0435106D02*
Y0440532D01*
X0486201Y0446419D02*
Y0466833D01*
X0481083Y0435106D02*
Y0441301D01*
X0486201Y0446419D01*
X0487382Y0439846D02*
X0491976Y0444441D01*
Y0461149D01*
X0487382Y0435106D02*
Y0439846D01*
X0453130Y0458335D02*
Y0472508D01*
X0453020Y0458444D02*
X0453130Y0458335D01*
X0451976Y0473662D02*
X0453130Y0472508D01*
X0446169Y0473662D02*
X0451976D01*
X0456076Y0461454D02*
Y0476281D01*
X0446161Y0478669D02*
X0453688D01*
X0456076Y0476281D01*
Y0461454D02*
X0456168Y0461362D01*
X0465610Y0473669D02*
X0465612Y0473668D01*
X0471382D01*
X0471383Y0473667D01*
X0432039Y0476445D02*
Y0477226D01*
X0433482Y0478669D02*
X0446161D01*
X0432039Y0477226D02*
X0433482Y0478669D01*
X0481562Y0450022D02*
Y0466859D01*
Y0450022D02*
X0482063Y0449520D01*
Y0446183D02*
Y0449520D01*
X0498540Y0392630D02*
X0498584Y0392587D01*
X0517303D01*
X0522815Y0398098D01*
Y0548886D01*
X0502815Y0402753D02*
Y0548886D01*
Y0402753D02*
X0502950Y0402618D01*
X0466516Y0419994D02*
Y0422114D01*
Y0417875D02*
Y0419994D01*
X0459823Y0416996D02*
X0465637D01*
X0466516Y0417875D01*
X0465335Y0423295D02*
X0466516Y0422114D01*
X0459823Y0423295D02*
X0465335D01*
X0317547Y0466316D02*
X0323616D01*
X0324649Y0465283D01*
X0314531Y0469332D02*
X0317547Y0466316D01*
X0323572Y0468816D02*
X0325040Y0470284D01*
X0317031Y0470367D02*
X0318583Y0468816D01*
X0325040Y0470284D02*
X0327244D01*
X0318583Y0468816D02*
X0323572D01*
X0314531Y0469332D02*
Y0484565D01*
X0324649Y0465283D02*
X0327244D01*
X0317031Y0470367D02*
Y0484303D01*
X0319010Y0486281D01*
X0311228Y0487868D02*
X0314531Y0484565D01*
X0319010Y0486281D02*
Y0487431D01*
X0320229Y0488650D01*
X0311228Y0487868D02*
Y0488650D01*
X0317609Y0498582D02*
X0323819Y0504791D01*
X0317609Y0492050D02*
X0320229Y0489431D01*
X0317609Y0492050D02*
Y0498582D01*
X0310411Y0501203D02*
Y0501368D01*
X0311228Y0488650D02*
Y0489431D01*
X0320229Y0488650D02*
Y0489431D01*
X0323819Y0504791D02*
X0324134D01*
X0306673D02*
X0306988D01*
X0310411Y0501368D01*
X0316764Y0528268D02*
X0325571Y0537075D01*
X0316764Y0512161D02*
X0324134Y0504791D01*
X0316764Y0512161D02*
Y0528268D01*
X0313892Y0512010D02*
Y0528754D01*
X0305571Y0537075D02*
X0313892Y0528754D01*
X0306673Y0504791D02*
X0313892Y0512010D01*
X0477933Y0442053D02*
X0482063Y0446183D01*
X0478945Y0487862D02*
Y0493535D01*
X0478138Y0488669D02*
X0478945Y0487862D01*
X0465610Y0488669D02*
X0478138D01*
X0465610Y0483669D02*
X0465982Y0483297D01*
X0471299D01*
X0479339Y0474476D02*
Y0475258D01*
X0471299Y0483297D02*
X0479339Y0475258D01*
Y0473695D02*
Y0474476D01*
Y0473695D02*
X0486201Y0466833D01*
X0477933Y0435106D02*
Y0442053D01*
X0532657Y0549043D02*
Y0558335D01*
X0512815Y0402587D02*
Y0548886D01*
X0428917Y0382547D02*
X0433839Y0387469D01*
X0428917Y0340101D02*
Y0382547D01*
X0465335Y0398098D02*
X0478071Y0385362D01*
X0493425D01*
X0497949Y0380838D01*
X0474784Y0392587D02*
Y0402035D01*
Y0392587D02*
X0479508Y0387862D01*
X0527146D01*
X0532465Y0382543D01*
Y0340101D02*
Y0382543D01*
X0497949Y0340101D02*
Y0380838D01*
X0414153Y0248098D02*
X0419272D01*
D18*
X0350760Y0297300D02*
D03*
X0358240D02*
D03*
Y0287400D02*
D03*
X0350760D02*
D03*
D19*
X0549500Y0508458D02*
D03*
Y0440742D02*
D03*
D20*
X0459823Y0429595D02*
D03*
Y0426445D02*
D03*
Y0423295D02*
D03*
Y0420146D02*
D03*
Y0416996D02*
D03*
Y0413846D02*
D03*
Y0410697D02*
D03*
Y0407547D02*
D03*
X0492894D02*
D03*
Y0410697D02*
D03*
Y0413846D02*
D03*
Y0416996D02*
D03*
Y0420146D02*
D03*
Y0423295D02*
D03*
Y0426445D02*
D03*
Y0429595D02*
D03*
D21*
X0465335Y0402035D02*
D03*
X0468484D02*
D03*
X0471634D02*
D03*
X0474784D02*
D03*
X0477933D02*
D03*
X0481083D02*
D03*
X0484232D02*
D03*
X0487382D02*
D03*
Y0435106D02*
D03*
X0484232D02*
D03*
X0481083D02*
D03*
X0477933D02*
D03*
X0474784D02*
D03*
X0471634D02*
D03*
X0468484D02*
D03*
X0465335D02*
D03*
D22*
X0339364Y0383352D02*
D03*
Y0375872D02*
D03*
X0337368Y0467176D02*
D03*
Y0474656D02*
D03*
X0474797Y0456187D02*
D03*
Y0448706D02*
D03*
D23*
X0289626Y0504791D02*
D03*
X0306673D02*
D03*
X0341181D02*
D03*
X0324134D02*
D03*
D24*
X0311228Y0488650D02*
D03*
X0320229D02*
D03*
X0457292Y0548098D02*
D03*
X0466292D02*
D03*
X0432039Y0476445D02*
D03*
X0423039D02*
D03*
X0478945Y0487862D02*
D03*
X0487945D02*
D03*
X0478945Y0474476D02*
D03*
X0487945D02*
D03*
X0391200Y0248200D02*
D03*
X0382200D02*
D03*
D25*
X0327244Y0460284D02*
D03*
Y0465283D02*
D03*
Y0470284D02*
D03*
Y0475283D02*
D03*
X0305000Y0460284D02*
D03*
Y0465283D02*
D03*
Y0470284D02*
D03*
Y0475283D02*
D03*
D26*
X0437561Y0400080D02*
D03*
X0445042D02*
D03*
X0437168Y0437482D02*
D03*
X0444648D02*
D03*
X0423782Y0488663D02*
D03*
X0431262D02*
D03*
D27*
X0441319Y0410071D02*
D03*
Y0427071D02*
D03*
D28*
X0446161Y0488669D02*
D03*
Y0483669D02*
D03*
Y0478669D02*
D03*
Y0473669D02*
D03*
X0465610D02*
D03*
Y0478669D02*
D03*
Y0483669D02*
D03*
Y0488669D02*
D03*
D29*
X0405154Y0248098D02*
D03*
X0414153D02*
D03*
D30*
X0543681Y0302429D02*
D03*
X0531870D02*
D03*
X0509167D02*
D03*
X0497356D02*
D03*
X0474652D02*
D03*
X0462841D02*
D03*
X0440138D02*
D03*
X0428327D02*
D03*
D31*
X0542465Y0340101D02*
D03*
X0532465D02*
D03*
Y0315101D02*
D03*
X0542465D02*
D03*
X0507949Y0340101D02*
D03*
X0497949D02*
D03*
Y0315101D02*
D03*
X0507949D02*
D03*
X0473433Y0340101D02*
D03*
X0463433D02*
D03*
Y0315101D02*
D03*
X0473433D02*
D03*
X0438917Y0340101D02*
D03*
X0428917D02*
D03*
Y0315101D02*
D03*
X0438917D02*
D03*
D32*
X0316910Y0353610D02*
D03*
X0301161D02*
D03*
D33*
X0254090Y0340453D02*
D03*
X0261090D02*
D03*
X0268091D02*
D03*
X0275091D02*
D03*
X0282090D02*
D03*
D34*
X0267590Y0386453D02*
D03*
D35*
X0309429Y0339831D02*
D03*
Y0316209D02*
D03*
D36*
X0322815Y0379201D02*
D03*
X0299980D02*
D03*
D37*
X0268091Y0315618D02*
D03*
Y0281366D02*
D03*
D64*
X0431262Y0535049D02*
X0436044Y0539831D01*
X0431262Y0488663D02*
Y0535049D01*
X0436044Y0539831D02*
X0457292D01*
X0431262Y0483669D02*
X0446161D01*
X0429482D02*
X0431262D01*
X0339364Y0383352D02*
X0366106Y0410094D01*
Y0475359D01*
X0338072D02*
X0366106D01*
X0422321D01*
X0423039Y0476445D02*
Y0477226D01*
X0422321Y0475359D02*
X0423039Y0476078D01*
X0337368Y0474656D02*
X0338072Y0475359D01*
X0336810Y0475215D02*
X0337368Y0474656D01*
X0457292Y0539831D02*
X0487945D01*
X0457292D02*
Y0548098D01*
X0327313Y0475215D02*
X0336810D01*
X0327244Y0475283D02*
X0327313Y0475215D01*
X0431262Y0483669D02*
Y0488663D01*
X0431262Y0488663D02*
X0431262Y0488663D01*
X0423039Y0477226D02*
X0429482Y0483669D01*
X0491954Y0543840D02*
Y0548025D01*
X0487945Y0539831D02*
X0491954Y0543840D01*
Y0548025D02*
X0492815Y0548886D01*
X0487945Y0487862D02*
Y0539831D01*
Y0474476D02*
Y0487862D01*
X0339184Y0376051D02*
X0339364Y0375872D01*
X0335807Y0376051D02*
X0339184D01*
D65*
X0474311Y0274079D02*
Y0275064D01*
X0472124Y0271892D02*
X0474311Y0274079D01*
X0427539Y0263059D02*
X0462306D01*
X0471140Y0271892D02*
X0472124D01*
X0462306Y0263059D02*
X0471140Y0271892D01*
X0423602Y0266996D02*
X0427539Y0263059D01*
X0423602Y0266996D02*
Y0278807D01*
X0439350Y0294555D01*
Y0301642D01*
X0440138Y0302429D01*
X0474482Y0275234D02*
Y0302258D01*
X0474652Y0302429D01*
X0540424Y0274079D02*
Y0275064D01*
X0528419Y0263059D02*
X0537253Y0271892D01*
X0538237D02*
X0540424Y0274079D01*
X0537253Y0271892D02*
X0538237D01*
X0492500Y0263059D02*
X0528419D01*
X0488563Y0266996D02*
X0492500Y0263059D01*
X0488563Y0266996D02*
Y0281629D01*
X0509167Y0302232D01*
Y0302429D01*
X0540424Y0275064D02*
Y0298975D01*
X0543681Y0302232D01*
X0428917Y0303024D02*
Y0315101D01*
X0463433Y0303024D02*
Y0315101D01*
X0497949Y0303024D02*
Y0315101D01*
X0532465Y0303024D02*
Y0315101D01*
D66*
X0438917D02*
X0444395D01*
X0447224Y0312272D01*
Y0289011D02*
Y0312272D01*
X0434261Y0275064D02*
Y0276048D01*
X0447224Y0289011D01*
X0473433Y0315101D02*
Y0321496D01*
X0470847Y0324083D02*
X0473433Y0321496D01*
X0457067Y0324083D02*
X0470847D01*
X0454311Y0321327D02*
X0457067Y0324083D01*
X0454311Y0275064D02*
Y0321327D01*
X0520424Y0276048D02*
X0522861Y0278485D01*
X0524687Y0320837D02*
X0527933Y0324083D01*
X0522930Y0278485D02*
X0524687Y0280242D01*
X0520424Y0275064D02*
Y0276048D01*
X0522861Y0278485D02*
X0522930D01*
X0524687Y0280242D02*
Y0320837D01*
X0516333Y0315101D02*
X0518090Y0313344D01*
Y0293765D02*
Y0313344D01*
X0507949Y0315101D02*
X0516333D01*
X0500374Y0275064D02*
Y0276048D01*
X0518090Y0293765D01*
X0542465Y0315101D02*
Y0321362D01*
X0539744Y0324083D02*
X0542465Y0321362D01*
X0527933Y0324083D02*
X0539744D01*
D67*
X0375172Y0309378D02*
Y0315647D01*
X0358240Y0297300D02*
X0369000D01*
X0375172Y0303472D01*
Y0309378D01*
X0268091Y0277232D02*
Y0280228D01*
Y0277232D02*
X0293323Y0252000D01*
X0347000D01*
X0358240Y0263240D01*
Y0287400D01*
X0330903Y0383352D02*
X0339364D01*
X0322815Y0379201D02*
X0326752D01*
X0330903Y0383352D01*
X0329370Y0318576D02*
X0336523D01*
X0372243D02*
X0375172Y0315647D01*
X0309429Y0316071D02*
X0310276Y0315224D01*
X0309429Y0316209D02*
X0327002D01*
X0336523Y0318576D02*
X0372243D01*
X0327002Y0316209D02*
X0329370Y0318576D01*
X0309429Y0316071D02*
Y0316209D01*
X0336523Y0318576D02*
Y0357225D01*
X0326752Y0379201D02*
X0328189Y0377764D01*
Y0365559D02*
X0336523Y0357225D01*
X0328189Y0365559D02*
Y0377764D01*
X0375172Y0309378D02*
X0375231Y0309319D01*
X0299980Y0353610D02*
X0301161D01*
X0302736D02*
X0303583Y0352764D01*
X0301161Y0353610D02*
X0302736D01*
X0309429Y0339831D02*
Y0340421D01*
X0303583Y0346268D02*
X0309429Y0340421D01*
X0303583Y0346268D02*
Y0352764D01*
X0261201Y0336878D02*
Y0354594D01*
X0264154Y0357547D02*
X0296043D01*
X0261201Y0354594D02*
X0264154Y0357547D01*
X0296043D02*
X0299980Y0353610D01*
X0275091Y0331295D02*
Y0340453D01*
Y0331295D02*
X0290177Y0316209D01*
X0309429D01*
D68*
X0309408Y0289404D02*
X0312408D01*
X0320305Y0297300D02*
X0350760D01*
X0312408Y0289404D02*
X0320305Y0297300D01*
X0350760Y0287400D02*
Y0297300D01*
D69*
X0425786Y0445100D02*
X0449755D01*
X0453130Y0420146D02*
Y0441725D01*
X0449755Y0445100D02*
X0453130Y0441725D01*
X0423039Y0447846D02*
Y0476078D01*
Y0447846D02*
X0425786Y0445100D01*
X0453130Y0416209D02*
Y0420146D01*
X0453130Y0420146D01*
X0459823D01*
X0423039Y0476078D02*
Y0476445D01*
X0453130Y0416209D02*
X0455461Y0413878D01*
X0459791D01*
X0459823Y0413846D01*
D70*
X0502894Y0395342D02*
X0503130D01*
X0485807D02*
X0502894D01*
X0512815Y0399516D02*
Y0402587D01*
X0511398Y0398098D02*
X0512815Y0399516D01*
X0489420Y0398098D02*
X0511398D01*
X0487382Y0399673D02*
X0487390Y0399682D01*
X0487837D01*
X0489420Y0398098D01*
X0487382Y0399673D02*
Y0402035D01*
X0484232Y0396917D02*
X0485807Y0395342D01*
X0484232Y0396917D02*
Y0402035D01*
X0492894Y0407547D02*
X0498445D01*
X0441319Y0410071D02*
X0442132D01*
X0445042Y0400080D02*
Y0407161D01*
X0442132Y0410071D02*
X0445042Y0407161D01*
X0444648Y0429980D02*
Y0437482D01*
X0441319Y0427071D02*
X0441739D01*
X0444648Y0429980D01*
X0441319Y0410071D02*
X0444223Y0412975D01*
X0448949D02*
X0454376Y0407547D01*
X0444223Y0412975D02*
X0448949D01*
X0454376Y0407547D02*
X0459823D01*
X0441319Y0427071D02*
X0442517Y0425873D01*
Y0422491D02*
Y0425873D01*
Y0422491D02*
X0454311Y0410697D01*
X0459823D01*
D71*
X0268091Y0281366D02*
Y0285500D01*
X0252343Y0301248D02*
X0268091Y0285500D01*
Y0280228D02*
X0268528Y0279791D01*
X0252343Y0301248D02*
Y0343768D01*
X0268091Y0280228D02*
Y0281366D01*
D72*
X0492815Y0548886D02*
D03*
X0502815D02*
D03*
X0512815D02*
D03*
X0522815D02*
D03*
X0532815D02*
D03*
D73*
X0542815D02*
D03*
D74*
X0325571Y0537075D02*
D03*
X0305571D02*
D03*
X0500374Y0275064D02*
D03*
X0540424D02*
D03*
X0520424D02*
D03*
X0434261D02*
D03*
X0474311D02*
D03*
X0454311D02*
D03*
D75*
X0329408Y0279403D02*
D03*
D76*
X0309408Y0264404D02*
D03*
Y0289404D02*
D03*
D77*
X0256500Y0564020D02*
D03*
X0592673D02*
D03*
Y0249500D02*
D03*
X0256500D02*
D03*
D78*
X0549480Y0488690D02*
D03*
X0549500Y0458750D02*
D03*
D79*
X0463430Y0393830D02*
D03*
X0471527Y0420250D02*
D03*
X0467800Y0426300D02*
D03*
X0457855Y0395755D02*
D03*
X0465000Y0429500D02*
D03*
X0542100Y0510300D02*
D03*
X0481200D02*
D03*
X0432871Y0400155D02*
D03*
X0432400Y0437600D02*
D03*
X0470100Y0455195D02*
D03*
X0487100Y0420146D02*
D03*
X0557200Y0444300D02*
D03*
X0556900Y0437100D02*
D03*
X0557042Y0440742D02*
D03*
X0342200Y0466900D02*
D03*
X0332600Y0460300D02*
D03*
X0542300Y0335200D02*
D03*
X0508000Y0335803D02*
D03*
X0473400Y0335500D02*
D03*
X0438917Y0335317D02*
D03*
X0310343Y0465078D02*
D03*
X0313306Y0460236D02*
D03*
X0316631Y0454888D02*
D03*
X0430494Y0449220D02*
D03*
X0432657Y0452035D02*
D03*
X0430295Y0454791D02*
D03*
X0532817Y0444186D02*
D03*
X0474840Y0444185D02*
D03*
X0423802Y0493721D02*
D03*
X0491976Y0461149D02*
D03*
X0489067Y0458444D02*
D03*
X0453020D02*
D03*
X0456168Y0461362D02*
D03*
X0471383Y0473667D02*
D03*
X0481562Y0466859D02*
D03*
X0498540Y0392630D02*
D03*
X0502894Y0395342D02*
D03*
X0502815Y0402753D02*
D03*
X0498445Y0407547D02*
D03*
X0293544Y0509632D02*
D03*
X0289578Y0509636D02*
D03*
X0289753Y0499799D02*
D03*
X0293518Y0499915D02*
D03*
X0285336Y0499838D02*
D03*
X0285260Y0509566D02*
D03*
X0336815D02*
D03*
X0336891Y0499838D02*
D03*
X0345073Y0499915D02*
D03*
X0341308Y0499799D02*
D03*
X0341133Y0509636D02*
D03*
X0345099Y0509632D02*
D03*
X0478945Y0493535D02*
D03*
X0419272Y0248098D02*
D03*
X0312972Y0349673D02*
D03*
X0320847D02*
D03*
X0316910D02*
D03*
Y0357547D02*
D03*
X0320847D02*
D03*
X0312972D02*
D03*
X0263366Y0322508D02*
D03*
Y0318177D02*
D03*
Y0313059D02*
D03*
Y0308728D02*
D03*
X0272815D02*
D03*
Y0313059D02*
D03*
Y0318177D02*
D03*
X0266910Y0333925D02*
D03*
X0272815Y0322508D02*
D03*
X0335807Y0376051D02*
D03*
X0283272Y0346917D02*
D03*
X0280909D02*
D03*
Y0333925D02*
D03*
X0283272D02*
D03*
X0269272D02*
D03*
X0266910Y0346917D02*
D03*
X0269272D02*
D03*
X0282854Y0376248D02*
D03*
Y0381169D02*
D03*
Y0387075D02*
D03*
X0268091Y0376248D02*
D03*
Y0381169D02*
D03*
Y0387075D02*
D03*
X0275965Y0376248D02*
D03*
Y0381169D02*
D03*
Y0387075D02*
D03*
X0252343Y0376248D02*
D03*
Y0381169D02*
D03*
Y0387075D02*
D03*
X0260216Y0376248D02*
D03*
Y0381169D02*
D03*
Y0387075D02*
D03*
X0305492Y0375264D02*
D03*
X0299587D02*
D03*
X0294665D02*
D03*
X0305492Y0383138D02*
D03*
X0299587D02*
D03*
X0294665D02*
D03*
M02*
