G04*
G04 #@! TF.GenerationSoftware,Altium Limited,Altium Designer,21.9.2 (33)*
G04*
G04 Layer_Color=8388736*
%FSAX25Y25*%
%MOIN*%
G70*
G04*
G04 #@! TF.SameCoordinates,203294B4-0F2B-408B-82F0-FBCEC716028D*
G04*
G04*
G04 #@! TF.FilePolarity,Negative*
G04*
G01*
G75*
%ADD38R,0.05918X0.05918*%
%ADD39R,0.10642X0.10642*%
%ADD40O,0.07296X0.02700*%
%ADD41O,0.02700X0.07296*%
%ADD42R,0.06312X0.05524*%
%ADD43R,0.09776X0.09147*%
%ADD44R,0.04737X0.06300*%
%ADD45O,0.07887X0.03162*%
%ADD46R,0.05524X0.06312*%
%ADD47R,0.10800X0.07800*%
G04:AMPARAMS|DCode=48|XSize=85.17mil|YSize=30.44mil|CornerRadius=9.5mil|HoleSize=0mil|Usage=FLASHONLY|Rotation=180.000|XOffset=0mil|YOffset=0mil|HoleType=Round|Shape=RoundedRectangle|*
%AMROUNDEDRECTD48*
21,1,0.08517,0.01145,0,0,180.0*
21,1,0.06617,0.03044,0,0,180.0*
1,1,0.01900,-0.03309,0.00572*
1,1,0.01900,0.03309,0.00572*
1,1,0.01900,0.03309,-0.00572*
1,1,0.01900,-0.03309,-0.00572*
%
%ADD48ROUNDEDRECTD48*%
%ADD49R,0.05800X0.06300*%
%ADD50R,0.06706X0.07099*%
%ADD51R,0.03162X0.06706*%
%ADD52R,0.10642X0.07493*%
%ADD53R,0.04737X0.12800*%
%ADD54R,0.40170X0.28359*%
%ADD55R,0.07493X0.08674*%
%ADD56R,0.16548X0.08674*%
%ADD57R,0.08674X0.16942*%
%ADD58O,0.07800X0.10800*%
%ADD59R,0.07800X0.10800*%
%ADD60R,0.08674X0.10642*%
%ADD61R,0.10800X0.16800*%
%ADD62R,0.16800X0.10800*%
%ADD63C,0.24422*%
D38*
X0350760Y0297300D02*
D03*
X0358240D02*
D03*
Y0287400D02*
D03*
X0350760D02*
D03*
D39*
X0549500Y0508458D02*
D03*
Y0440742D02*
D03*
D40*
X0459823Y0429595D02*
D03*
Y0426445D02*
D03*
Y0423295D02*
D03*
Y0420146D02*
D03*
Y0416996D02*
D03*
Y0413846D02*
D03*
Y0410697D02*
D03*
Y0407547D02*
D03*
X0492894D02*
D03*
Y0410697D02*
D03*
Y0413846D02*
D03*
Y0416996D02*
D03*
Y0420146D02*
D03*
Y0423295D02*
D03*
Y0426445D02*
D03*
Y0429595D02*
D03*
D41*
X0465335Y0402035D02*
D03*
X0468484D02*
D03*
X0471634D02*
D03*
X0474784D02*
D03*
X0477933D02*
D03*
X0481083D02*
D03*
X0484232D02*
D03*
X0487382D02*
D03*
Y0435106D02*
D03*
X0484232D02*
D03*
X0481083D02*
D03*
X0477933D02*
D03*
X0474784D02*
D03*
X0471634D02*
D03*
X0468484D02*
D03*
X0465335D02*
D03*
D42*
X0339364Y0383352D02*
D03*
Y0375872D02*
D03*
X0337368Y0467176D02*
D03*
Y0474656D02*
D03*
X0474797Y0456187D02*
D03*
Y0448706D02*
D03*
D43*
X0289626Y0504791D02*
D03*
X0306673D02*
D03*
X0341181D02*
D03*
X0324134D02*
D03*
D44*
X0311228Y0488650D02*
D03*
X0320229D02*
D03*
X0457292Y0548098D02*
D03*
X0466292D02*
D03*
X0432039Y0476445D02*
D03*
X0423039D02*
D03*
X0478945Y0487862D02*
D03*
X0487945D02*
D03*
X0478945Y0474476D02*
D03*
X0487945D02*
D03*
X0391200Y0248200D02*
D03*
X0382200D02*
D03*
D45*
X0327244Y0460284D02*
D03*
Y0465283D02*
D03*
Y0470284D02*
D03*
Y0475283D02*
D03*
X0305000Y0460284D02*
D03*
Y0465283D02*
D03*
Y0470284D02*
D03*
Y0475283D02*
D03*
D46*
X0437561Y0400080D02*
D03*
X0445042D02*
D03*
X0437168Y0437482D02*
D03*
X0444648D02*
D03*
X0423782Y0488663D02*
D03*
X0431262D02*
D03*
D47*
X0441319Y0410071D02*
D03*
Y0427071D02*
D03*
D48*
X0446161Y0488669D02*
D03*
Y0483669D02*
D03*
Y0478669D02*
D03*
Y0473669D02*
D03*
X0465610D02*
D03*
Y0478669D02*
D03*
Y0483669D02*
D03*
Y0488669D02*
D03*
D49*
X0405154Y0248098D02*
D03*
X0414153D02*
D03*
D50*
X0543681Y0302429D02*
D03*
X0531870D02*
D03*
X0509167D02*
D03*
X0497356D02*
D03*
X0474652D02*
D03*
X0462841D02*
D03*
X0440138D02*
D03*
X0428327D02*
D03*
D51*
X0542465Y0340101D02*
D03*
X0532465D02*
D03*
Y0315101D02*
D03*
X0542465D02*
D03*
X0507949Y0340101D02*
D03*
X0497949D02*
D03*
Y0315101D02*
D03*
X0507949D02*
D03*
X0473433Y0340101D02*
D03*
X0463433D02*
D03*
Y0315101D02*
D03*
X0473433D02*
D03*
X0438917Y0340101D02*
D03*
X0428917D02*
D03*
Y0315101D02*
D03*
X0438917D02*
D03*
D52*
X0316910Y0353610D02*
D03*
X0301161D02*
D03*
D53*
X0254090Y0340453D02*
D03*
X0261090D02*
D03*
X0268091D02*
D03*
X0275091D02*
D03*
X0282090D02*
D03*
D54*
X0267590Y0386453D02*
D03*
D55*
X0309429Y0339831D02*
D03*
Y0316209D02*
D03*
D56*
X0322815Y0379201D02*
D03*
X0299980D02*
D03*
D57*
X0268091Y0315618D02*
D03*
Y0281366D02*
D03*
D58*
X0492815Y0548886D02*
D03*
X0502815D02*
D03*
X0512815D02*
D03*
X0522815D02*
D03*
X0532815D02*
D03*
D59*
X0542815D02*
D03*
D60*
X0325571Y0537075D02*
D03*
X0305571D02*
D03*
X0500374Y0275064D02*
D03*
X0540424D02*
D03*
X0520424D02*
D03*
X0434261D02*
D03*
X0474311D02*
D03*
X0454311D02*
D03*
D61*
X0329408Y0279403D02*
D03*
D62*
X0309408Y0264404D02*
D03*
Y0289404D02*
D03*
D63*
X0256500Y0564020D02*
D03*
X0592673D02*
D03*
Y0249500D02*
D03*
X0256500D02*
D03*
M02*
