G04*
G04 #@! TF.GenerationSoftware,Altium Limited,Altium Designer,21.9.2 (33)*
G04*
G04 Layer_Physical_Order=2*
G04 Layer_Color=16711680*
%FSAX25Y25*%
%MOIN*%
G70*
G04*
G04 #@! TF.SameCoordinates,203294B4-0F2B-408B-82F0-FBCEC716028D*
G04*
G04*
G04 #@! TF.FilePolarity,Positive*
G04*
G01*
G75*
%ADD17C,0.01500*%
%ADD72O,0.07000X0.10000*%
%ADD73R,0.07000X0.10000*%
%ADD74R,0.07874X0.09843*%
%ADD75R,0.10000X0.16000*%
%ADD76R,0.16000X0.10000*%
%ADD77C,0.23622*%
%ADD78C,0.05000*%
%ADD79C,0.02000*%
G36*
X0251619Y0575904D02*
X0251582Y0575892D01*
X0249786Y0574977D01*
X0248154Y0573791D01*
X0246728Y0572366D01*
X0245543Y0570734D01*
X0244628Y0568937D01*
X0244616Y0568900D01*
X0244122Y0568979D01*
Y0576398D01*
X0251541D01*
X0251619Y0575904D01*
D02*
G37*
G36*
X0605052Y0568979D02*
X0604558Y0568900D01*
X0604546Y0568937D01*
X0603630Y0570734D01*
X0602445Y0572366D01*
X0601019Y0573791D01*
X0599388Y0574977D01*
X0597591Y0575892D01*
X0597554Y0575904D01*
X0597632Y0576398D01*
X0605052D01*
Y0568979D01*
D02*
G37*
G36*
X0587792Y0575904D02*
X0587755Y0575892D01*
X0585959Y0574977D01*
X0584327Y0573791D01*
X0582901Y0572366D01*
X0581716Y0570734D01*
X0580801Y0568937D01*
X0580178Y0567020D01*
X0579862Y0565028D01*
Y0563011D01*
X0580178Y0561020D01*
X0580801Y0559102D01*
X0581716Y0557305D01*
X0582901Y0555674D01*
X0584327Y0554248D01*
X0585959Y0553063D01*
X0587755Y0552147D01*
X0589673Y0551524D01*
X0591665Y0551209D01*
X0593681D01*
X0595673Y0551524D01*
X0597591Y0552147D01*
X0599388Y0553063D01*
X0601019Y0554248D01*
X0602445Y0555674D01*
X0603630Y0557305D01*
X0604546Y0559102D01*
X0604558Y0559139D01*
X0605052Y0559061D01*
Y0254459D01*
X0604558Y0254381D01*
X0604546Y0254418D01*
X0603630Y0256214D01*
X0602445Y0257846D01*
X0601019Y0259272D01*
X0599388Y0260457D01*
X0597591Y0261372D01*
X0595673Y0261996D01*
X0593681Y0262311D01*
X0591665D01*
X0589673Y0261996D01*
X0587755Y0261372D01*
X0585959Y0260457D01*
X0584327Y0259272D01*
X0582901Y0257846D01*
X0581716Y0256214D01*
X0580801Y0254418D01*
X0580178Y0252500D01*
X0579862Y0250508D01*
Y0248492D01*
X0580178Y0246500D01*
X0580801Y0244582D01*
X0581716Y0242786D01*
X0582901Y0241154D01*
X0584327Y0239728D01*
X0585959Y0238543D01*
X0587755Y0237628D01*
X0587792Y0237616D01*
X0587714Y0237122D01*
X0261459D01*
X0261381Y0237616D01*
X0261418Y0237628D01*
X0263214Y0238543D01*
X0264846Y0239728D01*
X0266272Y0241154D01*
X0267457Y0242786D01*
X0268372Y0244582D01*
X0268996Y0246500D01*
X0269311Y0248492D01*
Y0250508D01*
X0268996Y0252500D01*
X0268372Y0254418D01*
X0267457Y0256214D01*
X0266272Y0257846D01*
X0264846Y0259272D01*
X0263214Y0260457D01*
X0261418Y0261372D01*
X0259500Y0261996D01*
X0257508Y0262311D01*
X0255492D01*
X0253500Y0261996D01*
X0251582Y0261372D01*
X0249786Y0260457D01*
X0248154Y0259272D01*
X0246728Y0257846D01*
X0245543Y0256214D01*
X0244628Y0254418D01*
X0244616Y0254381D01*
X0244122Y0254459D01*
Y0559061D01*
X0244616Y0559139D01*
X0244628Y0559102D01*
X0245543Y0557305D01*
X0246728Y0555674D01*
X0248154Y0554248D01*
X0249786Y0553063D01*
X0251582Y0552147D01*
X0253500Y0551524D01*
X0255492Y0551209D01*
X0257508D01*
X0259500Y0551524D01*
X0261418Y0552147D01*
X0263214Y0553063D01*
X0264846Y0554248D01*
X0266272Y0555674D01*
X0267457Y0557305D01*
X0268372Y0559102D01*
X0268996Y0561020D01*
X0269311Y0563011D01*
Y0565028D01*
X0268996Y0567020D01*
X0268372Y0568937D01*
X0267457Y0570734D01*
X0266272Y0572366D01*
X0264846Y0573791D01*
X0263214Y0574977D01*
X0261418Y0575892D01*
X0261381Y0575904D01*
X0261459Y0576398D01*
X0587714D01*
X0587792Y0575904D01*
D02*
G37*
G36*
X0605052Y0244541D02*
Y0237122D01*
X0597632D01*
X0597554Y0237616D01*
X0597591Y0237628D01*
X0599388Y0238543D01*
X0601019Y0239728D01*
X0602445Y0241154D01*
X0603630Y0242786D01*
X0604546Y0244582D01*
X0604558Y0244619D01*
X0605052Y0244541D01*
D02*
G37*
G36*
X0244628Y0244582D02*
X0245543Y0242786D01*
X0246728Y0241154D01*
X0248154Y0239728D01*
X0249786Y0238543D01*
X0251582Y0237628D01*
X0251619Y0237616D01*
X0251541Y0237122D01*
X0244122D01*
Y0244541D01*
X0244616Y0244619D01*
X0244628Y0244582D01*
D02*
G37*
%LPC*%
G36*
X0547315Y0554886D02*
X0543315D01*
Y0549386D01*
X0547315D01*
Y0554886D01*
D02*
G37*
G36*
X0542315D02*
X0538315D01*
Y0549386D01*
X0542315D01*
Y0554886D01*
D02*
G37*
G36*
X0547315Y0548386D02*
X0543315D01*
Y0542886D01*
X0547315D01*
Y0548386D01*
D02*
G37*
G36*
X0542315D02*
X0538315D01*
Y0542886D01*
X0542315D01*
Y0548386D01*
D02*
G37*
G36*
X0532815Y0554925D02*
X0531640Y0554770D01*
X0530546Y0554317D01*
X0529605Y0553595D01*
X0528884Y0552655D01*
X0528431Y0551561D01*
X0528276Y0550386D01*
Y0547386D01*
X0528431Y0546211D01*
X0528884Y0545116D01*
X0529605Y0544176D01*
X0530546Y0543455D01*
X0531640Y0543002D01*
X0532815Y0542847D01*
X0533990Y0543002D01*
X0535084Y0543455D01*
X0536024Y0544176D01*
X0536746Y0545116D01*
X0537199Y0546211D01*
X0537354Y0547386D01*
Y0550386D01*
X0537199Y0551561D01*
X0536746Y0552655D01*
X0536024Y0553595D01*
X0535084Y0554317D01*
X0533990Y0554770D01*
X0532815Y0554925D01*
D02*
G37*
G36*
X0522815D02*
X0521640Y0554770D01*
X0520545Y0554317D01*
X0519605Y0553595D01*
X0518884Y0552655D01*
X0518431Y0551561D01*
X0518276Y0550386D01*
Y0547386D01*
X0518431Y0546211D01*
X0518884Y0545116D01*
X0519605Y0544176D01*
X0520545Y0543455D01*
X0521640Y0543002D01*
X0522815Y0542847D01*
X0523990Y0543002D01*
X0525084Y0543455D01*
X0526024Y0544176D01*
X0526746Y0545116D01*
X0527199Y0546211D01*
X0527354Y0547386D01*
Y0550386D01*
X0527199Y0551561D01*
X0526746Y0552655D01*
X0526024Y0553595D01*
X0525084Y0554317D01*
X0523990Y0554770D01*
X0522815Y0554925D01*
D02*
G37*
G36*
X0512815D02*
X0511640Y0554770D01*
X0510545Y0554317D01*
X0509606Y0553595D01*
X0508884Y0552655D01*
X0508431Y0551561D01*
X0508276Y0550386D01*
Y0547386D01*
X0508431Y0546211D01*
X0508884Y0545116D01*
X0509606Y0544176D01*
X0510545Y0543455D01*
X0511640Y0543002D01*
X0512815Y0542847D01*
X0513990Y0543002D01*
X0515084Y0543455D01*
X0516024Y0544176D01*
X0516746Y0545116D01*
X0517199Y0546211D01*
X0517354Y0547386D01*
Y0550386D01*
X0517199Y0551561D01*
X0516746Y0552655D01*
X0516024Y0553595D01*
X0515084Y0554317D01*
X0513990Y0554770D01*
X0512815Y0554925D01*
D02*
G37*
G36*
X0502815D02*
X0501640Y0554770D01*
X0500546Y0554317D01*
X0499606Y0553595D01*
X0498884Y0552655D01*
X0498431Y0551561D01*
X0498276Y0550386D01*
Y0547386D01*
X0498431Y0546211D01*
X0498884Y0545116D01*
X0499606Y0544176D01*
X0500546Y0543455D01*
X0501640Y0543002D01*
X0502815Y0542847D01*
X0503990Y0543002D01*
X0505084Y0543455D01*
X0506024Y0544176D01*
X0506746Y0545116D01*
X0507199Y0546211D01*
X0507354Y0547386D01*
Y0550386D01*
X0507199Y0551561D01*
X0506746Y0552655D01*
X0506024Y0553595D01*
X0505084Y0554317D01*
X0503990Y0554770D01*
X0502815Y0554925D01*
D02*
G37*
G36*
X0492815D02*
X0491640Y0554770D01*
X0490546Y0554317D01*
X0489606Y0553595D01*
X0488884Y0552655D01*
X0488431Y0551561D01*
X0488276Y0550386D01*
Y0547386D01*
X0488431Y0546211D01*
X0488884Y0545116D01*
X0489606Y0544176D01*
X0490546Y0543455D01*
X0491640Y0543002D01*
X0492815Y0542847D01*
X0493990Y0543002D01*
X0495084Y0543455D01*
X0496024Y0544176D01*
X0496746Y0545116D01*
X0497199Y0546211D01*
X0497354Y0547386D01*
Y0550386D01*
X0497199Y0551561D01*
X0496746Y0552655D01*
X0496024Y0553595D01*
X0495084Y0554317D01*
X0493990Y0554770D01*
X0492815Y0554925D01*
D02*
G37*
G36*
X0330508Y0542996D02*
X0320634D01*
Y0531153D01*
X0330508D01*
Y0542996D01*
D02*
G37*
G36*
X0310508D02*
X0300634D01*
Y0531153D01*
X0310508D01*
Y0542996D01*
D02*
G37*
G36*
X0542498Y0512300D02*
X0541702D01*
X0541181Y0512084D01*
X0482119D01*
X0481598Y0512300D01*
X0480802D01*
X0480067Y0511996D01*
X0479504Y0511433D01*
X0479200Y0510698D01*
Y0509902D01*
X0479504Y0509167D01*
X0480067Y0508604D01*
X0480802Y0508300D01*
X0481598D01*
X0482119Y0508516D01*
X0541181D01*
X0541702Y0508300D01*
X0542498D01*
X0543233Y0508604D01*
X0543795Y0509167D01*
X0544100Y0509902D01*
Y0510698D01*
X0543795Y0511433D01*
X0543233Y0511996D01*
X0542498Y0512300D01*
D02*
G37*
G36*
X0549941Y0492190D02*
X0549019D01*
X0548129Y0491952D01*
X0547331Y0491491D01*
X0546679Y0490839D01*
X0546218Y0490041D01*
X0545980Y0489151D01*
Y0488229D01*
X0546218Y0487339D01*
X0546679Y0486541D01*
X0547331Y0485889D01*
X0548129Y0485428D01*
X0549019Y0485190D01*
X0549941D01*
X0550831Y0485428D01*
X0551629Y0485889D01*
X0552281Y0486541D01*
X0552741Y0487339D01*
X0552980Y0488229D01*
Y0489151D01*
X0552741Y0490041D01*
X0552281Y0490839D01*
X0551629Y0491491D01*
X0550831Y0491952D01*
X0549941Y0492190D01*
D02*
G37*
G36*
X0479343Y0495535D02*
X0478547D01*
X0477812Y0495231D01*
X0477249Y0494668D01*
X0476945Y0493933D01*
Y0493138D01*
X0477249Y0492403D01*
X0477812Y0491840D01*
X0478333Y0491624D01*
X0479777Y0490180D01*
Y0477775D01*
X0479777Y0477775D01*
Y0467778D01*
X0479562Y0467257D01*
Y0466461D01*
X0479866Y0465726D01*
X0480429Y0465164D01*
X0481164Y0464859D01*
X0481959D01*
X0482695Y0465164D01*
X0483257Y0465726D01*
X0483562Y0466461D01*
Y0467257D01*
X0483346Y0467778D01*
Y0477775D01*
X0483346Y0477775D01*
Y0490919D01*
X0483346Y0490919D01*
X0483210Y0491602D01*
X0482823Y0492180D01*
X0480856Y0494147D01*
X0480641Y0494668D01*
X0480078Y0495231D01*
X0479343Y0495535D01*
D02*
G37*
G36*
X0456566Y0463362D02*
X0455770D01*
X0455035Y0463057D01*
X0454473Y0462495D01*
X0454168Y0461760D01*
Y0460964D01*
X0454266Y0460729D01*
X0453945Y0460239D01*
X0453930Y0460232D01*
X0453418Y0460444D01*
X0452622D01*
X0451887Y0460140D01*
X0451325Y0459577D01*
X0451020Y0458842D01*
Y0458047D01*
X0451325Y0457312D01*
X0451887Y0456749D01*
X0452622Y0456445D01*
X0453418D01*
X0453939Y0456660D01*
X0488148D01*
X0488669Y0456445D01*
X0489464D01*
X0490199Y0456749D01*
X0490762Y0457312D01*
X0491067Y0458047D01*
Y0458842D01*
X0491461Y0459197D01*
X0491578Y0459149D01*
X0492374D01*
X0493109Y0459453D01*
X0493672Y0460016D01*
X0493976Y0460751D01*
Y0461546D01*
X0493672Y0462282D01*
X0493109Y0462844D01*
X0492374Y0463149D01*
X0491578D01*
X0491573Y0463146D01*
X0457087D01*
X0456566Y0463362D01*
D02*
G37*
G36*
X0549961Y0462250D02*
X0549039D01*
X0548149Y0462011D01*
X0547351Y0461551D01*
X0546699Y0460899D01*
X0546239Y0460101D01*
X0546000Y0459211D01*
Y0458289D01*
X0546239Y0457399D01*
X0546699Y0456601D01*
X0547351Y0455949D01*
X0548149Y0455488D01*
X0549039Y0455250D01*
X0549961D01*
X0550851Y0455488D01*
X0551649Y0455949D01*
X0552301Y0456601D01*
X0552762Y0457399D01*
X0553000Y0458289D01*
Y0459211D01*
X0552762Y0460101D01*
X0552301Y0460899D01*
X0551649Y0461551D01*
X0550851Y0462011D01*
X0549961Y0462250D01*
D02*
G37*
G36*
X0310741Y0467078D02*
X0309945D01*
X0309210Y0466774D01*
X0308648Y0466211D01*
X0308343Y0465476D01*
Y0464680D01*
X0308631Y0463985D01*
Y0452142D01*
X0308767Y0451459D01*
X0309154Y0450880D01*
X0312076Y0447958D01*
X0312076Y0447958D01*
X0312655Y0447572D01*
X0313337Y0447436D01*
X0313337Y0447436D01*
X0429575D01*
X0430096Y0447220D01*
X0430892D01*
X0431627Y0447524D01*
X0432190Y0448087D01*
X0432494Y0448822D01*
Y0449618D01*
X0432493Y0449620D01*
X0432771Y0450035D01*
X0433055D01*
X0433790Y0450340D01*
X0434353Y0450903D01*
X0434657Y0451638D01*
Y0452433D01*
X0434353Y0453168D01*
X0433790Y0453731D01*
X0433055Y0454035D01*
X0432688D01*
X0432295Y0454393D01*
Y0455189D01*
X0431991Y0455924D01*
X0431428Y0456487D01*
X0430693Y0456791D01*
X0429897D01*
X0429610Y0456672D01*
X0317549D01*
X0317028Y0456888D01*
X0316233D01*
X0315663Y0456652D01*
X0315163Y0456902D01*
Y0459492D01*
X0315306Y0459838D01*
Y0460634D01*
X0315002Y0461369D01*
X0314439Y0461932D01*
X0313704Y0462236D01*
X0312908D01*
X0312615Y0462115D01*
X0312200Y0462393D01*
Y0464334D01*
X0312343Y0464680D01*
Y0465476D01*
X0312039Y0466211D01*
X0311476Y0466774D01*
X0310741Y0467078D01*
D02*
G37*
G36*
X0533215Y0446186D02*
X0532419D01*
X0531896Y0445970D01*
X0475757D01*
X0475238Y0446185D01*
X0474442D01*
X0473707Y0445880D01*
X0473145Y0445318D01*
X0472840Y0444583D01*
Y0443787D01*
X0473145Y0443052D01*
X0473707Y0442489D01*
X0474442Y0442185D01*
X0475238D01*
X0475761Y0442401D01*
X0531900D01*
X0532419Y0442186D01*
X0533215D01*
X0533950Y0442491D01*
X0534513Y0443053D01*
X0534817Y0443789D01*
Y0444584D01*
X0534513Y0445319D01*
X0533950Y0445882D01*
X0533215Y0446186D01*
D02*
G37*
G36*
X0503213Y0404753D02*
X0502417D01*
X0501682Y0404448D01*
X0501119Y0403886D01*
X0500815Y0403151D01*
Y0402355D01*
X0501031Y0401834D01*
Y0396071D01*
X0500894Y0395740D01*
Y0394945D01*
X0501198Y0394210D01*
X0501761Y0393647D01*
X0502496Y0393342D01*
X0503292D01*
X0504027Y0393647D01*
X0504589Y0394210D01*
X0504894Y0394945D01*
Y0395740D01*
X0504599Y0396451D01*
Y0401834D01*
X0504815Y0402355D01*
Y0403151D01*
X0504510Y0403886D01*
X0503948Y0404448D01*
X0503213Y0404753D01*
D02*
G37*
G36*
X0465398Y0431500D02*
X0464602D01*
X0463867Y0431195D01*
X0463305Y0430633D01*
X0463000Y0429898D01*
Y0429102D01*
X0463216Y0428581D01*
Y0403639D01*
X0457243Y0397666D01*
X0456722Y0397450D01*
X0456159Y0396888D01*
X0455855Y0396152D01*
Y0395357D01*
X0456159Y0394622D01*
X0456722Y0394059D01*
X0457457Y0393755D01*
X0458252D01*
X0458988Y0394059D01*
X0459550Y0394622D01*
X0459766Y0395143D01*
X0465554Y0400930D01*
X0466016Y0400739D01*
Y0398939D01*
X0462818Y0395741D01*
X0462297Y0395526D01*
X0461735Y0394963D01*
X0461430Y0394228D01*
Y0393432D01*
X0461735Y0392697D01*
X0462297Y0392135D01*
X0463032Y0391830D01*
X0463828D01*
X0464563Y0392135D01*
X0465126Y0392697D01*
X0465341Y0393218D01*
X0469062Y0396938D01*
X0469062Y0396938D01*
X0469449Y0397517D01*
X0469584Y0398200D01*
X0469584Y0398200D01*
Y0425381D01*
X0469800Y0425902D01*
Y0426698D01*
X0469495Y0427433D01*
X0468933Y0427995D01*
X0468198Y0428300D01*
X0467402D01*
X0467200Y0428216D01*
X0466842Y0428456D01*
X0466786Y0428586D01*
X0467000Y0429102D01*
Y0429898D01*
X0466695Y0430633D01*
X0466133Y0431195D01*
X0465398Y0431500D01*
D02*
G37*
G36*
X0498843Y0409547D02*
X0498047D01*
X0497312Y0409243D01*
X0496749Y0408680D01*
X0496445Y0407945D01*
Y0407149D01*
X0496708Y0406513D01*
Y0393433D01*
X0496540Y0393028D01*
Y0392232D01*
X0496845Y0391497D01*
X0497407Y0390935D01*
X0498142Y0390630D01*
X0498938D01*
X0499673Y0390935D01*
X0500236Y0391497D01*
X0500540Y0392232D01*
Y0393028D01*
X0500277Y0393664D01*
Y0406744D01*
X0500445Y0407149D01*
Y0407945D01*
X0500140Y0408680D01*
X0499578Y0409243D01*
X0498843Y0409547D01*
D02*
G37*
G36*
X0318408Y0295404D02*
X0300408D01*
Y0283403D01*
X0318408D01*
Y0295404D01*
D02*
G37*
G36*
X0335408Y0288404D02*
X0329908D01*
Y0279904D01*
X0335408D01*
Y0288404D01*
D02*
G37*
G36*
X0328908D02*
X0323408D01*
Y0279904D01*
X0328908D01*
Y0288404D01*
D02*
G37*
G36*
X0335408Y0278904D02*
X0329908D01*
Y0270404D01*
X0335408D01*
Y0278904D01*
D02*
G37*
G36*
X0328908D02*
X0323408D01*
Y0270404D01*
X0328908D01*
Y0278904D01*
D02*
G37*
G36*
X0545361Y0280985D02*
X0535487D01*
Y0269143D01*
X0545361D01*
Y0280985D01*
D02*
G37*
G36*
X0525361D02*
X0515487D01*
Y0269143D01*
X0525361D01*
Y0280985D01*
D02*
G37*
G36*
X0505311D02*
X0495437D01*
Y0269143D01*
X0505311D01*
Y0280985D01*
D02*
G37*
G36*
X0479248D02*
X0469374D01*
Y0269143D01*
X0479248D01*
Y0280985D01*
D02*
G37*
G36*
X0459248D02*
X0449374D01*
Y0269143D01*
X0459248D01*
Y0280985D01*
D02*
G37*
G36*
X0439198D02*
X0429324D01*
Y0269143D01*
X0439198D01*
Y0280985D01*
D02*
G37*
G36*
X0318408Y0270404D02*
X0309908D01*
Y0264903D01*
X0318408D01*
Y0270404D01*
D02*
G37*
G36*
X0308908D02*
X0300408D01*
Y0264903D01*
X0308908D01*
Y0270404D01*
D02*
G37*
G36*
X0318408Y0263903D02*
X0309908D01*
Y0258403D01*
X0318408D01*
Y0263903D01*
D02*
G37*
G36*
X0308908D02*
X0300408D01*
Y0258403D01*
X0308908D01*
Y0263903D01*
D02*
G37*
%LPD*%
D17*
X0463430Y0393830D02*
X0467800Y0398200D01*
Y0426300D01*
X0457855Y0395755D02*
X0465000Y0402900D01*
Y0429500D01*
X0481200Y0510300D02*
X0542100D01*
X0310416Y0452142D02*
X0313337Y0449220D01*
X0310416Y0452142D02*
Y0465006D01*
X0313306Y0460236D02*
X0313378Y0460164D01*
Y0453173D02*
Y0460164D01*
Y0453173D02*
X0314510Y0452041D01*
X0316631Y0454888D02*
X0430063D01*
X0430160Y0454791D01*
X0430295D01*
X0313337Y0449220D02*
X0430494D01*
X0314510Y0452041D02*
X0432652D01*
X0432657Y0452035D01*
X0474841Y0444186D02*
X0532816D01*
X0474840Y0444185D02*
X0474841Y0444186D01*
X0532816D02*
X0532817Y0444186D01*
X0491841Y0461149D02*
X0491976D01*
X0456168Y0461362D02*
X0491628D01*
X0491841Y0461149D01*
X0453020Y0458444D02*
X0489067D01*
X0481562Y0477775D02*
Y0490919D01*
X0481562Y0477775D02*
X0481562Y0477775D01*
X0478945Y0493535D02*
X0481562Y0490919D01*
X0481562Y0466859D02*
Y0477775D01*
X0498492Y0392678D02*
X0498540Y0392630D01*
X0498445Y0407412D02*
X0498492Y0407364D01*
Y0392678D02*
Y0407364D01*
X0502815Y0395421D02*
X0502894Y0395342D01*
X0502815Y0395421D02*
Y0402753D01*
D72*
X0492815Y0548886D02*
D03*
X0502815D02*
D03*
X0512815D02*
D03*
X0522815D02*
D03*
X0532815D02*
D03*
D73*
X0542815D02*
D03*
D74*
X0325571Y0537075D02*
D03*
X0305571D02*
D03*
X0500374Y0275064D02*
D03*
X0540424D02*
D03*
X0520424D02*
D03*
X0434261D02*
D03*
X0474311D02*
D03*
X0454311D02*
D03*
D75*
X0329408Y0279403D02*
D03*
D76*
X0309408Y0264404D02*
D03*
Y0289404D02*
D03*
D77*
X0256500Y0564020D02*
D03*
X0592673D02*
D03*
Y0249500D02*
D03*
X0256500D02*
D03*
D78*
X0549480Y0488690D02*
D03*
X0549500Y0458750D02*
D03*
D79*
X0463430Y0393830D02*
D03*
X0471527Y0420250D02*
D03*
X0467800Y0426300D02*
D03*
X0457855Y0395755D02*
D03*
X0465000Y0429500D02*
D03*
X0542100Y0510300D02*
D03*
X0481200D02*
D03*
X0432871Y0400155D02*
D03*
X0432400Y0437600D02*
D03*
X0470100Y0455195D02*
D03*
X0487100Y0420146D02*
D03*
X0557200Y0444300D02*
D03*
X0556900Y0437100D02*
D03*
X0557042Y0440742D02*
D03*
X0342200Y0466900D02*
D03*
X0332600Y0460300D02*
D03*
X0542300Y0335200D02*
D03*
X0508000Y0335803D02*
D03*
X0473400Y0335500D02*
D03*
X0438917Y0335317D02*
D03*
X0310343Y0465078D02*
D03*
X0313306Y0460236D02*
D03*
X0316631Y0454888D02*
D03*
X0430494Y0449220D02*
D03*
X0432657Y0452035D02*
D03*
X0430295Y0454791D02*
D03*
X0532817Y0444186D02*
D03*
X0474840Y0444185D02*
D03*
X0423802Y0493721D02*
D03*
X0491976Y0461149D02*
D03*
X0489067Y0458444D02*
D03*
X0453020D02*
D03*
X0456168Y0461362D02*
D03*
X0471383Y0473667D02*
D03*
X0481562Y0466859D02*
D03*
X0498540Y0392630D02*
D03*
X0502894Y0395342D02*
D03*
X0502815Y0402753D02*
D03*
X0498445Y0407547D02*
D03*
X0293544Y0509632D02*
D03*
X0289578Y0509636D02*
D03*
X0289753Y0499799D02*
D03*
X0293518Y0499915D02*
D03*
X0285336Y0499838D02*
D03*
X0285260Y0509566D02*
D03*
X0336815D02*
D03*
X0336891Y0499838D02*
D03*
X0345073Y0499915D02*
D03*
X0341308Y0499799D02*
D03*
X0341133Y0509636D02*
D03*
X0345099Y0509632D02*
D03*
X0478945Y0493535D02*
D03*
X0419272Y0248098D02*
D03*
X0312972Y0349673D02*
D03*
X0320847D02*
D03*
X0316910D02*
D03*
Y0357547D02*
D03*
X0320847D02*
D03*
X0312972D02*
D03*
X0263366Y0322508D02*
D03*
Y0318177D02*
D03*
Y0313059D02*
D03*
Y0308728D02*
D03*
X0272815D02*
D03*
Y0313059D02*
D03*
Y0318177D02*
D03*
X0266910Y0333925D02*
D03*
X0272815Y0322508D02*
D03*
X0335807Y0376051D02*
D03*
X0283272Y0346917D02*
D03*
X0280909D02*
D03*
Y0333925D02*
D03*
X0283272D02*
D03*
X0269272D02*
D03*
X0266910Y0346917D02*
D03*
X0269272D02*
D03*
X0282854Y0376248D02*
D03*
Y0381169D02*
D03*
Y0387075D02*
D03*
X0268091Y0376248D02*
D03*
Y0381169D02*
D03*
Y0387075D02*
D03*
X0275965Y0376248D02*
D03*
Y0381169D02*
D03*
Y0387075D02*
D03*
X0252343Y0376248D02*
D03*
Y0381169D02*
D03*
Y0387075D02*
D03*
X0260216Y0376248D02*
D03*
Y0381169D02*
D03*
Y0387075D02*
D03*
X0305492Y0375264D02*
D03*
X0299587D02*
D03*
X0294665D02*
D03*
X0305492Y0383138D02*
D03*
X0299587D02*
D03*
X0294665D02*
D03*
M02*
