G04*
G04 #@! TF.GenerationSoftware,Altium Limited,Altium Designer,21.9.2 (33)*
G04*
G04 Layer_Color=32768*
%FSAX25Y25*%
%MOIN*%
G70*
G04*
G04 #@! TF.SameCoordinates,203294B4-0F2B-408B-82F0-FBCEC716028D*
G04*
G04*
G04 #@! TF.FilePolarity,Positive*
G04*
G01*
G75*
%ADD80C,0.00394*%
%ADD83C,0.00197*%
D80*
X0352532Y0297300D02*
X0356469D01*
X0354500Y0295332D02*
Y0299269D01*
X0455689Y0397902D02*
Y0439240D01*
X0497028Y0397902D02*
Y0439240D01*
X0455689D02*
X0497028D01*
X0455689Y0397902D02*
X0497028D01*
X0474390Y0418571D02*
X0478327D01*
X0476358Y0416602D02*
Y0420539D01*
X0354500Y0285432D02*
Y0289369D01*
X0352532Y0287400D02*
X0356469D01*
X0316122Y0465815D02*
Y0469752D01*
X0314154Y0467783D02*
X0318091D01*
X0307067Y0353610D02*
X0311004D01*
X0309035Y0351642D02*
Y0355579D01*
D83*
X0348004Y0293757D02*
Y0300843D01*
X0360996Y0293757D02*
Y0300843D01*
X0348004D02*
X0360996D01*
X0348004Y0293757D02*
X0360996D01*
X0348004Y0283857D02*
X0360996D01*
X0348004Y0290943D02*
X0360996D01*
Y0283857D02*
Y0290943D01*
X0348004Y0283857D02*
Y0290943D01*
X0284154Y0496671D02*
X0312146D01*
X0284154D02*
Y0512911D01*
X0312146D01*
Y0496671D02*
Y0512911D01*
X0318661D02*
X0346654D01*
Y0496671D02*
Y0512911D01*
X0318661Y0496671D02*
X0346654D01*
X0318661D02*
Y0512911D01*
X0300622Y0456563D02*
X0331622D01*
X0300622Y0479004D02*
X0331622D01*
Y0456563D02*
Y0479004D01*
X0300622Y0456563D02*
Y0479004D01*
X0528409Y0311164D02*
Y0344038D01*
X0546520D01*
Y0311164D02*
Y0344038D01*
X0528409Y0311164D02*
X0546520D01*
X0493894D02*
Y0344038D01*
X0512004D01*
Y0311164D02*
Y0344038D01*
X0493894Y0311164D02*
X0512004D01*
X0459378D02*
Y0344038D01*
X0477488D01*
Y0311164D02*
Y0344038D01*
X0459378Y0311164D02*
X0477488D01*
X0424862D02*
Y0344038D01*
X0442973D01*
Y0311164D02*
Y0344038D01*
X0424862Y0311164D02*
X0442973D01*
X0323035Y0346721D02*
Y0360500D01*
X0295035Y0346721D02*
Y0360500D01*
Y0346721D02*
X0323035D01*
X0295035Y0360500D02*
X0323035D01*
M02*
