M48
;Layer_Color=9474304
;FILE_FORMAT=2:5
INCH
;TYPE=PLATED
T1F00S00C0.01200
T2F00S00C0.04000
T3F00S00C0.05000
T4F00S00C0.05512
T6F00S00C0.15748
%
T01
X0419272Y0248098
X0272815Y0308728
X0263366
Y0313059
Y0318177
Y0322508
X0272815
Y0318177
Y0313059
X0269272Y0333925
X0266910
Y0346917
X0269272
X0280909
X0283272
Y0333925
X0280909
X0282854Y0376248
Y0381169
Y0387075
X0275965
Y0381169
Y0376248
X0268091
Y0381169
Y0387075
X0260216
Y0381169
Y0376248
X0252343
Y0381169
Y0387075
X0294665Y0383138
X0299587
X0305492
Y0375264
X0299587
X0294665
X0310343Y0465078
X0313306Y0460236
X0316631Y0454888
X0332600Y0460300
X0342200Y0466900
X0335807Y0376051
X0320847Y0357547
X0316910
X0312972
Y0349673
X0316910
X0320847
X0438917Y0335317
X0432871Y0400155
X0457855Y0395755
X0463430Y0393830
X0467800Y0426300
X0465000Y0429500
X0456168Y0461362
X0453020Y0458444
X0430295Y0454791
X0432657Y0452035
X0430494Y0449220
X0432400Y0437600
X0474840Y0444185
X0470100Y0455195
X0489067Y0458444
X0491976Y0461149
X0481562Y0466859
X0487100Y0420146
X0471527Y0420250
X0498445Y0407547
X0502815Y0402753
X0502894Y0395342
X0498540Y0392630
X0508000Y0335803
X0542300Y0335200
X0473400Y0335500
X0532817Y0444186
X0557200Y0444300
X0557042Y0440742
X0556900Y0437100
X0542100Y0510300
X0481200
X0478945Y0493535
X0471383Y0473667
X0423802Y0493721
X0345073Y0499915
X0341308Y0499799
X0336891Y0499838
X0336815Y0509566
X0341133Y0509636
X0345099Y0509632
X0293544
X0289578Y0509636
X0285260Y0509566
X0285336Y0499838
X0289753Y0499799
X0293518Y0499915
T02
X0492815Y0548886
X0502815
X0512815
X0522815
X0532815
X0542815
T03
X0549500Y0458750
X0549480Y0488690
T04
X0474311Y0275064
X0500374
X0520424
X0540424
X0454311
X0434261
X0325571Y0537075
X0305571
T06
X0592673Y0249500
X0256500
X0592673Y0564020
X0256500
M30
