G04*
G04 #@! TF.GenerationSoftware,Altium Limited,Altium Designer,21.9.2 (33)*
G04*
G04 Layer_Color=8421504*
%FSAX25Y25*%
%MOIN*%
G70*
G04*
G04 #@! TF.SameCoordinates,203294B4-0F2B-408B-82F0-FBCEC716028D*
G04*
G04*
G04 #@! TF.FilePolarity,Positive*
G04*
G01*
G75*
%ADD18R,0.05118X0.05118*%
%ADD19R,0.09843X0.09843*%
%ADD20O,0.06496X0.01900*%
%ADD21O,0.01900X0.06496*%
%ADD22R,0.05512X0.04724*%
%ADD23R,0.08976X0.08346*%
%ADD24R,0.03937X0.05500*%
%ADD25O,0.07087X0.02362*%
%ADD26R,0.04724X0.05512*%
%ADD27R,0.10000X0.07000*%
G04:AMPARAMS|DCode=28|XSize=77.17mil|YSize=22.44mil|CornerRadius=5.5mil|HoleSize=0mil|Usage=FLASHONLY|Rotation=180.000|XOffset=0mil|YOffset=0mil|HoleType=Round|Shape=RoundedRectangle|*
%AMROUNDEDRECTD28*
21,1,0.07717,0.01145,0,0,180.0*
21,1,0.06617,0.02244,0,0,180.0*
1,1,0.01100,-0.03309,0.00572*
1,1,0.01100,0.03309,0.00572*
1,1,0.01100,0.03309,-0.00572*
1,1,0.01100,-0.03309,-0.00572*
%
%ADD28ROUNDEDRECTD28*%
%ADD29R,0.05000X0.05500*%
%ADD30R,0.05906X0.06299*%
%ADD31R,0.02362X0.05906*%
%ADD32R,0.09843X0.06693*%
%ADD33R,0.03937X0.12000*%
%ADD34R,0.39370X0.27559*%
%ADD35R,0.06693X0.07874*%
%ADD36R,0.15748X0.07874*%
%ADD37R,0.07874X0.16142*%
D18*
X0350760Y0297300D02*
D03*
X0358240D02*
D03*
Y0287400D02*
D03*
X0350760D02*
D03*
D19*
X0549500Y0508458D02*
D03*
Y0440742D02*
D03*
D20*
X0459823Y0429595D02*
D03*
Y0426445D02*
D03*
Y0423295D02*
D03*
Y0420146D02*
D03*
Y0416996D02*
D03*
Y0413846D02*
D03*
Y0410697D02*
D03*
Y0407547D02*
D03*
X0492894D02*
D03*
Y0410697D02*
D03*
Y0413846D02*
D03*
Y0416996D02*
D03*
Y0420146D02*
D03*
Y0423295D02*
D03*
Y0426445D02*
D03*
Y0429595D02*
D03*
D21*
X0465335Y0402035D02*
D03*
X0468484D02*
D03*
X0471634D02*
D03*
X0474784D02*
D03*
X0477933D02*
D03*
X0481083D02*
D03*
X0484232D02*
D03*
X0487382D02*
D03*
Y0435106D02*
D03*
X0484232D02*
D03*
X0481083D02*
D03*
X0477933D02*
D03*
X0474784D02*
D03*
X0471634D02*
D03*
X0468484D02*
D03*
X0465335D02*
D03*
D22*
X0339364Y0383352D02*
D03*
Y0375872D02*
D03*
X0337368Y0467176D02*
D03*
Y0474656D02*
D03*
X0474797Y0456187D02*
D03*
Y0448706D02*
D03*
D23*
X0289626Y0504791D02*
D03*
X0306673D02*
D03*
X0341181D02*
D03*
X0324134D02*
D03*
D24*
X0311228Y0488650D02*
D03*
X0320229D02*
D03*
X0457292Y0548098D02*
D03*
X0466292D02*
D03*
X0432039Y0476445D02*
D03*
X0423039D02*
D03*
X0478945Y0487862D02*
D03*
X0487945D02*
D03*
X0478945Y0474476D02*
D03*
X0487945D02*
D03*
X0391200Y0248200D02*
D03*
X0382200D02*
D03*
D25*
X0327244Y0460284D02*
D03*
Y0465283D02*
D03*
Y0470284D02*
D03*
Y0475283D02*
D03*
X0305000Y0460284D02*
D03*
Y0465283D02*
D03*
Y0470284D02*
D03*
Y0475283D02*
D03*
D26*
X0437561Y0400080D02*
D03*
X0445042D02*
D03*
X0437168Y0437482D02*
D03*
X0444648D02*
D03*
X0423782Y0488663D02*
D03*
X0431262D02*
D03*
D27*
X0441319Y0410071D02*
D03*
Y0427071D02*
D03*
D28*
X0446161Y0488669D02*
D03*
Y0483669D02*
D03*
Y0478669D02*
D03*
Y0473669D02*
D03*
X0465610D02*
D03*
Y0478669D02*
D03*
Y0483669D02*
D03*
Y0488669D02*
D03*
D29*
X0405154Y0248098D02*
D03*
X0414153D02*
D03*
D30*
X0543681Y0302429D02*
D03*
X0531870D02*
D03*
X0509167D02*
D03*
X0497356D02*
D03*
X0474652D02*
D03*
X0462841D02*
D03*
X0440138D02*
D03*
X0428327D02*
D03*
D31*
X0542465Y0340101D02*
D03*
X0532465D02*
D03*
Y0315101D02*
D03*
X0542465D02*
D03*
X0507949Y0340101D02*
D03*
X0497949D02*
D03*
Y0315101D02*
D03*
X0507949D02*
D03*
X0473433Y0340101D02*
D03*
X0463433D02*
D03*
Y0315101D02*
D03*
X0473433D02*
D03*
X0438917Y0340101D02*
D03*
X0428917D02*
D03*
Y0315101D02*
D03*
X0438917D02*
D03*
D32*
X0316910Y0353610D02*
D03*
X0301161D02*
D03*
D33*
X0254090Y0340453D02*
D03*
X0261090D02*
D03*
X0268091D02*
D03*
X0275091D02*
D03*
X0282090D02*
D03*
D34*
X0267590Y0386453D02*
D03*
D35*
X0309429Y0339831D02*
D03*
Y0316209D02*
D03*
D36*
X0322815Y0379201D02*
D03*
X0299980D02*
D03*
D37*
X0268091Y0315618D02*
D03*
Y0281366D02*
D03*
M02*
