G04*
G04 #@! TF.GenerationSoftware,Altium Limited,Altium Designer,21.9.2 (33)*
G04*
G04 Layer_Color=2752767*
%FSAX25Y25*%
%MOIN*%
G70*
G04*
G04 #@! TF.SameCoordinates,203294B4-0F2B-408B-82F0-FBCEC716028D*
G04*
G04*
G04 #@! TF.FilePolarity,Positive*
G04*
G01*
G75*
%ADD84C,0.00200*%
%ADD85C,0.00267*%
D84*
X0492015Y0548086D02*
Y0549686D01*
X0493615D01*
Y0548086D01*
X0492015D01*
X0502015D02*
Y0549686D01*
X0503615D01*
Y0548086D01*
X0502015D01*
X0512015D02*
Y0549686D01*
X0513615D01*
Y0548086D01*
X0512015D01*
X0522015D02*
Y0549686D01*
X0523615D01*
Y0548086D01*
X0522015D01*
X0532015D02*
Y0549686D01*
X0533615D01*
Y0548086D01*
X0532015D01*
X0542015D02*
Y0549686D01*
X0543615D01*
Y0548086D01*
X0542015D01*
X0329408Y0278604D02*
X0328608Y0280204D01*
X0330208D01*
X0329408Y0278604D01*
X0309408Y0263603D02*
X0308608Y0265203D01*
X0310208D01*
X0309408Y0263603D01*
Y0288603D02*
X0308608Y0290203D01*
X0310208D01*
X0309408Y0288603D01*
X0256500Y0563220D02*
X0256900Y0563620D01*
X0257300D01*
X0256900Y0564020D01*
X0257300Y0564420D01*
X0256900D01*
X0256500Y0564820D01*
X0256100Y0564420D01*
X0255700D01*
X0256100Y0564020D01*
X0255700Y0563620D01*
X0256100D01*
X0256500Y0563220D01*
X0592673D02*
X0593073Y0563620D01*
X0593473D01*
X0593073Y0564020D01*
X0593473Y0564420D01*
X0593073D01*
X0592673Y0564820D01*
X0592273Y0564420D01*
X0591873D01*
X0592273Y0564020D01*
X0591873Y0563620D01*
X0592273D01*
X0592673Y0563220D01*
Y0248700D02*
X0593073Y0249100D01*
X0593473D01*
X0593073Y0249500D01*
X0593473Y0249900D01*
X0593073D01*
X0592673Y0250300D01*
X0592273Y0249900D01*
X0591873D01*
X0592273Y0249500D01*
X0591873Y0249100D01*
X0592273D01*
X0592673Y0248700D01*
X0256500D02*
X0256900Y0249100D01*
X0257300D01*
X0256900Y0249500D01*
X0257300Y0249900D01*
X0256900D01*
X0256500Y0250300D01*
X0256100Y0249900D01*
X0255700D01*
X0256100Y0249500D01*
X0255700Y0249100D01*
X0256100D01*
X0256500Y0248700D01*
X0548680Y0487890D02*
X0549080Y0488690D01*
X0548680Y0489490D01*
X0549480Y0489090D01*
X0550280Y0489490D01*
X0549880Y0488690D01*
X0550280Y0487890D01*
X0549480Y0488290D01*
X0548680Y0487890D01*
X0548700Y0457950D02*
X0549100Y0458750D01*
X0548700Y0459550D01*
X0549500Y0459150D01*
X0550300Y0459550D01*
X0549900Y0458750D01*
X0550300Y0457950D01*
X0549500Y0458350D01*
X0548700Y0457950D01*
X0463030Y0393430D02*
Y0393030D01*
X0463830D01*
Y0393430D01*
X0464230D01*
Y0394230D01*
X0463830D01*
Y0394630D01*
X0463030D01*
Y0394230D01*
X0462630D01*
Y0393430D01*
X0463030D01*
X0471127Y0419850D02*
Y0419450D01*
X0471927D01*
Y0419850D01*
X0472327D01*
Y0420650D01*
X0471927D01*
Y0421050D01*
X0471127D01*
Y0420650D01*
X0470727D01*
Y0419850D01*
X0471127D01*
X0467400Y0425900D02*
Y0425500D01*
X0468200D01*
Y0425900D01*
X0468600D01*
Y0426700D01*
X0468200D01*
Y0427100D01*
X0467400D01*
Y0426700D01*
X0467000D01*
Y0425900D01*
X0467400D01*
X0457455Y0395355D02*
Y0394955D01*
X0458255D01*
Y0395355D01*
X0458655D01*
Y0396155D01*
X0458255D01*
Y0396555D01*
X0457455D01*
Y0396155D01*
X0457055D01*
Y0395355D01*
X0457455D01*
X0464600Y0429100D02*
Y0428700D01*
X0465400D01*
Y0429100D01*
X0465800D01*
Y0429900D01*
X0465400D01*
Y0430300D01*
X0464600D01*
Y0429900D01*
X0464200D01*
Y0429100D01*
X0464600D01*
X0541700Y0509900D02*
Y0509500D01*
X0542500D01*
Y0509900D01*
X0542900D01*
Y0510700D01*
X0542500D01*
Y0511100D01*
X0541700D01*
Y0510700D01*
X0541300D01*
Y0509900D01*
X0541700D01*
X0480800D02*
Y0509500D01*
X0481600D01*
Y0509900D01*
X0482000D01*
Y0510700D01*
X0481600D01*
Y0511100D01*
X0480800D01*
Y0510700D01*
X0480400D01*
Y0509900D01*
X0480800D01*
X0432471Y0399755D02*
Y0399355D01*
X0433271D01*
Y0399755D01*
X0433671D01*
Y0400555D01*
X0433271D01*
Y0400955D01*
X0432471D01*
Y0400555D01*
X0432071D01*
Y0399755D01*
X0432471D01*
X0432000Y0437200D02*
Y0436800D01*
X0432800D01*
Y0437200D01*
X0433200D01*
Y0438000D01*
X0432800D01*
Y0438400D01*
X0432000D01*
Y0438000D01*
X0431600D01*
Y0437200D01*
X0432000D01*
X0469700Y0454795D02*
Y0454394D01*
X0470500D01*
Y0454795D01*
X0470900D01*
Y0455594D01*
X0470500D01*
Y0455995D01*
X0469700D01*
Y0455594D01*
X0469300D01*
Y0454795D01*
X0469700D01*
X0486700Y0419746D02*
Y0419346D01*
X0487500D01*
Y0419746D01*
X0487900D01*
Y0420546D01*
X0487500D01*
Y0420946D01*
X0486700D01*
Y0420546D01*
X0486300D01*
Y0419746D01*
X0486700D01*
X0556800Y0443900D02*
Y0443500D01*
X0557600D01*
Y0443900D01*
X0558000D01*
Y0444700D01*
X0557600D01*
Y0445100D01*
X0556800D01*
Y0444700D01*
X0556400D01*
Y0443900D01*
X0556800D01*
X0556500Y0436700D02*
Y0436300D01*
X0557300D01*
Y0436700D01*
X0557700D01*
Y0437500D01*
X0557300D01*
Y0437900D01*
X0556500D01*
Y0437500D01*
X0556100D01*
Y0436700D01*
X0556500D01*
X0556642Y0440342D02*
Y0439942D01*
X0557442D01*
Y0440342D01*
X0557842D01*
Y0441142D01*
X0557442D01*
Y0441542D01*
X0556642D01*
Y0441142D01*
X0556242D01*
Y0440342D01*
X0556642D01*
X0341800Y0466500D02*
Y0466100D01*
X0342600D01*
Y0466500D01*
X0343000D01*
Y0467300D01*
X0342600D01*
Y0467700D01*
X0341800D01*
Y0467300D01*
X0341400D01*
Y0466500D01*
X0341800D01*
X0332200Y0459900D02*
Y0459500D01*
X0333000D01*
Y0459900D01*
X0333400D01*
Y0460700D01*
X0333000D01*
Y0461100D01*
X0332200D01*
Y0460700D01*
X0331800D01*
Y0459900D01*
X0332200D01*
X0541900Y0334800D02*
Y0334400D01*
X0542700D01*
Y0334800D01*
X0543100D01*
Y0335600D01*
X0542700D01*
Y0336000D01*
X0541900D01*
Y0335600D01*
X0541500D01*
Y0334800D01*
X0541900D01*
X0507600Y0335403D02*
Y0335003D01*
X0508400D01*
Y0335403D01*
X0508800D01*
Y0336203D01*
X0508400D01*
Y0336603D01*
X0507600D01*
Y0336203D01*
X0507200D01*
Y0335403D01*
X0507600D01*
X0473000Y0335100D02*
Y0334700D01*
X0473800D01*
Y0335100D01*
X0474200D01*
Y0335900D01*
X0473800D01*
Y0336300D01*
X0473000D01*
Y0335900D01*
X0472600D01*
Y0335100D01*
X0473000D01*
X0438517Y0334917D02*
Y0334517D01*
X0439317D01*
Y0334917D01*
X0439717D01*
Y0335717D01*
X0439317D01*
Y0336117D01*
X0438517D01*
Y0335717D01*
X0438117D01*
Y0334917D01*
X0438517D01*
X0309943Y0464678D02*
Y0464278D01*
X0310743D01*
Y0464678D01*
X0311143D01*
Y0465478D01*
X0310743D01*
Y0465878D01*
X0309943D01*
Y0465478D01*
X0309543D01*
Y0464678D01*
X0309943D01*
X0312906Y0459836D02*
Y0459436D01*
X0313706D01*
Y0459836D01*
X0314106D01*
Y0460636D01*
X0313706D01*
Y0461036D01*
X0312906D01*
Y0460636D01*
X0312506D01*
Y0459836D01*
X0312906D01*
X0316231Y0454488D02*
Y0454088D01*
X0317031D01*
Y0454488D01*
X0317430D01*
Y0455288D01*
X0317031D01*
Y0455688D01*
X0316231D01*
Y0455288D01*
X0315830D01*
Y0454488D01*
X0316231D01*
X0430094Y0448820D02*
Y0448420D01*
X0430894D01*
Y0448820D01*
X0431294D01*
Y0449620D01*
X0430894D01*
Y0450020D01*
X0430094D01*
Y0449620D01*
X0429694D01*
Y0448820D01*
X0430094D01*
X0432258Y0451635D02*
Y0451235D01*
X0433057D01*
Y0451635D01*
X0433458D01*
Y0452435D01*
X0433057D01*
Y0452835D01*
X0432258D01*
Y0452435D01*
X0431857D01*
Y0451635D01*
X0432258D01*
X0429895Y0454391D02*
Y0453991D01*
X0430695D01*
Y0454391D01*
X0431095D01*
Y0455191D01*
X0430695D01*
Y0455591D01*
X0429895D01*
Y0455191D01*
X0429495D01*
Y0454391D01*
X0429895D01*
X0532417Y0443786D02*
Y0443386D01*
X0533217D01*
Y0443786D01*
X0533617D01*
Y0444586D01*
X0533217D01*
Y0444986D01*
X0532417D01*
Y0444586D01*
X0532017D01*
Y0443786D01*
X0532417D01*
X0474440Y0443785D02*
Y0443385D01*
X0475240D01*
Y0443785D01*
X0475640D01*
Y0444585D01*
X0475240D01*
Y0444985D01*
X0474440D01*
Y0444585D01*
X0474040D01*
Y0443785D01*
X0474440D01*
X0423402Y0493321D02*
Y0492921D01*
X0424202D01*
Y0493321D01*
X0424602D01*
Y0494121D01*
X0424202D01*
Y0494521D01*
X0423402D01*
Y0494121D01*
X0423002D01*
Y0493321D01*
X0423402D01*
X0491576Y0460749D02*
Y0460349D01*
X0492376D01*
Y0460749D01*
X0492776D01*
Y0461549D01*
X0492376D01*
Y0461949D01*
X0491576D01*
Y0461549D01*
X0491176D01*
Y0460749D01*
X0491576D01*
X0488666Y0458044D02*
Y0457645D01*
X0489466D01*
Y0458044D01*
X0489866D01*
Y0458845D01*
X0489466D01*
Y0459244D01*
X0488666D01*
Y0458845D01*
X0488267D01*
Y0458044D01*
X0488666D01*
X0452620D02*
Y0457645D01*
X0453420D01*
Y0458044D01*
X0453820D01*
Y0458845D01*
X0453420D01*
Y0459244D01*
X0452620D01*
Y0458845D01*
X0452220D01*
Y0458044D01*
X0452620D01*
X0455768Y0460962D02*
Y0460562D01*
X0456568D01*
Y0460962D01*
X0456968D01*
Y0461762D01*
X0456568D01*
Y0462162D01*
X0455768D01*
Y0461762D01*
X0455368D01*
Y0460962D01*
X0455768D01*
X0470983Y0473267D02*
Y0472867D01*
X0471783D01*
Y0473267D01*
X0472183D01*
Y0474067D01*
X0471783D01*
Y0474467D01*
X0470983D01*
Y0474067D01*
X0470583D01*
Y0473267D01*
X0470983D01*
X0481162Y0466459D02*
Y0466059D01*
X0481962D01*
Y0466459D01*
X0482362D01*
Y0467259D01*
X0481962D01*
Y0467659D01*
X0481162D01*
Y0467259D01*
X0480762D01*
Y0466459D01*
X0481162D01*
X0498140Y0392230D02*
Y0391830D01*
X0498940D01*
Y0392230D01*
X0499340D01*
Y0393030D01*
X0498940D01*
Y0393430D01*
X0498140D01*
Y0393030D01*
X0497740D01*
Y0392230D01*
X0498140D01*
X0502494Y0394942D02*
Y0394543D01*
X0503294D01*
Y0394942D01*
X0503694D01*
Y0395743D01*
X0503294D01*
Y0396143D01*
X0502494D01*
Y0395743D01*
X0502094D01*
Y0394942D01*
X0502494D01*
X0502415Y0402353D02*
Y0401953D01*
X0503215D01*
Y0402353D01*
X0503615D01*
Y0403153D01*
X0503215D01*
Y0403553D01*
X0502415D01*
Y0403153D01*
X0502015D01*
Y0402353D01*
X0502415D01*
X0498045Y0407147D02*
Y0406747D01*
X0498845D01*
Y0407147D01*
X0499245D01*
Y0407947D01*
X0498845D01*
Y0408347D01*
X0498045D01*
Y0407947D01*
X0497645D01*
Y0407147D01*
X0498045D01*
X0293144Y0509232D02*
Y0508832D01*
X0293944D01*
Y0509232D01*
X0294344D01*
Y0510032D01*
X0293944D01*
Y0510432D01*
X0293144D01*
Y0510032D01*
X0292744D01*
Y0509232D01*
X0293144D01*
X0289178Y0509236D02*
Y0508836D01*
X0289978D01*
Y0509236D01*
X0290378D01*
Y0510036D01*
X0289978D01*
Y0510436D01*
X0289178D01*
Y0510036D01*
X0288778D01*
Y0509236D01*
X0289178D01*
X0289352Y0499399D02*
Y0498999D01*
X0290153D01*
Y0499399D01*
X0290552D01*
Y0500199D01*
X0290153D01*
Y0500599D01*
X0289352D01*
Y0500199D01*
X0288952D01*
Y0499399D01*
X0289352D01*
X0293118Y0499515D02*
Y0499115D01*
X0293918D01*
Y0499515D01*
X0294318D01*
Y0500315D01*
X0293918D01*
Y0500715D01*
X0293118D01*
Y0500315D01*
X0292718D01*
Y0499515D01*
X0293118D01*
X0284936Y0499438D02*
Y0499038D01*
X0285736D01*
Y0499438D01*
X0286136D01*
Y0500238D01*
X0285736D01*
Y0500638D01*
X0284936D01*
Y0500238D01*
X0284536D01*
Y0499438D01*
X0284936D01*
X0284859Y0509166D02*
Y0508766D01*
X0285660D01*
Y0509166D01*
X0286059D01*
Y0509966D01*
X0285660D01*
Y0510366D01*
X0284859D01*
Y0509966D01*
X0284459D01*
Y0509166D01*
X0284859D01*
X0336415D02*
Y0508766D01*
X0337215D01*
Y0509166D01*
X0337615D01*
Y0509966D01*
X0337215D01*
Y0510366D01*
X0336415D01*
Y0509966D01*
X0336015D01*
Y0509166D01*
X0336415D01*
X0336491Y0499438D02*
Y0499038D01*
X0337291D01*
Y0499438D01*
X0337691D01*
Y0500238D01*
X0337291D01*
Y0500638D01*
X0336491D01*
Y0500238D01*
X0336091D01*
Y0499438D01*
X0336491D01*
X0344673Y0499515D02*
Y0499115D01*
X0345473D01*
Y0499515D01*
X0345873D01*
Y0500315D01*
X0345473D01*
Y0500715D01*
X0344673D01*
Y0500315D01*
X0344273D01*
Y0499515D01*
X0344673D01*
X0340908Y0499399D02*
Y0498999D01*
X0341708D01*
Y0499399D01*
X0342108D01*
Y0500199D01*
X0341708D01*
Y0500599D01*
X0340908D01*
Y0500199D01*
X0340508D01*
Y0499399D01*
X0340908D01*
X0340733Y0509236D02*
Y0508836D01*
X0341533D01*
Y0509236D01*
X0341933D01*
Y0510036D01*
X0341533D01*
Y0510436D01*
X0340733D01*
Y0510036D01*
X0340333D01*
Y0509236D01*
X0340733D01*
X0344699Y0509232D02*
Y0508832D01*
X0345499D01*
Y0509232D01*
X0345899D01*
Y0510032D01*
X0345499D01*
Y0510432D01*
X0344699D01*
Y0510032D01*
X0344299D01*
Y0509232D01*
X0344699D01*
X0478545Y0493135D02*
Y0492735D01*
X0479345D01*
Y0493135D01*
X0479745D01*
Y0493935D01*
X0479345D01*
Y0494335D01*
X0478545D01*
Y0493935D01*
X0478145D01*
Y0493135D01*
X0478545D01*
X0418872Y0247698D02*
Y0247298D01*
X0419672D01*
Y0247698D01*
X0420072D01*
Y0248498D01*
X0419672D01*
Y0248898D01*
X0418872D01*
Y0248498D01*
X0418472D01*
Y0247698D01*
X0418872D01*
X0312572Y0349273D02*
Y0348873D01*
X0313372D01*
Y0349273D01*
X0313772D01*
Y0350073D01*
X0313372D01*
Y0350473D01*
X0312572D01*
Y0350073D01*
X0312172D01*
Y0349273D01*
X0312572D01*
X0320446D02*
Y0348873D01*
X0321247D01*
Y0349273D01*
X0321646D01*
Y0350073D01*
X0321247D01*
Y0350473D01*
X0320446D01*
Y0350073D01*
X0320046D01*
Y0349273D01*
X0320446D01*
X0316510D02*
Y0348873D01*
X0317309D01*
Y0349273D01*
X0317709D01*
Y0350073D01*
X0317309D01*
Y0350473D01*
X0316510D01*
Y0350073D01*
X0316109D01*
Y0349273D01*
X0316510D01*
Y0357147D02*
Y0356747D01*
X0317309D01*
Y0357147D01*
X0317709D01*
Y0357947D01*
X0317309D01*
Y0358347D01*
X0316510D01*
Y0357947D01*
X0316109D01*
Y0357147D01*
X0316510D01*
X0320446D02*
Y0356747D01*
X0321247D01*
Y0357147D01*
X0321646D01*
Y0357947D01*
X0321247D01*
Y0358347D01*
X0320446D01*
Y0357947D01*
X0320046D01*
Y0357147D01*
X0320446D01*
X0312572D02*
Y0356747D01*
X0313372D01*
Y0357147D01*
X0313772D01*
Y0357947D01*
X0313372D01*
Y0358347D01*
X0312572D01*
Y0357947D01*
X0312172D01*
Y0357147D01*
X0312572D01*
X0262966Y0322108D02*
Y0321708D01*
X0263766D01*
Y0322108D01*
X0264166D01*
Y0322908D01*
X0263766D01*
Y0323308D01*
X0262966D01*
Y0322908D01*
X0262566D01*
Y0322108D01*
X0262966D01*
Y0317777D02*
Y0317377D01*
X0263766D01*
Y0317777D01*
X0264166D01*
Y0318577D01*
X0263766D01*
Y0318977D01*
X0262966D01*
Y0318577D01*
X0262566D01*
Y0317777D01*
X0262966D01*
Y0312659D02*
Y0312259D01*
X0263766D01*
Y0312659D01*
X0264166D01*
Y0313459D01*
X0263766D01*
Y0313859D01*
X0262966D01*
Y0313459D01*
X0262566D01*
Y0312659D01*
X0262966D01*
Y0308328D02*
Y0307928D01*
X0263766D01*
Y0308328D01*
X0264166D01*
Y0309128D01*
X0263766D01*
Y0309528D01*
X0262966D01*
Y0309128D01*
X0262566D01*
Y0308328D01*
X0262966D01*
X0272415D02*
Y0307928D01*
X0273215D01*
Y0308328D01*
X0273615D01*
Y0309128D01*
X0273215D01*
Y0309528D01*
X0272415D01*
Y0309128D01*
X0272015D01*
Y0308328D01*
X0272415D01*
Y0312659D02*
Y0312259D01*
X0273215D01*
Y0312659D01*
X0273615D01*
Y0313459D01*
X0273215D01*
Y0313859D01*
X0272415D01*
Y0313459D01*
X0272015D01*
Y0312659D01*
X0272415D01*
Y0317777D02*
Y0317377D01*
X0273215D01*
Y0317777D01*
X0273615D01*
Y0318577D01*
X0273215D01*
Y0318977D01*
X0272415D01*
Y0318577D01*
X0272015D01*
Y0317777D01*
X0272415D01*
X0266510Y0333525D02*
Y0333125D01*
X0267309D01*
Y0333525D01*
X0267709D01*
Y0334325D01*
X0267309D01*
Y0334725D01*
X0266510D01*
Y0334325D01*
X0266109D01*
Y0333525D01*
X0266510D01*
X0272415Y0322108D02*
Y0321708D01*
X0273215D01*
Y0322108D01*
X0273615D01*
Y0322908D01*
X0273215D01*
Y0323308D01*
X0272415D01*
Y0322908D01*
X0272015D01*
Y0322108D01*
X0272415D01*
X0335407Y0375651D02*
Y0375251D01*
X0336207D01*
Y0375651D01*
X0336607D01*
Y0376451D01*
X0336207D01*
Y0376851D01*
X0335407D01*
Y0376451D01*
X0335007D01*
Y0375651D01*
X0335407D01*
X0282872Y0346517D02*
Y0346117D01*
X0283672D01*
Y0346517D01*
X0284072D01*
Y0347317D01*
X0283672D01*
Y0347717D01*
X0282872D01*
Y0347317D01*
X0282472D01*
Y0346517D01*
X0282872D01*
X0280509D02*
Y0346117D01*
X0281310D01*
Y0346517D01*
X0281710D01*
Y0347317D01*
X0281310D01*
Y0347717D01*
X0280509D01*
Y0347317D01*
X0280110D01*
Y0346517D01*
X0280509D01*
Y0333525D02*
Y0333125D01*
X0281310D01*
Y0333525D01*
X0281710D01*
Y0334325D01*
X0281310D01*
Y0334725D01*
X0280509D01*
Y0334325D01*
X0280110D01*
Y0333525D01*
X0280509D01*
X0282872D02*
Y0333125D01*
X0283672D01*
Y0333525D01*
X0284072D01*
Y0334325D01*
X0283672D01*
Y0334725D01*
X0282872D01*
Y0334325D01*
X0282472D01*
Y0333525D01*
X0282872D01*
X0268872D02*
Y0333125D01*
X0269672D01*
Y0333525D01*
X0270072D01*
Y0334325D01*
X0269672D01*
Y0334725D01*
X0268872D01*
Y0334325D01*
X0268472D01*
Y0333525D01*
X0268872D01*
X0266510Y0346517D02*
Y0346117D01*
X0267309D01*
Y0346517D01*
X0267709D01*
Y0347317D01*
X0267309D01*
Y0347717D01*
X0266510D01*
Y0347317D01*
X0266109D01*
Y0346517D01*
X0266510D01*
X0268872D02*
Y0346117D01*
X0269672D01*
Y0346517D01*
X0270072D01*
Y0347317D01*
X0269672D01*
Y0347717D01*
X0268872D01*
Y0347317D01*
X0268472D01*
Y0346517D01*
X0268872D01*
X0282454Y0375848D02*
Y0375448D01*
X0283254D01*
Y0375848D01*
X0283654D01*
Y0376648D01*
X0283254D01*
Y0377048D01*
X0282454D01*
Y0376648D01*
X0282054D01*
Y0375848D01*
X0282454D01*
Y0380769D02*
Y0380369D01*
X0283254D01*
Y0380769D01*
X0283654D01*
Y0381569D01*
X0283254D01*
Y0381969D01*
X0282454D01*
Y0381569D01*
X0282054D01*
Y0380769D01*
X0282454D01*
Y0386675D02*
Y0386275D01*
X0283254D01*
Y0386675D01*
X0283654D01*
Y0387475D01*
X0283254D01*
Y0387875D01*
X0282454D01*
Y0387475D01*
X0282054D01*
Y0386675D01*
X0282454D01*
X0267690Y0375848D02*
Y0375448D01*
X0268491D01*
Y0375848D01*
X0268891D01*
Y0376648D01*
X0268491D01*
Y0377048D01*
X0267690D01*
Y0376648D01*
X0267290D01*
Y0375848D01*
X0267690D01*
Y0380769D02*
Y0380369D01*
X0268491D01*
Y0380769D01*
X0268891D01*
Y0381569D01*
X0268491D01*
Y0381969D01*
X0267690D01*
Y0381569D01*
X0267290D01*
Y0380769D01*
X0267690D01*
Y0386675D02*
Y0386275D01*
X0268491D01*
Y0386675D01*
X0268891D01*
Y0387475D01*
X0268491D01*
Y0387875D01*
X0267690D01*
Y0387475D01*
X0267290D01*
Y0386675D01*
X0267690D01*
X0275565Y0375848D02*
Y0375448D01*
X0276365D01*
Y0375848D01*
X0276765D01*
Y0376648D01*
X0276365D01*
Y0377048D01*
X0275565D01*
Y0376648D01*
X0275165D01*
Y0375848D01*
X0275565D01*
Y0380769D02*
Y0380369D01*
X0276365D01*
Y0380769D01*
X0276765D01*
Y0381569D01*
X0276365D01*
Y0381969D01*
X0275565D01*
Y0381569D01*
X0275165D01*
Y0380769D01*
X0275565D01*
Y0386675D02*
Y0386275D01*
X0276365D01*
Y0386675D01*
X0276765D01*
Y0387475D01*
X0276365D01*
Y0387875D01*
X0275565D01*
Y0387475D01*
X0275165D01*
Y0386675D01*
X0275565D01*
X0251942Y0375848D02*
Y0375448D01*
X0252743D01*
Y0375848D01*
X0253142D01*
Y0376648D01*
X0252743D01*
Y0377048D01*
X0251942D01*
Y0376648D01*
X0251542D01*
Y0375848D01*
X0251942D01*
Y0380769D02*
Y0380369D01*
X0252743D01*
Y0380769D01*
X0253142D01*
Y0381569D01*
X0252743D01*
Y0381969D01*
X0251942D01*
Y0381569D01*
X0251542D01*
Y0380769D01*
X0251942D01*
Y0386675D02*
Y0386275D01*
X0252743D01*
Y0386675D01*
X0253142D01*
Y0387475D01*
X0252743D01*
Y0387875D01*
X0251942D01*
Y0387475D01*
X0251542D01*
Y0386675D01*
X0251942D01*
X0259817Y0375848D02*
Y0375448D01*
X0260616D01*
Y0375848D01*
X0261017D01*
Y0376648D01*
X0260616D01*
Y0377048D01*
X0259817D01*
Y0376648D01*
X0259417D01*
Y0375848D01*
X0259817D01*
Y0380769D02*
Y0380369D01*
X0260616D01*
Y0380769D01*
X0261017D01*
Y0381569D01*
X0260616D01*
Y0381969D01*
X0259817D01*
Y0381569D01*
X0259417D01*
Y0380769D01*
X0259817D01*
Y0386675D02*
Y0386275D01*
X0260616D01*
Y0386675D01*
X0261017D01*
Y0387475D01*
X0260616D01*
Y0387875D01*
X0259817D01*
Y0387475D01*
X0259417D01*
Y0386675D01*
X0259817D01*
X0305092Y0374864D02*
Y0374464D01*
X0305892D01*
Y0374864D01*
X0306292D01*
Y0375664D01*
X0305892D01*
Y0376064D01*
X0305092D01*
Y0375664D01*
X0304692D01*
Y0374864D01*
X0305092D01*
X0299187D02*
Y0374464D01*
X0299987D01*
Y0374864D01*
X0300387D01*
Y0375664D01*
X0299987D01*
Y0376064D01*
X0299187D01*
Y0375664D01*
X0298787D01*
Y0374864D01*
X0299187D01*
X0294265D02*
Y0374464D01*
X0295065D01*
Y0374864D01*
X0295465D01*
Y0375664D01*
X0295065D01*
Y0376064D01*
X0294265D01*
Y0375664D01*
X0293865D01*
Y0374864D01*
X0294265D01*
X0305092Y0382738D02*
Y0382338D01*
X0305892D01*
Y0382738D01*
X0306292D01*
Y0383538D01*
X0305892D01*
Y0383938D01*
X0305092D01*
Y0383538D01*
X0304692D01*
Y0382738D01*
X0305092D01*
X0299187D02*
Y0382338D01*
X0299987D01*
Y0382738D01*
X0300387D01*
Y0383538D01*
X0299987D01*
Y0383938D01*
X0299187D01*
Y0383538D01*
X0298787D01*
Y0382738D01*
X0299187D01*
X0294265D02*
Y0382338D01*
X0295065D01*
Y0382738D01*
X0295465D01*
Y0383538D01*
X0295065D01*
Y0383938D01*
X0294265D01*
Y0383538D01*
X0293865D01*
Y0382738D01*
X0294265D01*
D85*
X0326371Y0537075D02*
G03*
X0326371Y0537075I-0000800J0000000D01*
G01*
X0306371D02*
G03*
X0306371Y0537075I-0000800J0000000D01*
G01*
X0501174Y0275064D02*
G03*
X0501174Y0275064I-0000800J0000000D01*
G01*
X0541224D02*
G03*
X0541224Y0275064I-0000800J0000000D01*
G01*
X0521224D02*
G03*
X0521224Y0275064I-0000800J0000000D01*
G01*
X0435061D02*
G03*
X0435061Y0275064I-0000800J0000000D01*
G01*
X0475111D02*
G03*
X0475111Y0275064I-0000800J0000000D01*
G01*
X0455111D02*
G03*
X0455111Y0275064I-0000800J0000000D01*
G01*
M02*
