G04*
G04 #@! TF.GenerationSoftware,Altium Limited,Altium Designer,21.9.2 (33)*
G04*
G04 Layer_Color=128*
%FSAX25Y25*%
%MOIN*%
G70*
G04*
G04 #@! TF.SameCoordinates,F5C87AF0-6DD1-454A-8E35-7E20B65E17A7*
G04*
G04*
G04 #@! TF.FilePolarity,Positive*
G04*
G01*
G75*
%ADD90C,0.00200*%
D90*
X0490815Y0548886D02*
X0494815D01*
X0492815Y0546886D02*
Y0550886D01*
X0500815Y0548886D02*
X0504815D01*
X0502815Y0546886D02*
Y0550886D01*
X0510815Y0548886D02*
X0514815D01*
X0512815Y0546886D02*
Y0550886D01*
X0520815Y0548886D02*
X0524815D01*
X0522815Y0546886D02*
Y0550886D01*
X0530815Y0548886D02*
X0534815D01*
X0532815Y0546886D02*
Y0550886D01*
X0540815Y0548886D02*
X0544815D01*
X0542815Y0546886D02*
Y0550886D01*
X0322815Y0537075D02*
X0328327D01*
X0325571Y0534319D02*
Y0539831D01*
X0302815Y0537075D02*
X0308327D01*
X0305571Y0534319D02*
Y0539831D01*
X0438366Y0517587D02*
X0442303D01*
X0440335Y0515618D02*
Y0519555D01*
X0466910Y0517587D02*
X0470847D01*
X0468878Y0515618D02*
Y0519555D01*
X0326456Y0279403D02*
X0332361D01*
X0329408Y0276451D02*
Y0282356D01*
X0306456Y0264404D02*
X0312361D01*
X0309408Y0261451D02*
Y0267356D01*
X0306456Y0289404D02*
X0312361D01*
X0309408Y0286451D02*
Y0292356D01*
X0497618Y0275064D02*
X0503130D01*
X0500374Y0272308D02*
Y0277820D01*
X0537668Y0275064D02*
X0543180D01*
X0540424Y0272308D02*
Y0277820D01*
X0517668Y0275064D02*
X0523180D01*
X0520424Y0272308D02*
Y0277820D01*
X0431505Y0275064D02*
X0437017D01*
X0434261Y0272308D02*
Y0277820D01*
X0471555Y0275064D02*
X0477067D01*
X0474311Y0272308D02*
Y0277820D01*
X0451555Y0275064D02*
X0457067D01*
X0454311Y0272308D02*
Y0277820D01*
X0346831Y0275264D02*
X0352343D01*
X0349587Y0272508D02*
Y0278020D01*
X0366831Y0275264D02*
X0372342D01*
X0369587Y0272508D02*
Y0278020D01*
X0248626Y0564020D02*
X0264374D01*
X0256500Y0556146D02*
Y0571894D01*
X0584799Y0564020D02*
X0600547D01*
X0592673Y0556146D02*
Y0571894D01*
X0584799Y0249500D02*
X0600547D01*
X0592673Y0241626D02*
Y0257374D01*
X0248626Y0249500D02*
X0264374D01*
X0256500Y0241626D02*
Y0257374D01*
X0388996Y0272114D02*
X0393327D01*
X0391161Y0269949D02*
Y0274279D01*
X0398996Y0272114D02*
X0403327D01*
X0401161Y0269949D02*
Y0274279D01*
X0408996Y0272114D02*
X0413327D01*
X0411161Y0269949D02*
Y0274279D01*
X0288282Y0488616D02*
X0289482D01*
X0288882Y0488016D02*
Y0489216D01*
X0344262Y0475359D02*
X0345462D01*
X0344862Y0474759D02*
Y0475959D01*
X0309743Y0465078D02*
X0310943D01*
X0310343Y0464478D02*
Y0465678D01*
X0312706Y0460236D02*
X0313906D01*
X0313306Y0459636D02*
Y0460836D01*
X0316031Y0454888D02*
X0317231D01*
X0316631Y0454288D02*
Y0455488D01*
X0429894Y0449220D02*
X0431094D01*
X0430494Y0448620D02*
Y0449820D01*
X0432058Y0452035D02*
X0433257D01*
X0432657Y0451435D02*
Y0452635D01*
X0429695Y0454791D02*
X0430895D01*
X0430295Y0454191D02*
Y0455391D01*
X0469065Y0420146D02*
X0470265D01*
X0469665Y0419546D02*
Y0420746D01*
X0532217Y0444186D02*
X0533417D01*
X0532817Y0443586D02*
Y0444786D01*
X0474240Y0444185D02*
X0475440D01*
X0474840Y0443585D02*
Y0444785D01*
X0423202Y0493721D02*
X0424402D01*
X0423802Y0493121D02*
Y0494321D01*
X0491376Y0461149D02*
X0492576D01*
X0491976Y0460549D02*
Y0461749D01*
X0488467Y0458444D02*
X0489667D01*
X0489067Y0457844D02*
Y0459045D01*
X0452420Y0458444D02*
X0453620D01*
X0453020Y0457844D02*
Y0459045D01*
X0455568Y0461362D02*
X0456768D01*
X0456168Y0460762D02*
Y0461962D01*
X0470783Y0473667D02*
X0471983D01*
X0471383Y0473067D02*
Y0474267D01*
X0480962Y0466859D02*
X0482162D01*
X0481562Y0466259D02*
Y0467459D01*
X0497940Y0392630D02*
X0499140D01*
X0498540Y0392030D02*
Y0393230D01*
X0502294Y0395342D02*
X0503494D01*
X0502894Y0394742D02*
Y0395942D01*
X0502215Y0402753D02*
X0503415D01*
X0502815Y0402153D02*
Y0403353D01*
X0497845Y0407547D02*
X0499045D01*
X0498445Y0406947D02*
Y0408147D01*
X0292944Y0509632D02*
X0294144D01*
X0293544Y0509032D02*
Y0510232D01*
X0288978Y0509636D02*
X0290178D01*
X0289578Y0509036D02*
Y0510236D01*
X0289153Y0499799D02*
X0290353D01*
X0289753Y0499199D02*
Y0500399D01*
X0292918Y0499915D02*
X0294118D01*
X0293518Y0499315D02*
Y0500515D01*
X0284736Y0499838D02*
X0285936D01*
X0285336Y0499238D02*
Y0500438D01*
X0284660Y0509566D02*
X0285859D01*
X0285260Y0508966D02*
Y0510166D01*
X0336215Y0509566D02*
X0337415D01*
X0336815Y0508966D02*
Y0510166D01*
X0336291Y0499838D02*
X0337491D01*
X0336891Y0499238D02*
Y0500438D01*
X0344473Y0499915D02*
X0345673D01*
X0345073Y0499315D02*
Y0500515D01*
X0340708Y0499799D02*
X0341908D01*
X0341308Y0499199D02*
Y0500399D01*
X0340533Y0509636D02*
X0341733D01*
X0341133Y0509036D02*
Y0510236D01*
X0344499Y0509632D02*
X0345699D01*
X0345099Y0509032D02*
Y0510232D01*
X0478345Y0493535D02*
X0479545D01*
X0478945Y0492935D02*
Y0494135D01*
X0374577Y0315421D02*
X0375777D01*
X0375177Y0314821D02*
Y0316021D01*
X0383342Y0247995D02*
X0384542D01*
X0383942Y0247395D02*
Y0248595D01*
X0418672Y0248098D02*
X0419872D01*
X0419272Y0247498D02*
Y0248698D01*
X0312372Y0349673D02*
X0313572D01*
X0312972Y0349073D02*
Y0350273D01*
X0320247Y0349673D02*
X0321446D01*
X0320847Y0349073D02*
Y0350273D01*
X0316309Y0349673D02*
X0317510D01*
X0316910Y0349073D02*
Y0350273D01*
X0316309Y0357547D02*
X0317510D01*
X0316910Y0356947D02*
Y0358147D01*
X0320247Y0357547D02*
X0321446D01*
X0320847Y0356947D02*
Y0358147D01*
X0312372Y0357547D02*
X0313572D01*
X0312972Y0356947D02*
Y0358147D01*
X0262766Y0322508D02*
X0263966D01*
X0263366Y0321908D02*
Y0323108D01*
X0262766Y0318177D02*
X0263966D01*
X0263366Y0317577D02*
Y0318777D01*
X0262766Y0313059D02*
X0263966D01*
X0263366Y0312459D02*
Y0313659D01*
X0262766Y0308728D02*
X0263966D01*
X0263366Y0308128D02*
Y0309328D01*
X0272215Y0308728D02*
X0273415D01*
X0272815Y0308128D02*
Y0309328D01*
X0272215Y0313059D02*
X0273415D01*
X0272815Y0312459D02*
Y0313659D01*
X0272215Y0318177D02*
X0273415D01*
X0272815Y0317577D02*
Y0318777D01*
X0266309Y0333925D02*
X0267510D01*
X0266910Y0333325D02*
Y0334525D01*
X0272215Y0322508D02*
X0273415D01*
X0272815Y0321908D02*
Y0323108D01*
X0361609Y0375787D02*
X0362809D01*
X0362209Y0375187D02*
Y0376387D01*
X0352233Y0375810D02*
X0353433D01*
X0352833Y0375210D02*
Y0376410D01*
X0343320Y0375875D02*
X0344520D01*
X0343920Y0375275D02*
Y0376475D01*
X0335207Y0376051D02*
X0336407D01*
X0335807Y0375451D02*
Y0376651D01*
X0282672Y0346917D02*
X0283872D01*
X0283272Y0346317D02*
Y0347517D01*
X0280310Y0346917D02*
X0281509D01*
X0280909Y0346317D02*
Y0347517D01*
X0280310Y0333925D02*
X0281509D01*
X0280909Y0333325D02*
Y0334525D01*
X0282672Y0333925D02*
X0283872D01*
X0283272Y0333325D02*
Y0334525D01*
X0268672Y0333925D02*
X0269872D01*
X0269272Y0333325D02*
Y0334525D01*
X0266309Y0346917D02*
X0267510D01*
X0266910Y0346317D02*
Y0347517D01*
X0268672Y0346917D02*
X0269872D01*
X0269272Y0346317D02*
Y0347517D01*
X0282254Y0376248D02*
X0283454D01*
X0282854Y0375648D02*
Y0376848D01*
X0282254Y0381169D02*
X0283454D01*
X0282854Y0380569D02*
Y0381769D01*
X0282254Y0387075D02*
X0283454D01*
X0282854Y0386475D02*
Y0387675D01*
X0267491Y0376248D02*
X0268690D01*
X0268091Y0375648D02*
Y0376848D01*
X0267491Y0381169D02*
X0268690D01*
X0268091Y0380569D02*
Y0381769D01*
X0267491Y0387075D02*
X0268690D01*
X0268091Y0386475D02*
Y0387675D01*
X0275365Y0376248D02*
X0276565D01*
X0275965Y0375648D02*
Y0376848D01*
X0275365Y0381169D02*
X0276565D01*
X0275965Y0380569D02*
Y0381769D01*
X0275365Y0387075D02*
X0276565D01*
X0275965Y0386475D02*
Y0387675D01*
X0251743Y0376248D02*
X0252942D01*
X0252343Y0375648D02*
Y0376848D01*
X0251743Y0381169D02*
X0252942D01*
X0252343Y0380569D02*
Y0381769D01*
X0251743Y0387075D02*
X0252942D01*
X0252343Y0386475D02*
Y0387675D01*
X0259616Y0376248D02*
X0260817D01*
X0260216Y0375648D02*
Y0376848D01*
X0259616Y0381169D02*
X0260817D01*
X0260216Y0380569D02*
Y0381769D01*
X0259616Y0387075D02*
X0260817D01*
X0260216Y0386475D02*
Y0387675D01*
X0304892Y0375264D02*
X0306092D01*
X0305492Y0374664D02*
Y0375864D01*
X0298987Y0375264D02*
X0300187D01*
X0299587Y0374664D02*
Y0375864D01*
X0294065Y0375264D02*
X0295265D01*
X0294665Y0374664D02*
Y0375864D01*
X0304892Y0383138D02*
X0306092D01*
X0305492Y0382538D02*
Y0383738D01*
X0298987Y0383138D02*
X0300187D01*
X0299587Y0382538D02*
Y0383738D01*
X0294065Y0383138D02*
X0295265D01*
X0294665Y0382538D02*
Y0383738D01*
X0369593Y0376058D02*
X0370793D01*
X0370193Y0375458D02*
Y0376658D01*
M02*
