G04*
G04 #@! TF.GenerationSoftware,Altium Limited,Altium Designer,21.9.2 (33)*
G04*
G04 Layer_Color=2752767*
%FSAX25Y25*%
%MOIN*%
G70*
G04*
G04 #@! TF.SameCoordinates,F5C87AF0-6DD1-454A-8E35-7E20B65E17A7*
G04*
G04*
G04 #@! TF.FilePolarity,Positive*
G04*
G01*
G75*
%ADD90C,0.00200*%
%ADD91C,0.00267*%
D90*
X0492015Y0548086D02*
Y0549686D01*
X0493615D01*
Y0548086D01*
X0492015D01*
X0502015D02*
Y0549686D01*
X0503615D01*
Y0548086D01*
X0502015D01*
X0512015D02*
Y0549686D01*
X0513615D01*
Y0548086D01*
X0512015D01*
X0522015D02*
Y0549686D01*
X0523615D01*
Y0548086D01*
X0522015D01*
X0532015D02*
Y0549686D01*
X0533615D01*
Y0548086D01*
X0532015D01*
X0542015D02*
Y0549686D01*
X0543615D01*
Y0548086D01*
X0542015D01*
X0440335Y0516787D02*
X0439535Y0518387D01*
X0441135D01*
X0440335Y0516787D01*
X0468878D02*
X0468078Y0518387D01*
X0469678D01*
X0468878Y0516787D01*
X0329408Y0278604D02*
X0329808Y0279004D01*
X0330208D01*
X0329808Y0279403D01*
X0330208Y0279803D01*
X0329808D01*
X0329408Y0280204D01*
X0329008Y0279803D01*
X0328608D01*
X0329008Y0279403D01*
X0328608Y0279004D01*
X0329008D01*
X0329408Y0278604D01*
X0309408Y0263603D02*
X0309808Y0264003D01*
X0310208D01*
X0309808Y0264404D01*
X0310208Y0264804D01*
X0309808D01*
X0309408Y0265203D01*
X0309008Y0264804D01*
X0308608D01*
X0309008Y0264404D01*
X0308608Y0264003D01*
X0309008D01*
X0309408Y0263603D01*
Y0288603D02*
X0309808Y0289003D01*
X0310208D01*
X0309808Y0289404D01*
X0310208Y0289804D01*
X0309808D01*
X0309408Y0290203D01*
X0309008Y0289804D01*
X0308608D01*
X0309008Y0289404D01*
X0308608Y0289003D01*
X0309008D01*
X0309408Y0288603D01*
X0255700Y0563220D02*
X0256100Y0564020D01*
X0255700Y0564820D01*
X0256500Y0564420D01*
X0257300Y0564820D01*
X0256900Y0564020D01*
X0257300Y0563220D01*
X0256500Y0563620D01*
X0255700Y0563220D01*
X0591873D02*
X0592273Y0564020D01*
X0591873Y0564820D01*
X0592673Y0564420D01*
X0593473Y0564820D01*
X0593073Y0564020D01*
X0593473Y0563220D01*
X0592673Y0563620D01*
X0591873Y0563220D01*
Y0248700D02*
X0592273Y0249500D01*
X0591873Y0250300D01*
X0592673Y0249900D01*
X0593473Y0250300D01*
X0593073Y0249500D01*
X0593473Y0248700D01*
X0592673Y0249100D01*
X0591873Y0248700D01*
X0255700D02*
X0256100Y0249500D01*
X0255700Y0250300D01*
X0256500Y0249900D01*
X0257300Y0250300D01*
X0256900Y0249500D01*
X0257300Y0248700D01*
X0256500Y0249100D01*
X0255700Y0248700D01*
X0390761Y0271714D02*
Y0271314D01*
X0391561D01*
Y0271714D01*
X0391961D01*
Y0272514D01*
X0391561D01*
Y0272914D01*
X0390761D01*
Y0272514D01*
X0390361D01*
Y0271714D01*
X0390761D01*
X0400761D02*
Y0271314D01*
X0401561D01*
Y0271714D01*
X0401961D01*
Y0272514D01*
X0401561D01*
Y0272914D01*
X0400761D01*
Y0272514D01*
X0400361D01*
Y0271714D01*
X0400761D01*
X0410761D02*
Y0271314D01*
X0411561D01*
Y0271714D01*
X0411961D01*
Y0272514D01*
X0411561D01*
Y0272914D01*
X0410761D01*
Y0272514D01*
X0410361D01*
Y0271714D01*
X0410761D01*
X0288082Y0487816D02*
X0288482D01*
X0288882Y0488216D01*
X0289282Y0487816D01*
X0289682D01*
Y0488216D01*
X0289282Y0488616D01*
X0289682Y0489016D01*
Y0489416D01*
X0289282D01*
X0288882Y0489016D01*
X0288482Y0489416D01*
X0288082D01*
Y0489016D01*
X0288482Y0488616D01*
X0288082Y0488216D01*
Y0487816D01*
X0344062Y0474559D02*
X0344462D01*
X0344862Y0474959D01*
X0345262Y0474559D01*
X0345662D01*
Y0474959D01*
X0345262Y0475359D01*
X0345662Y0475759D01*
Y0476159D01*
X0345262D01*
X0344862Y0475759D01*
X0344462Y0476159D01*
X0344062D01*
Y0475759D01*
X0344462Y0475359D01*
X0344062Y0474959D01*
Y0474559D01*
X0309543Y0464278D02*
X0309943D01*
X0310343Y0464678D01*
X0310743Y0464278D01*
X0311143D01*
Y0464678D01*
X0310743Y0465078D01*
X0311143Y0465478D01*
Y0465878D01*
X0310743D01*
X0310343Y0465478D01*
X0309943Y0465878D01*
X0309543D01*
Y0465478D01*
X0309943Y0465078D01*
X0309543Y0464678D01*
Y0464278D01*
X0312506Y0459436D02*
X0312906D01*
X0313306Y0459836D01*
X0313706Y0459436D01*
X0314106D01*
Y0459836D01*
X0313706Y0460236D01*
X0314106Y0460636D01*
Y0461036D01*
X0313706D01*
X0313306Y0460636D01*
X0312906Y0461036D01*
X0312506D01*
Y0460636D01*
X0312906Y0460236D01*
X0312506Y0459836D01*
Y0459436D01*
X0315830Y0454088D02*
X0316231D01*
X0316631Y0454488D01*
X0317031Y0454088D01*
X0317430D01*
Y0454488D01*
X0317031Y0454888D01*
X0317430Y0455288D01*
Y0455688D01*
X0317031D01*
X0316631Y0455288D01*
X0316231Y0455688D01*
X0315830D01*
Y0455288D01*
X0316231Y0454888D01*
X0315830Y0454488D01*
Y0454088D01*
X0429694Y0448420D02*
X0430094D01*
X0430494Y0448820D01*
X0430894Y0448420D01*
X0431294D01*
Y0448820D01*
X0430894Y0449220D01*
X0431294Y0449620D01*
Y0450020D01*
X0430894D01*
X0430494Y0449620D01*
X0430094Y0450020D01*
X0429694D01*
Y0449620D01*
X0430094Y0449220D01*
X0429694Y0448820D01*
Y0448420D01*
X0431857Y0451235D02*
X0432258D01*
X0432657Y0451635D01*
X0433057Y0451235D01*
X0433458D01*
Y0451635D01*
X0433057Y0452035D01*
X0433458Y0452435D01*
Y0452835D01*
X0433057D01*
X0432657Y0452435D01*
X0432258Y0452835D01*
X0431857D01*
Y0452435D01*
X0432258Y0452035D01*
X0431857Y0451635D01*
Y0451235D01*
X0429495Y0453991D02*
X0429895D01*
X0430295Y0454391D01*
X0430695Y0453991D01*
X0431095D01*
Y0454391D01*
X0430695Y0454791D01*
X0431095Y0455191D01*
Y0455591D01*
X0430695D01*
X0430295Y0455191D01*
X0429895Y0455591D01*
X0429495D01*
Y0455191D01*
X0429895Y0454791D01*
X0429495Y0454391D01*
Y0453991D01*
X0468865Y0419346D02*
X0469265D01*
X0469665Y0419746D01*
X0470065Y0419346D01*
X0470465D01*
Y0419746D01*
X0470065Y0420146D01*
X0470465Y0420546D01*
Y0420946D01*
X0470065D01*
X0469665Y0420546D01*
X0469265Y0420946D01*
X0468865D01*
Y0420546D01*
X0469265Y0420146D01*
X0468865Y0419746D01*
Y0419346D01*
X0532017Y0443386D02*
X0532417D01*
X0532817Y0443786D01*
X0533217Y0443386D01*
X0533617D01*
Y0443786D01*
X0533217Y0444186D01*
X0533617Y0444586D01*
Y0444986D01*
X0533217D01*
X0532817Y0444586D01*
X0532417Y0444986D01*
X0532017D01*
Y0444586D01*
X0532417Y0444186D01*
X0532017Y0443786D01*
Y0443386D01*
X0474040Y0443385D02*
X0474440D01*
X0474840Y0443785D01*
X0475240Y0443385D01*
X0475640D01*
Y0443785D01*
X0475240Y0444185D01*
X0475640Y0444585D01*
Y0444985D01*
X0475240D01*
X0474840Y0444585D01*
X0474440Y0444985D01*
X0474040D01*
Y0444585D01*
X0474440Y0444185D01*
X0474040Y0443785D01*
Y0443385D01*
X0423002Y0492921D02*
X0423402D01*
X0423802Y0493321D01*
X0424202Y0492921D01*
X0424602D01*
Y0493321D01*
X0424202Y0493721D01*
X0424602Y0494121D01*
Y0494521D01*
X0424202D01*
X0423802Y0494121D01*
X0423402Y0494521D01*
X0423002D01*
Y0494121D01*
X0423402Y0493721D01*
X0423002Y0493321D01*
Y0492921D01*
X0491176Y0460349D02*
X0491576D01*
X0491976Y0460749D01*
X0492376Y0460349D01*
X0492776D01*
Y0460749D01*
X0492376Y0461149D01*
X0492776Y0461549D01*
Y0461949D01*
X0492376D01*
X0491976Y0461549D01*
X0491576Y0461949D01*
X0491176D01*
Y0461549D01*
X0491576Y0461149D01*
X0491176Y0460749D01*
Y0460349D01*
X0488267Y0457645D02*
X0488666D01*
X0489067Y0458044D01*
X0489466Y0457645D01*
X0489866D01*
Y0458044D01*
X0489466Y0458444D01*
X0489866Y0458845D01*
Y0459244D01*
X0489466D01*
X0489067Y0458845D01*
X0488666Y0459244D01*
X0488267D01*
Y0458845D01*
X0488666Y0458444D01*
X0488267Y0458044D01*
Y0457645D01*
X0452220D02*
X0452620D01*
X0453020Y0458044D01*
X0453420Y0457645D01*
X0453820D01*
Y0458044D01*
X0453420Y0458444D01*
X0453820Y0458845D01*
Y0459244D01*
X0453420D01*
X0453020Y0458845D01*
X0452620Y0459244D01*
X0452220D01*
Y0458845D01*
X0452620Y0458444D01*
X0452220Y0458044D01*
Y0457645D01*
X0455368Y0460562D02*
X0455768D01*
X0456168Y0460962D01*
X0456568Y0460562D01*
X0456968D01*
Y0460962D01*
X0456568Y0461362D01*
X0456968Y0461762D01*
Y0462162D01*
X0456568D01*
X0456168Y0461762D01*
X0455768Y0462162D01*
X0455368D01*
Y0461762D01*
X0455768Y0461362D01*
X0455368Y0460962D01*
Y0460562D01*
X0470583Y0472867D02*
X0470983D01*
X0471383Y0473267D01*
X0471783Y0472867D01*
X0472183D01*
Y0473267D01*
X0471783Y0473667D01*
X0472183Y0474067D01*
Y0474467D01*
X0471783D01*
X0471383Y0474067D01*
X0470983Y0474467D01*
X0470583D01*
Y0474067D01*
X0470983Y0473667D01*
X0470583Y0473267D01*
Y0472867D01*
X0480762Y0466059D02*
X0481162D01*
X0481562Y0466459D01*
X0481962Y0466059D01*
X0482362D01*
Y0466459D01*
X0481962Y0466859D01*
X0482362Y0467259D01*
Y0467659D01*
X0481962D01*
X0481562Y0467259D01*
X0481162Y0467659D01*
X0480762D01*
Y0467259D01*
X0481162Y0466859D01*
X0480762Y0466459D01*
Y0466059D01*
X0497740Y0391830D02*
X0498140D01*
X0498540Y0392230D01*
X0498940Y0391830D01*
X0499340D01*
Y0392230D01*
X0498940Y0392630D01*
X0499340Y0393030D01*
Y0393430D01*
X0498940D01*
X0498540Y0393030D01*
X0498140Y0393430D01*
X0497740D01*
Y0393030D01*
X0498140Y0392630D01*
X0497740Y0392230D01*
Y0391830D01*
X0502094Y0394543D02*
X0502494D01*
X0502894Y0394942D01*
X0503294Y0394543D01*
X0503694D01*
Y0394942D01*
X0503294Y0395342D01*
X0503694Y0395743D01*
Y0396143D01*
X0503294D01*
X0502894Y0395743D01*
X0502494Y0396143D01*
X0502094D01*
Y0395743D01*
X0502494Y0395342D01*
X0502094Y0394942D01*
Y0394543D01*
X0502015Y0401953D02*
X0502415D01*
X0502815Y0402353D01*
X0503215Y0401953D01*
X0503615D01*
Y0402353D01*
X0503215Y0402753D01*
X0503615Y0403153D01*
Y0403553D01*
X0503215D01*
X0502815Y0403153D01*
X0502415Y0403553D01*
X0502015D01*
Y0403153D01*
X0502415Y0402753D01*
X0502015Y0402353D01*
Y0401953D01*
X0497645Y0406747D02*
X0498045D01*
X0498445Y0407147D01*
X0498845Y0406747D01*
X0499245D01*
Y0407147D01*
X0498845Y0407547D01*
X0499245Y0407947D01*
Y0408347D01*
X0498845D01*
X0498445Y0407947D01*
X0498045Y0408347D01*
X0497645D01*
Y0407947D01*
X0498045Y0407547D01*
X0497645Y0407147D01*
Y0406747D01*
X0292744Y0508832D02*
X0293144D01*
X0293544Y0509232D01*
X0293944Y0508832D01*
X0294344D01*
Y0509232D01*
X0293944Y0509632D01*
X0294344Y0510032D01*
Y0510432D01*
X0293944D01*
X0293544Y0510032D01*
X0293144Y0510432D01*
X0292744D01*
Y0510032D01*
X0293144Y0509632D01*
X0292744Y0509232D01*
Y0508832D01*
X0288778Y0508836D02*
X0289178D01*
X0289578Y0509236D01*
X0289978Y0508836D01*
X0290378D01*
Y0509236D01*
X0289978Y0509636D01*
X0290378Y0510036D01*
Y0510436D01*
X0289978D01*
X0289578Y0510036D01*
X0289178Y0510436D01*
X0288778D01*
Y0510036D01*
X0289178Y0509636D01*
X0288778Y0509236D01*
Y0508836D01*
X0288952Y0498999D02*
X0289352D01*
X0289753Y0499399D01*
X0290153Y0498999D01*
X0290552D01*
Y0499399D01*
X0290153Y0499799D01*
X0290552Y0500199D01*
Y0500599D01*
X0290153D01*
X0289753Y0500199D01*
X0289352Y0500599D01*
X0288952D01*
Y0500199D01*
X0289352Y0499799D01*
X0288952Y0499399D01*
Y0498999D01*
X0292718Y0499115D02*
X0293118D01*
X0293518Y0499515D01*
X0293918Y0499115D01*
X0294318D01*
Y0499515D01*
X0293918Y0499915D01*
X0294318Y0500315D01*
Y0500715D01*
X0293918D01*
X0293518Y0500315D01*
X0293118Y0500715D01*
X0292718D01*
Y0500315D01*
X0293118Y0499915D01*
X0292718Y0499515D01*
Y0499115D01*
X0284536Y0499038D02*
X0284936D01*
X0285336Y0499438D01*
X0285736Y0499038D01*
X0286136D01*
Y0499438D01*
X0285736Y0499838D01*
X0286136Y0500238D01*
Y0500638D01*
X0285736D01*
X0285336Y0500238D01*
X0284936Y0500638D01*
X0284536D01*
Y0500238D01*
X0284936Y0499838D01*
X0284536Y0499438D01*
Y0499038D01*
X0284459Y0508766D02*
X0284859D01*
X0285260Y0509166D01*
X0285660Y0508766D01*
X0286059D01*
Y0509166D01*
X0285660Y0509566D01*
X0286059Y0509966D01*
Y0510366D01*
X0285660D01*
X0285260Y0509966D01*
X0284859Y0510366D01*
X0284459D01*
Y0509966D01*
X0284859Y0509566D01*
X0284459Y0509166D01*
Y0508766D01*
X0336015D02*
X0336415D01*
X0336815Y0509166D01*
X0337215Y0508766D01*
X0337615D01*
Y0509166D01*
X0337215Y0509566D01*
X0337615Y0509966D01*
Y0510366D01*
X0337215D01*
X0336815Y0509966D01*
X0336415Y0510366D01*
X0336015D01*
Y0509966D01*
X0336415Y0509566D01*
X0336015Y0509166D01*
Y0508766D01*
X0336091Y0499038D02*
X0336491D01*
X0336891Y0499438D01*
X0337291Y0499038D01*
X0337691D01*
Y0499438D01*
X0337291Y0499838D01*
X0337691Y0500238D01*
Y0500638D01*
X0337291D01*
X0336891Y0500238D01*
X0336491Y0500638D01*
X0336091D01*
Y0500238D01*
X0336491Y0499838D01*
X0336091Y0499438D01*
Y0499038D01*
X0344273Y0499115D02*
X0344673D01*
X0345073Y0499515D01*
X0345473Y0499115D01*
X0345873D01*
Y0499515D01*
X0345473Y0499915D01*
X0345873Y0500315D01*
Y0500715D01*
X0345473D01*
X0345073Y0500315D01*
X0344673Y0500715D01*
X0344273D01*
Y0500315D01*
X0344673Y0499915D01*
X0344273Y0499515D01*
Y0499115D01*
X0340508Y0498999D02*
X0340908D01*
X0341308Y0499399D01*
X0341708Y0498999D01*
X0342108D01*
Y0499399D01*
X0341708Y0499799D01*
X0342108Y0500199D01*
Y0500599D01*
X0341708D01*
X0341308Y0500199D01*
X0340908Y0500599D01*
X0340508D01*
Y0500199D01*
X0340908Y0499799D01*
X0340508Y0499399D01*
Y0498999D01*
X0340333Y0508836D02*
X0340733D01*
X0341133Y0509236D01*
X0341533Y0508836D01*
X0341933D01*
Y0509236D01*
X0341533Y0509636D01*
X0341933Y0510036D01*
Y0510436D01*
X0341533D01*
X0341133Y0510036D01*
X0340733Y0510436D01*
X0340333D01*
Y0510036D01*
X0340733Y0509636D01*
X0340333Y0509236D01*
Y0508836D01*
X0344299Y0508832D02*
X0344699D01*
X0345099Y0509232D01*
X0345499Y0508832D01*
X0345899D01*
Y0509232D01*
X0345499Y0509632D01*
X0345899Y0510032D01*
Y0510432D01*
X0345499D01*
X0345099Y0510032D01*
X0344699Y0510432D01*
X0344299D01*
Y0510032D01*
X0344699Y0509632D01*
X0344299Y0509232D01*
Y0508832D01*
X0478145Y0492735D02*
X0478545D01*
X0478945Y0493135D01*
X0479345Y0492735D01*
X0479745D01*
Y0493135D01*
X0479345Y0493535D01*
X0479745Y0493935D01*
Y0494335D01*
X0479345D01*
X0478945Y0493935D01*
X0478545Y0494335D01*
X0478145D01*
Y0493935D01*
X0478545Y0493535D01*
X0478145Y0493135D01*
Y0492735D01*
X0374377Y0314621D02*
X0374777D01*
X0375177Y0315021D01*
X0375577Y0314621D01*
X0375977D01*
Y0315021D01*
X0375577Y0315421D01*
X0375977Y0315821D01*
Y0316221D01*
X0375577D01*
X0375177Y0315821D01*
X0374777Y0316221D01*
X0374377D01*
Y0315821D01*
X0374777Y0315421D01*
X0374377Y0315021D01*
Y0314621D01*
X0383142Y0247195D02*
X0383542D01*
X0383942Y0247595D01*
X0384342Y0247195D01*
X0384742D01*
Y0247595D01*
X0384342Y0247995D01*
X0384742Y0248395D01*
Y0248795D01*
X0384342D01*
X0383942Y0248395D01*
X0383542Y0248795D01*
X0383142D01*
Y0248395D01*
X0383542Y0247995D01*
X0383142Y0247595D01*
Y0247195D01*
X0418472Y0247298D02*
X0418872D01*
X0419272Y0247698D01*
X0419672Y0247298D01*
X0420072D01*
Y0247698D01*
X0419672Y0248098D01*
X0420072Y0248498D01*
Y0248898D01*
X0419672D01*
X0419272Y0248498D01*
X0418872Y0248898D01*
X0418472D01*
Y0248498D01*
X0418872Y0248098D01*
X0418472Y0247698D01*
Y0247298D01*
X0312172Y0348873D02*
X0312572D01*
X0312972Y0349273D01*
X0313372Y0348873D01*
X0313772D01*
Y0349273D01*
X0313372Y0349673D01*
X0313772Y0350073D01*
Y0350473D01*
X0313372D01*
X0312972Y0350073D01*
X0312572Y0350473D01*
X0312172D01*
Y0350073D01*
X0312572Y0349673D01*
X0312172Y0349273D01*
Y0348873D01*
X0320046D02*
X0320446D01*
X0320847Y0349273D01*
X0321247Y0348873D01*
X0321646D01*
Y0349273D01*
X0321247Y0349673D01*
X0321646Y0350073D01*
Y0350473D01*
X0321247D01*
X0320847Y0350073D01*
X0320446Y0350473D01*
X0320046D01*
Y0350073D01*
X0320446Y0349673D01*
X0320046Y0349273D01*
Y0348873D01*
X0316109D02*
X0316510D01*
X0316910Y0349273D01*
X0317309Y0348873D01*
X0317709D01*
Y0349273D01*
X0317309Y0349673D01*
X0317709Y0350073D01*
Y0350473D01*
X0317309D01*
X0316910Y0350073D01*
X0316510Y0350473D01*
X0316109D01*
Y0350073D01*
X0316510Y0349673D01*
X0316109Y0349273D01*
Y0348873D01*
Y0356747D02*
X0316510D01*
X0316910Y0357147D01*
X0317309Y0356747D01*
X0317709D01*
Y0357147D01*
X0317309Y0357547D01*
X0317709Y0357947D01*
Y0358347D01*
X0317309D01*
X0316910Y0357947D01*
X0316510Y0358347D01*
X0316109D01*
Y0357947D01*
X0316510Y0357547D01*
X0316109Y0357147D01*
Y0356747D01*
X0320046D02*
X0320446D01*
X0320847Y0357147D01*
X0321247Y0356747D01*
X0321646D01*
Y0357147D01*
X0321247Y0357547D01*
X0321646Y0357947D01*
Y0358347D01*
X0321247D01*
X0320847Y0357947D01*
X0320446Y0358347D01*
X0320046D01*
Y0357947D01*
X0320446Y0357547D01*
X0320046Y0357147D01*
Y0356747D01*
X0312172D02*
X0312572D01*
X0312972Y0357147D01*
X0313372Y0356747D01*
X0313772D01*
Y0357147D01*
X0313372Y0357547D01*
X0313772Y0357947D01*
Y0358347D01*
X0313372D01*
X0312972Y0357947D01*
X0312572Y0358347D01*
X0312172D01*
Y0357947D01*
X0312572Y0357547D01*
X0312172Y0357147D01*
Y0356747D01*
X0262566Y0321708D02*
X0262966D01*
X0263366Y0322108D01*
X0263766Y0321708D01*
X0264166D01*
Y0322108D01*
X0263766Y0322508D01*
X0264166Y0322908D01*
Y0323308D01*
X0263766D01*
X0263366Y0322908D01*
X0262966Y0323308D01*
X0262566D01*
Y0322908D01*
X0262966Y0322508D01*
X0262566Y0322108D01*
Y0321708D01*
Y0317377D02*
X0262966D01*
X0263366Y0317777D01*
X0263766Y0317377D01*
X0264166D01*
Y0317777D01*
X0263766Y0318177D01*
X0264166Y0318577D01*
Y0318977D01*
X0263766D01*
X0263366Y0318577D01*
X0262966Y0318977D01*
X0262566D01*
Y0318577D01*
X0262966Y0318177D01*
X0262566Y0317777D01*
Y0317377D01*
Y0312259D02*
X0262966D01*
X0263366Y0312659D01*
X0263766Y0312259D01*
X0264166D01*
Y0312659D01*
X0263766Y0313059D01*
X0264166Y0313459D01*
Y0313859D01*
X0263766D01*
X0263366Y0313459D01*
X0262966Y0313859D01*
X0262566D01*
Y0313459D01*
X0262966Y0313059D01*
X0262566Y0312659D01*
Y0312259D01*
Y0307928D02*
X0262966D01*
X0263366Y0308328D01*
X0263766Y0307928D01*
X0264166D01*
Y0308328D01*
X0263766Y0308728D01*
X0264166Y0309128D01*
Y0309528D01*
X0263766D01*
X0263366Y0309128D01*
X0262966Y0309528D01*
X0262566D01*
Y0309128D01*
X0262966Y0308728D01*
X0262566Y0308328D01*
Y0307928D01*
X0272015D02*
X0272415D01*
X0272815Y0308328D01*
X0273215Y0307928D01*
X0273615D01*
Y0308328D01*
X0273215Y0308728D01*
X0273615Y0309128D01*
Y0309528D01*
X0273215D01*
X0272815Y0309128D01*
X0272415Y0309528D01*
X0272015D01*
Y0309128D01*
X0272415Y0308728D01*
X0272015Y0308328D01*
Y0307928D01*
Y0312259D02*
X0272415D01*
X0272815Y0312659D01*
X0273215Y0312259D01*
X0273615D01*
Y0312659D01*
X0273215Y0313059D01*
X0273615Y0313459D01*
Y0313859D01*
X0273215D01*
X0272815Y0313459D01*
X0272415Y0313859D01*
X0272015D01*
Y0313459D01*
X0272415Y0313059D01*
X0272015Y0312659D01*
Y0312259D01*
Y0317377D02*
X0272415D01*
X0272815Y0317777D01*
X0273215Y0317377D01*
X0273615D01*
Y0317777D01*
X0273215Y0318177D01*
X0273615Y0318577D01*
Y0318977D01*
X0273215D01*
X0272815Y0318577D01*
X0272415Y0318977D01*
X0272015D01*
Y0318577D01*
X0272415Y0318177D01*
X0272015Y0317777D01*
Y0317377D01*
X0266109Y0333125D02*
X0266510D01*
X0266910Y0333525D01*
X0267309Y0333125D01*
X0267709D01*
Y0333525D01*
X0267309Y0333925D01*
X0267709Y0334325D01*
Y0334725D01*
X0267309D01*
X0266910Y0334325D01*
X0266510Y0334725D01*
X0266109D01*
Y0334325D01*
X0266510Y0333925D01*
X0266109Y0333525D01*
Y0333125D01*
X0272015Y0321708D02*
X0272415D01*
X0272815Y0322108D01*
X0273215Y0321708D01*
X0273615D01*
Y0322108D01*
X0273215Y0322508D01*
X0273615Y0322908D01*
Y0323308D01*
X0273215D01*
X0272815Y0322908D01*
X0272415Y0323308D01*
X0272015D01*
Y0322908D01*
X0272415Y0322508D01*
X0272015Y0322108D01*
Y0321708D01*
X0361409Y0374987D02*
X0361809D01*
X0362209Y0375387D01*
X0362609Y0374987D01*
X0363009D01*
Y0375387D01*
X0362609Y0375787D01*
X0363009Y0376187D01*
Y0376587D01*
X0362609D01*
X0362209Y0376187D01*
X0361809Y0376587D01*
X0361409D01*
Y0376187D01*
X0361809Y0375787D01*
X0361409Y0375387D01*
Y0374987D01*
X0352033Y0375010D02*
X0352433D01*
X0352833Y0375410D01*
X0353233Y0375010D01*
X0353633D01*
Y0375410D01*
X0353233Y0375810D01*
X0353633Y0376210D01*
Y0376610D01*
X0353233D01*
X0352833Y0376210D01*
X0352433Y0376610D01*
X0352033D01*
Y0376210D01*
X0352433Y0375810D01*
X0352033Y0375410D01*
Y0375010D01*
X0343120Y0375075D02*
X0343520D01*
X0343920Y0375475D01*
X0344320Y0375075D01*
X0344720D01*
Y0375475D01*
X0344320Y0375875D01*
X0344720Y0376275D01*
Y0376675D01*
X0344320D01*
X0343920Y0376275D01*
X0343520Y0376675D01*
X0343120D01*
Y0376275D01*
X0343520Y0375875D01*
X0343120Y0375475D01*
Y0375075D01*
X0335007Y0375251D02*
X0335407D01*
X0335807Y0375651D01*
X0336207Y0375251D01*
X0336607D01*
Y0375651D01*
X0336207Y0376051D01*
X0336607Y0376451D01*
Y0376851D01*
X0336207D01*
X0335807Y0376451D01*
X0335407Y0376851D01*
X0335007D01*
Y0376451D01*
X0335407Y0376051D01*
X0335007Y0375651D01*
Y0375251D01*
X0282472Y0346117D02*
X0282872D01*
X0283272Y0346517D01*
X0283672Y0346117D01*
X0284072D01*
Y0346517D01*
X0283672Y0346917D01*
X0284072Y0347317D01*
Y0347717D01*
X0283672D01*
X0283272Y0347317D01*
X0282872Y0347717D01*
X0282472D01*
Y0347317D01*
X0282872Y0346917D01*
X0282472Y0346517D01*
Y0346117D01*
X0280110D02*
X0280509D01*
X0280909Y0346517D01*
X0281310Y0346117D01*
X0281710D01*
Y0346517D01*
X0281310Y0346917D01*
X0281710Y0347317D01*
Y0347717D01*
X0281310D01*
X0280909Y0347317D01*
X0280509Y0347717D01*
X0280110D01*
Y0347317D01*
X0280509Y0346917D01*
X0280110Y0346517D01*
Y0346117D01*
Y0333125D02*
X0280509D01*
X0280909Y0333525D01*
X0281310Y0333125D01*
X0281710D01*
Y0333525D01*
X0281310Y0333925D01*
X0281710Y0334325D01*
Y0334725D01*
X0281310D01*
X0280909Y0334325D01*
X0280509Y0334725D01*
X0280110D01*
Y0334325D01*
X0280509Y0333925D01*
X0280110Y0333525D01*
Y0333125D01*
X0282472D02*
X0282872D01*
X0283272Y0333525D01*
X0283672Y0333125D01*
X0284072D01*
Y0333525D01*
X0283672Y0333925D01*
X0284072Y0334325D01*
Y0334725D01*
X0283672D01*
X0283272Y0334325D01*
X0282872Y0334725D01*
X0282472D01*
Y0334325D01*
X0282872Y0333925D01*
X0282472Y0333525D01*
Y0333125D01*
X0268472D02*
X0268872D01*
X0269272Y0333525D01*
X0269672Y0333125D01*
X0270072D01*
Y0333525D01*
X0269672Y0333925D01*
X0270072Y0334325D01*
Y0334725D01*
X0269672D01*
X0269272Y0334325D01*
X0268872Y0334725D01*
X0268472D01*
Y0334325D01*
X0268872Y0333925D01*
X0268472Y0333525D01*
Y0333125D01*
X0266109Y0346117D02*
X0266510D01*
X0266910Y0346517D01*
X0267309Y0346117D01*
X0267709D01*
Y0346517D01*
X0267309Y0346917D01*
X0267709Y0347317D01*
Y0347717D01*
X0267309D01*
X0266910Y0347317D01*
X0266510Y0347717D01*
X0266109D01*
Y0347317D01*
X0266510Y0346917D01*
X0266109Y0346517D01*
Y0346117D01*
X0268472D02*
X0268872D01*
X0269272Y0346517D01*
X0269672Y0346117D01*
X0270072D01*
Y0346517D01*
X0269672Y0346917D01*
X0270072Y0347317D01*
Y0347717D01*
X0269672D01*
X0269272Y0347317D01*
X0268872Y0347717D01*
X0268472D01*
Y0347317D01*
X0268872Y0346917D01*
X0268472Y0346517D01*
Y0346117D01*
X0282054Y0375448D02*
X0282454D01*
X0282854Y0375848D01*
X0283254Y0375448D01*
X0283654D01*
Y0375848D01*
X0283254Y0376248D01*
X0283654Y0376648D01*
Y0377048D01*
X0283254D01*
X0282854Y0376648D01*
X0282454Y0377048D01*
X0282054D01*
Y0376648D01*
X0282454Y0376248D01*
X0282054Y0375848D01*
Y0375448D01*
Y0380369D02*
X0282454D01*
X0282854Y0380769D01*
X0283254Y0380369D01*
X0283654D01*
Y0380769D01*
X0283254Y0381169D01*
X0283654Y0381569D01*
Y0381969D01*
X0283254D01*
X0282854Y0381569D01*
X0282454Y0381969D01*
X0282054D01*
Y0381569D01*
X0282454Y0381169D01*
X0282054Y0380769D01*
Y0380369D01*
Y0386275D02*
X0282454D01*
X0282854Y0386675D01*
X0283254Y0386275D01*
X0283654D01*
Y0386675D01*
X0283254Y0387075D01*
X0283654Y0387475D01*
Y0387875D01*
X0283254D01*
X0282854Y0387475D01*
X0282454Y0387875D01*
X0282054D01*
Y0387475D01*
X0282454Y0387075D01*
X0282054Y0386675D01*
Y0386275D01*
X0267290Y0375448D02*
X0267690D01*
X0268091Y0375848D01*
X0268491Y0375448D01*
X0268891D01*
Y0375848D01*
X0268491Y0376248D01*
X0268891Y0376648D01*
Y0377048D01*
X0268491D01*
X0268091Y0376648D01*
X0267690Y0377048D01*
X0267290D01*
Y0376648D01*
X0267690Y0376248D01*
X0267290Y0375848D01*
Y0375448D01*
Y0380369D02*
X0267690D01*
X0268091Y0380769D01*
X0268491Y0380369D01*
X0268891D01*
Y0380769D01*
X0268491Y0381169D01*
X0268891Y0381569D01*
Y0381969D01*
X0268491D01*
X0268091Y0381569D01*
X0267690Y0381969D01*
X0267290D01*
Y0381569D01*
X0267690Y0381169D01*
X0267290Y0380769D01*
Y0380369D01*
Y0386275D02*
X0267690D01*
X0268091Y0386675D01*
X0268491Y0386275D01*
X0268891D01*
Y0386675D01*
X0268491Y0387075D01*
X0268891Y0387475D01*
Y0387875D01*
X0268491D01*
X0268091Y0387475D01*
X0267690Y0387875D01*
X0267290D01*
Y0387475D01*
X0267690Y0387075D01*
X0267290Y0386675D01*
Y0386275D01*
X0275165Y0375448D02*
X0275565D01*
X0275965Y0375848D01*
X0276365Y0375448D01*
X0276765D01*
Y0375848D01*
X0276365Y0376248D01*
X0276765Y0376648D01*
Y0377048D01*
X0276365D01*
X0275965Y0376648D01*
X0275565Y0377048D01*
X0275165D01*
Y0376648D01*
X0275565Y0376248D01*
X0275165Y0375848D01*
Y0375448D01*
Y0380369D02*
X0275565D01*
X0275965Y0380769D01*
X0276365Y0380369D01*
X0276765D01*
Y0380769D01*
X0276365Y0381169D01*
X0276765Y0381569D01*
Y0381969D01*
X0276365D01*
X0275965Y0381569D01*
X0275565Y0381969D01*
X0275165D01*
Y0381569D01*
X0275565Y0381169D01*
X0275165Y0380769D01*
Y0380369D01*
Y0386275D02*
X0275565D01*
X0275965Y0386675D01*
X0276365Y0386275D01*
X0276765D01*
Y0386675D01*
X0276365Y0387075D01*
X0276765Y0387475D01*
Y0387875D01*
X0276365D01*
X0275965Y0387475D01*
X0275565Y0387875D01*
X0275165D01*
Y0387475D01*
X0275565Y0387075D01*
X0275165Y0386675D01*
Y0386275D01*
X0251542Y0375448D02*
X0251942D01*
X0252343Y0375848D01*
X0252743Y0375448D01*
X0253142D01*
Y0375848D01*
X0252743Y0376248D01*
X0253142Y0376648D01*
Y0377048D01*
X0252743D01*
X0252343Y0376648D01*
X0251942Y0377048D01*
X0251542D01*
Y0376648D01*
X0251942Y0376248D01*
X0251542Y0375848D01*
Y0375448D01*
Y0380369D02*
X0251942D01*
X0252343Y0380769D01*
X0252743Y0380369D01*
X0253142D01*
Y0380769D01*
X0252743Y0381169D01*
X0253142Y0381569D01*
Y0381969D01*
X0252743D01*
X0252343Y0381569D01*
X0251942Y0381969D01*
X0251542D01*
Y0381569D01*
X0251942Y0381169D01*
X0251542Y0380769D01*
Y0380369D01*
Y0386275D02*
X0251942D01*
X0252343Y0386675D01*
X0252743Y0386275D01*
X0253142D01*
Y0386675D01*
X0252743Y0387075D01*
X0253142Y0387475D01*
Y0387875D01*
X0252743D01*
X0252343Y0387475D01*
X0251942Y0387875D01*
X0251542D01*
Y0387475D01*
X0251942Y0387075D01*
X0251542Y0386675D01*
Y0386275D01*
X0259417Y0375448D02*
X0259817D01*
X0260216Y0375848D01*
X0260616Y0375448D01*
X0261017D01*
Y0375848D01*
X0260616Y0376248D01*
X0261017Y0376648D01*
Y0377048D01*
X0260616D01*
X0260216Y0376648D01*
X0259817Y0377048D01*
X0259417D01*
Y0376648D01*
X0259817Y0376248D01*
X0259417Y0375848D01*
Y0375448D01*
Y0380369D02*
X0259817D01*
X0260216Y0380769D01*
X0260616Y0380369D01*
X0261017D01*
Y0380769D01*
X0260616Y0381169D01*
X0261017Y0381569D01*
Y0381969D01*
X0260616D01*
X0260216Y0381569D01*
X0259817Y0381969D01*
X0259417D01*
Y0381569D01*
X0259817Y0381169D01*
X0259417Y0380769D01*
Y0380369D01*
Y0386275D02*
X0259817D01*
X0260216Y0386675D01*
X0260616Y0386275D01*
X0261017D01*
Y0386675D01*
X0260616Y0387075D01*
X0261017Y0387475D01*
Y0387875D01*
X0260616D01*
X0260216Y0387475D01*
X0259817Y0387875D01*
X0259417D01*
Y0387475D01*
X0259817Y0387075D01*
X0259417Y0386675D01*
Y0386275D01*
X0304692Y0374464D02*
X0305092D01*
X0305492Y0374864D01*
X0305892Y0374464D01*
X0306292D01*
Y0374864D01*
X0305892Y0375264D01*
X0306292Y0375664D01*
Y0376064D01*
X0305892D01*
X0305492Y0375664D01*
X0305092Y0376064D01*
X0304692D01*
Y0375664D01*
X0305092Y0375264D01*
X0304692Y0374864D01*
Y0374464D01*
X0298787D02*
X0299187D01*
X0299587Y0374864D01*
X0299987Y0374464D01*
X0300387D01*
Y0374864D01*
X0299987Y0375264D01*
X0300387Y0375664D01*
Y0376064D01*
X0299987D01*
X0299587Y0375664D01*
X0299187Y0376064D01*
X0298787D01*
Y0375664D01*
X0299187Y0375264D01*
X0298787Y0374864D01*
Y0374464D01*
X0293865D02*
X0294265D01*
X0294665Y0374864D01*
X0295065Y0374464D01*
X0295465D01*
Y0374864D01*
X0295065Y0375264D01*
X0295465Y0375664D01*
Y0376064D01*
X0295065D01*
X0294665Y0375664D01*
X0294265Y0376064D01*
X0293865D01*
Y0375664D01*
X0294265Y0375264D01*
X0293865Y0374864D01*
Y0374464D01*
X0304692Y0382338D02*
X0305092D01*
X0305492Y0382738D01*
X0305892Y0382338D01*
X0306292D01*
Y0382738D01*
X0305892Y0383138D01*
X0306292Y0383538D01*
Y0383938D01*
X0305892D01*
X0305492Y0383538D01*
X0305092Y0383938D01*
X0304692D01*
Y0383538D01*
X0305092Y0383138D01*
X0304692Y0382738D01*
Y0382338D01*
X0298787D02*
X0299187D01*
X0299587Y0382738D01*
X0299987Y0382338D01*
X0300387D01*
Y0382738D01*
X0299987Y0383138D01*
X0300387Y0383538D01*
Y0383938D01*
X0299987D01*
X0299587Y0383538D01*
X0299187Y0383938D01*
X0298787D01*
Y0383538D01*
X0299187Y0383138D01*
X0298787Y0382738D01*
Y0382338D01*
X0293865D02*
X0294265D01*
X0294665Y0382738D01*
X0295065Y0382338D01*
X0295465D01*
Y0382738D01*
X0295065Y0383138D01*
X0295465Y0383538D01*
Y0383938D01*
X0295065D01*
X0294665Y0383538D01*
X0294265Y0383938D01*
X0293865D01*
Y0383538D01*
X0294265Y0383138D01*
X0293865Y0382738D01*
Y0382338D01*
X0369393Y0375258D02*
X0369793D01*
X0370193Y0375658D01*
X0370593Y0375258D01*
X0370993D01*
Y0375658D01*
X0370593Y0376058D01*
X0370993Y0376458D01*
Y0376858D01*
X0370593D01*
X0370193Y0376458D01*
X0369793Y0376858D01*
X0369393D01*
Y0376458D01*
X0369793Y0376058D01*
X0369393Y0375658D01*
Y0375258D01*
D91*
X0326371Y0537075D02*
G03*
X0326371Y0537075I-0000800J0000000D01*
G01*
X0306371D02*
G03*
X0306371Y0537075I-0000800J0000000D01*
G01*
X0501174Y0275064D02*
G03*
X0501174Y0275064I-0000800J0000000D01*
G01*
X0541224D02*
G03*
X0541224Y0275064I-0000800J0000000D01*
G01*
X0521224D02*
G03*
X0521224Y0275064I-0000800J0000000D01*
G01*
X0435061D02*
G03*
X0435061Y0275064I-0000800J0000000D01*
G01*
X0475111D02*
G03*
X0475111Y0275064I-0000800J0000000D01*
G01*
X0455111D02*
G03*
X0455111Y0275064I-0000800J0000000D01*
G01*
X0350387Y0275264D02*
G03*
X0350387Y0275264I-0000800J0000000D01*
G01*
X0370387D02*
G03*
X0370387Y0275264I-0000800J0000000D01*
G01*
M02*
