G04*
G04 #@! TF.GenerationSoftware,Altium Limited,Altium Designer,21.9.2 (33)*
G04*
G04 Layer_Color=32768*
%FSAX25Y25*%
%MOIN*%
G70*
G04*
G04 #@! TF.SameCoordinates,F5C87AF0-6DD1-454A-8E35-7E20B65E17A7*
G04*
G04*
G04 #@! TF.FilePolarity,Positive*
G04*
G01*
G75*
%ADD86C,0.00394*%
%ADD89C,0.00197*%
D86*
X0316122Y0465815D02*
Y0469752D01*
X0314154Y0467783D02*
X0318091D01*
X0476358Y0416602D02*
Y0420539D01*
X0474390Y0418571D02*
X0478327D01*
X0455689Y0397902D02*
X0497028D01*
X0455689Y0439240D02*
X0497028D01*
Y0397902D02*
Y0439240D01*
X0455689Y0397902D02*
Y0439240D01*
X0361714Y0305579D02*
X0365651D01*
X0363683Y0303610D02*
Y0307547D01*
X0373263Y0305579D02*
X0377200D01*
X0375231Y0303610D02*
Y0307547D01*
X0307067Y0353610D02*
X0311004D01*
X0309035Y0351642D02*
Y0355579D01*
D89*
X0284154Y0496671D02*
X0312146D01*
X0284154D02*
Y0512911D01*
X0312146D01*
Y0496671D02*
Y0512911D01*
X0318661D02*
X0346654D01*
Y0496671D02*
Y0512911D01*
X0318661Y0496671D02*
X0346654D01*
X0318661D02*
Y0512911D01*
X0300622Y0456563D02*
X0331622D01*
X0300622Y0479004D02*
X0331622D01*
Y0456563D02*
Y0479004D01*
X0300622Y0456563D02*
Y0479004D01*
X0528409Y0311164D02*
Y0344038D01*
X0546520D01*
Y0311164D02*
Y0344038D01*
X0528409Y0311164D02*
X0546520D01*
X0493894D02*
Y0344038D01*
X0512004D01*
Y0311164D02*
Y0344038D01*
X0493894Y0311164D02*
X0512004D01*
X0459378D02*
Y0344038D01*
X0477488D01*
Y0311164D02*
Y0344038D01*
X0459378Y0311164D02*
X0477488D01*
X0424862D02*
Y0344038D01*
X0442973D01*
Y0311164D02*
Y0344038D01*
X0424862Y0311164D02*
X0442973D01*
X0367226Y0299083D02*
Y0312075D01*
X0360139Y0299083D02*
Y0312075D01*
X0367226D01*
X0360139Y0299083D02*
X0367226D01*
X0378774D02*
Y0312075D01*
X0371688Y0299083D02*
Y0312075D01*
X0378774D01*
X0371688Y0299083D02*
X0378774D01*
X0323035Y0346721D02*
Y0360500D01*
X0295035Y0346721D02*
Y0360500D01*
Y0346721D02*
X0323035D01*
X0295035Y0360500D02*
X0323035D01*
M02*
