G04*
G04 #@! TF.GenerationSoftware,Altium Limited,Altium Designer,21.9.2 (33)*
G04*
G04 Layer_Color=16711935*
%FSAX25Y25*%
%MOIN*%
G70*
G04*
G04 #@! TF.SameCoordinates,F5C87AF0-6DD1-454A-8E35-7E20B65E17A7*
G04*
G04*
G04 #@! TF.FilePolarity,Negative*
G04*
G01*
G75*
%ADD60O,0.07800X0.10800*%
%ADD61R,0.07800X0.10800*%
%ADD62R,0.08674X0.10642*%
%ADD63O,0.20485X0.12611*%
%ADD64R,0.10800X0.16800*%
%ADD65R,0.16800X0.10800*%
%ADD66C,0.24422*%
%ADD67C,0.07099*%
%ADD68R,0.07099X0.07099*%
%ADD69C,0.02800*%
D60*
X0492815Y0548886D02*
D03*
X0502815D02*
D03*
X0512815D02*
D03*
X0522815D02*
D03*
X0532815D02*
D03*
D61*
X0542815D02*
D03*
D62*
X0325571Y0537075D02*
D03*
X0305571D02*
D03*
X0500374Y0275064D02*
D03*
X0540424D02*
D03*
X0520424D02*
D03*
X0434261D02*
D03*
X0474311D02*
D03*
X0454311D02*
D03*
X0349587Y0275264D02*
D03*
X0369587D02*
D03*
D63*
X0440335Y0517587D02*
D03*
X0468878D02*
D03*
D64*
X0329408Y0279403D02*
D03*
D65*
X0309408Y0264404D02*
D03*
Y0289404D02*
D03*
D66*
X0256500Y0564020D02*
D03*
X0592673D02*
D03*
Y0249500D02*
D03*
X0256500D02*
D03*
D67*
X0391161Y0272114D02*
D03*
X0401161D02*
D03*
D68*
X0411161D02*
D03*
D69*
X0288882Y0488616D02*
D03*
X0344862Y0475359D02*
D03*
X0310343Y0465078D02*
D03*
X0313306Y0460236D02*
D03*
X0316631Y0454888D02*
D03*
X0430494Y0449220D02*
D03*
X0432657Y0452035D02*
D03*
X0430295Y0454791D02*
D03*
X0469665Y0420146D02*
D03*
X0532817Y0444186D02*
D03*
X0474840Y0444185D02*
D03*
X0423802Y0493721D02*
D03*
X0491976Y0461149D02*
D03*
X0489067Y0458444D02*
D03*
X0453020D02*
D03*
X0456168Y0461362D02*
D03*
X0471383Y0473667D02*
D03*
X0481562Y0466859D02*
D03*
X0498540Y0392630D02*
D03*
X0502894Y0395342D02*
D03*
X0502815Y0402753D02*
D03*
X0498445Y0407547D02*
D03*
X0478945Y0493535D02*
D03*
X0375177Y0315421D02*
D03*
X0383942Y0247995D02*
D03*
X0419272Y0248098D02*
D03*
M02*
