G04*
G04 #@! TF.GenerationSoftware,Altium Limited,Altium Designer,21.9.2 (33)*
G04*
G04 Layer_Color=255*
%FSAX25Y25*%
%MOIN*%
G70*
G04*
G04 #@! TF.SameCoordinates,F5C87AF0-6DD1-454A-8E35-7E20B65E17A7*
G04*
G04*
G04 #@! TF.FilePolarity,Positive*
G04*
G01*
G75*
%ADD76O,0.07000X0.10000*%
%ADD77R,0.07000X0.10000*%
%ADD78R,0.07874X0.09843*%
%ADD79O,0.19685X0.11811*%
%ADD80R,0.10000X0.16000*%
%ADD81R,0.16000X0.10000*%
%ADD82C,0.23622*%
%ADD83C,0.06299*%
%ADD84R,0.06299X0.06299*%
D76*
X0492815Y0548886D02*
D03*
X0502815D02*
D03*
X0512815D02*
D03*
X0522815D02*
D03*
X0532815D02*
D03*
D77*
X0542815D02*
D03*
D78*
X0325571Y0537075D02*
D03*
X0305571D02*
D03*
X0500374Y0275064D02*
D03*
X0540424D02*
D03*
X0520424D02*
D03*
X0434261D02*
D03*
X0474311D02*
D03*
X0454311D02*
D03*
X0349587Y0275264D02*
D03*
X0369587D02*
D03*
D79*
X0440335Y0517587D02*
D03*
X0468878D02*
D03*
D80*
X0329408Y0279403D02*
D03*
D81*
X0309408Y0264404D02*
D03*
Y0289404D02*
D03*
D82*
X0256500Y0564020D02*
D03*
X0592673D02*
D03*
Y0249500D02*
D03*
X0256500D02*
D03*
D83*
X0391161Y0272114D02*
D03*
X0401161D02*
D03*
D84*
X0411161D02*
D03*
M02*
