G04*
G04 #@! TF.GenerationSoftware,Altium Limited,Altium Designer,21.9.2 (33)*
G04*
G04 Layer_Color=16711935*
%FSAX25Y25*%
%MOIN*%
G70*
G04*
G04 #@! TF.SameCoordinates,F5C87AF0-6DD1-454A-8E35-7E20B65E17A7*
G04*
G04*
G04 #@! TF.FilePolarity,Positive*
G04*
G01*
G75*
%ADD10C,0.00787*%
%ADD14C,0.00500*%
%ADD86C,0.00394*%
%ADD87C,0.01968*%
%ADD88R,0.02436X0.11496*%
D10*
X0314291Y0504791D02*
G03*
X0314291Y0504791I-0000394J0000000D01*
G01*
X0317303D02*
G03*
X0317303Y0504791I-0000394J0000000D01*
G01*
X0532858Y0309712D02*
G03*
X0532858Y0309712I-0000394J0000000D01*
G01*
X0498343D02*
G03*
X0498343Y0309712I-0000394J0000000D01*
G01*
X0463827D02*
G03*
X0463827Y0309712I-0000394J0000000D01*
G01*
X0429311D02*
G03*
X0429311Y0309712I-0000394J0000000D01*
G01*
D14*
X0289636Y0497655D02*
X0306663D01*
X0289636D02*
Y0511927D01*
X0306663D01*
Y0497655D02*
Y0511927D01*
X0324144D02*
X0341171D01*
Y0497655D02*
Y0511927D01*
X0324144Y0497655D02*
X0341171D01*
X0324144D02*
Y0511927D01*
X0545536Y0318940D02*
Y0336263D01*
X0529394D02*
X0545536D01*
X0529394Y0318940D02*
Y0336263D01*
Y0318940D02*
X0545536D01*
X0511020D02*
Y0336263D01*
X0494878D02*
X0511020D01*
X0494878Y0318940D02*
Y0336263D01*
Y0318940D02*
X0511020D01*
X0476504D02*
Y0336263D01*
X0460362D02*
X0476504D01*
X0460362Y0318940D02*
Y0336263D01*
Y0318940D02*
X0476504D01*
X0441988D02*
Y0336263D01*
X0425847D02*
X0441988D01*
X0425847Y0318940D02*
Y0336263D01*
Y0318940D02*
X0441988D01*
D86*
X0313760Y0474279D02*
G03*
X0313760Y0474279I-0001969J0000000D01*
G01*
X0468090Y0428807D02*
G03*
X0468090Y0428807I-0001969J0000000D01*
G01*
X0308248Y0457744D02*
X0323996D01*
X0308248Y0477823D02*
X0323996D01*
Y0457744D02*
Y0477823D01*
X0308248Y0457744D02*
Y0477823D01*
X0462579Y0404791D02*
X0490138D01*
X0462579Y0432350D02*
X0490138D01*
Y0404791D02*
Y0432350D01*
X0462579Y0404791D02*
Y0432350D01*
X0366242Y0301445D02*
Y0309713D01*
X0361124Y0301445D02*
Y0309713D01*
X0366242D01*
X0361124Y0301445D02*
X0366242D01*
X0377790D02*
Y0309713D01*
X0372672Y0301445D02*
Y0309713D01*
X0377790D01*
X0372672Y0301445D02*
X0377790D01*
X0318091Y0347862D02*
Y0359358D01*
X0299980Y0347862D02*
Y0359358D01*
Y0347862D02*
X0318091D01*
X0299980Y0359358D02*
X0318091D01*
D87*
X0242500Y0266996D02*
X0289744D01*
X0242500Y0265028D02*
Y0266996D01*
Y0546524D02*
X0289744D01*
X0559429D02*
X0606673D01*
X0559429D02*
Y0578020D01*
X0289744Y0235500D02*
Y0266996D01*
X0242500Y0235500D02*
Y0578020D01*
X0594862D01*
X0606673D01*
X0606673Y0235500D01*
X0242500D02*
X0606673D01*
X0289744Y0546524D02*
Y0578020D01*
Y0546524D02*
Y0578020D01*
Y0546524D02*
Y0578020D01*
X0559429Y0266996D02*
X0606673D01*
X0559429Y0235500D02*
Y0266996D01*
X0606673Y0578020D02*
X0606673Y0235500D01*
D88*
X0301198Y0353610D02*
D03*
M02*
